<svg xmlns="http://www.w3.org/2000/svg" viewBox="0 0 1200 1200"><g data-name="12"><path fill="#4f3cc9" d="m913.35 430.57-10.63-2.32-2.42-10.61a.82.82 0 0 0-.8-.64.84.84 0 0 0-.81.64l-2.42 10.66-10.63 2.52a.84.84 0 0 0-.64.82.81.81 0 0 0 .65.79l10.63 2.32 2.41 10.61a.84.84 0 0 0 .81.64.82.82 0 0 0 .8-.64l2.43-10.66 10.63-2.52a.82.82 0 0 0 0-1.61ZM293.35 584.57l-10.63-2.32-2.42-10.61a.82.82 0 0 0-.8-.64.84.84 0 0 0-.81.64l-2.42 10.66-10.63 2.52a.84.84 0 0 0-.64.82.81.81 0 0 0 .65.79l10.63 2.32 2.41 10.61a.84.84 0 0 0 .81.64.82.82 0 0 0 .8-.64l2.43-10.66 10.63-2.52a.82.82 0 0 0 0-1.61ZM859.66 388l-5.5-1.2-1.24-5.49a.43.43 0 0 0-.84 0l-1.25 5.52-5.5 1.3a.43.43 0 0 0-.33.42.42.42 0 0 0 .34.41l5.5 1.2 1.24 5.49a.43.43 0 0 0 .84 0l1.25-5.52 5.5-1.3a.44.44 0 0 0 .33-.42.42.42 0 0 0-.34-.41Z" class="color4f3cc9 svgShape"/><g data-name="Flying flies"><path fill="#77e0b5" d="m286 288.66.68-17.3a12.4 12.4 0 0 1 16.81-11.08 12.39 12.39 0 0 1 5.12 19.48l-11 13.34ZM281.29 301.07l-11 13.34a12.39 12.39 0 0 0 5.12 19.47 12.39 12.39 0 0 0 16.81-11.08l.69-17.3Z" class="color77e0b5 svgShape"/><path fill="#4f3cc9" d="m274.34 291.47 5.4 11.45a9.26 9.26 0 0 0 12.32 4.42l11.06-5.21-5.39-11.45a9.27 9.27 0 0 0-12.32-4.43Z" class="color4f3cc9 svgShape"/><circle cx="270.84" cy="289.96" r="8.41" fill="#4f3cc9" class="color4f3cc9 svgShape"/><path fill="#4f3cc9" d="M260.04 278.69h6v7.57h-6z" transform="rotate(-48.5 263.07 282.479)" class="color4f3cc9 svgShape"/><path fill="#4f3cc9" d="M257.04 286.55h6v7.57h-6z" transform="rotate(-89.62 260.015 290.327)" class="color4f3cc9 svgShape"/><path fill="#4f3cc9" d="m452.11 666-5.87-1.21c.56-2.71 1.09-5.45 1.6-8.15l5.89 1.09c-.5 2.75-1.05 5.53-1.62 8.27Zm4.12-23.17-5.93-.83c.74-5 1.37-9.94 1.89-14.75l6 .63c-.56 4.86-1.19 9.9-1.96 14.96Zm3.18-30.08-6-.36c.3-5 .47-10 .5-14.83h6c-.03 4.97-.2 10.07-.5 15.2Zm-5.84-30c-.28-5-.72-10-1.32-14.72l6-.74c.61 4.88 1.07 10 1.35 15.13Zm-3.73-29.26c-1-4.89-2.25-9.68-3.65-14.24l5.73-1.76c1.46 4.73 2.74 9.7 3.8 14.78Zm-55-26c-1.77 0-3.57-.07-5.36-.2l.45-6c1.64.13 3.35.17 4.91.19a59.26 59.26 0 0 0 9.33-.73l1 5.92a64.25 64.25 0 0 1-10.29.79Zm46.26-2a118.79 118.79 0 0 0-6.58-13l5.18-3a125.47 125.47 0 0 1 6.91 13.71Zm-67.1-1.78a37.86 37.86 0 0 1-13.13-9.43l4.48-4a31.85 31.85 0 0 0 11.07 7.93Zm46.3-1.63-2.52-5.44a46.29 46.29 0 0 0 11.72-7.72l4.05 4.43a52.29 52.29 0 0 1-13.3 8.73Zm6.13-21.67a95.79 95.79 0 0 0-9.81-10.72l4.1-4.38a101.42 101.42 0 0 1 10.38 11.39Zm16.33 0-5.28-2.85a101.05 101.05 0 0 0 6-13.26l5.63 2.08a107.06 107.06 0 0 1-6.4 13.99Zm-89.63-.31a43.1 43.1 0 0 1-1.2-5.47 25.57 25.57 0 0 1-.31-4 25 25 0 0 1 1-7l5.76 1.67a19.11 19.11 0 0 0-.74 5.3 19.88 19.88 0 0 0 .24 3.08 38.81 38.81 0 0 0 1 4.73Zm52.13-19.34a56.53 56.53 0 0 0-11.62-6.06l-.93-.26 1.58-5.79 1.07.3a59.49 59.49 0 0 1 13.19 6.79Zm-39.35-5.38-3.13-5.11a29.75 29.75 0 0 1 15.76-4h.2l-.05 6h-.15a23.92 23.92 0 0 0-12.68 3.07Zm87.37-3.92-5.9-1.11a80.14 80.14 0 0 0 1.4-14.37h6a86.56 86.56 0 0 1-1.55 15.44Zm-5.7-29.84a90.68 90.68 0 0 0-3.65-14l5.67-2a95.72 95.72 0 0 1 3.89 14.95Zm-9.38-27.39a127.82 127.82 0 0 0-7.43-12.63l5-3.32a133.43 133.43 0 0 1 7.77 13.22ZM422 389.72c-3-3.7-6.28-7.43-9.76-11.1l4.35-4.13c3.59 3.78 7 7.63 10.07 11.45Zm-20.32-21.49c-3.53-3.26-7.3-6.55-11.2-9.77l3.83-4.63c4 3.29 7.83 6.65 11.44 10Zm-22.9-19c-3.88-2.9-8-5.81-12.12-8.65l3.38-5c4.23 2.89 8.38 5.86 12.33 8.81Zm-24.6-16.81c-4.17-2.61-8.48-5.2-12.79-7.69l3-5.2c4.37 2.53 8.74 5.15 13 7.81Zm-25.86-14.9c-8.14-4.29-13.3-6.61-13.35-6.64l2.46-5.47c.22.1 5.36 2.42 13.69 6.8Z" class="color4f3cc9 svgShape"/></g><path fill="#ffffff" d="m749.9 470.39-24.2-8.14-2.39-68.81c29.58-22.45 13-38.54 13-38.54l-1.26-31.48H617c-22 128.29 33.94 116 33.94 116l-1.42 26.73-29.7 13.27L621 531h133Z" class="colorfff svgShape"/><path fill="#4f3cc9" d="M757.21 534H618.07l-1.29-56.48 29.84-13.34 1.14-21.42a30.54 30.54 0 0 1-21.92-8.76c-17.58-16.79-21.55-54.17-11.8-111.1l.43-2.49H738l1.33 33.29a21.12 21.12 0 0 1 4.63 14.54c-.55 8.94-6.45 17.89-17.55 26.62l2.27 65.2 24.12 8.12Zm-133.28-6h126.86L747 472.59l-24.26-8.16-2.48-72.43 1.24-.94c10.29-7.82 16-15.83 16.42-23.16a15 15 0 0 0-3.68-10.84l-.86-.83-1.2-29.8H619.53c-11 66.47-.45 92.84 10.45 103.25 9.52 9.08 20.21 6.87 20.31 6.84l3.85-.84-1.72 32.49-29.55 13.21Z" class="color4f3cc9 svgShape"/><path fill="#4f3cc9" d="M684.21 330.32s-25.26 16.35-68.35 0l-2.09 15.06s-19-13.53-13.9-38.57c0 0 2.56-15.85 29.14-18.92 0 0 11.24-23 35.78-13.29 0 0 18.4-11.24 36.29 5.63 0 0 15.84-.51 18.4 12.26 0 0 26.06-3.06 33.22 21 0 0 4.09 30.69-17.89 44 0 0-15.85-10.25-23 11.22l-9.2 2.56-2.05-14.31s-13.8-4.15-16.35-26.64Z" class="color4f3cc9 svgShape"/><path fill="#4f3cc9" d="M623.13 384.45a18.61 18.61 0 1 1 18.61-18.61 18.63 18.63 0 0 1-18.61 18.61Zm0-33.22a14.61 14.61 0 1 0 14.61 14.61 14.62 14.62 0 0 0-14.61-14.61ZM663 384.45a18.61 18.61 0 1 1 18.61-18.61A18.63 18.63 0 0 1 663 384.45Zm0-33.22a14.61 14.61 0 1 0 14.61 14.61A14.62 14.62 0 0 0 663 351.23Z" class="color4f3cc9 svgShape"/><circle cx="623.38" cy="368.14" r="4.6" fill="#4f3cc9" class="color4f3cc9 svgShape"/><circle cx="663" cy="368.4" r="4.6" fill="#4f3cc9" class="color4f3cc9 svgShape"/><path fill="#4f3cc9" d="M679.49 360.14h22.85v4h-22.85z" transform="rotate(-8.35 691.027 362.177)" class="color4f3cc9 svgShape"/><path fill="#4f3cc9" d="m648.74 396.71-17.31-1.79 10.74-32.12 3.8 1.27-9.16 27.38 12.34 1.28-.41 3.98zM638.23 349.27c-.08-.07-8.1-6.33-23.83-4.36l-.5-4c17.55-2.19 26.48 4.92 26.85 5.22l-2.53 3.1 1.26-1.55ZM650.46 348.76l-3-2.6c.12-.14 11.8-13.42 30.94-1.4l-2.13 3.39c-16.17-10.15-25.43.17-25.81.61ZM635.51 414a4 4 0 0 1 .58-6.18 9.6 9.6 0 0 1 5.11-1.66c4.76-.14 11.06 2.92 14 4.5a1.37 1.37 0 0 1 .27 2.23c-3.3 2.9-13.35 7.99-19.96 1.11Z" class="color4f3cc9 svgShape"/><path fill="#77e0b5" d="M631 474s4 48 58 46c0 0 44.5-4.5 57.5-50.5 0 0 59.46 14.86 107.84 40.7a73.7 73.7 0 0 1 36.52 46.25L933 699l-107 1-12.5-22.5 19 255h-275l-7-209-88-11 50.19-157a85.71 85.71 0 0 1 47.36-52.5Z" class="color77e0b5 svgShape"/><path fill="#4f3cc9" d="M835.73 935.5H554.6l-7-209.34L458.54 715l51.29-160.49a88.76 88.76 0 0 1 49-54.31l74.8-30.55.34 4.07c.17 1.91 4.55 45.07 54.79 43.26 2.7-.3 42.72-5.47 54.83-48.33l.79-2.8 2.83.71c.6.15 60.37 15.25 108.52 41a77 77 0 0 1 38 48.13L937 702l-112.76 1-6.73-12.13Zm-275.33-6h268.87l-19.78-265.39L827.76 697 929 696l-41-138.7a71 71 0 0 0-35.06-44.45c-41.62-22.23-92.15-36.44-104.39-39.72a70.71 70.71 0 0 1-34.24 41.51 73.06 73.06 0 0 1-25 8.34h-.19c-1.13 0-2.23.06-3.32.06-27.12 0-41.34-12.73-48.54-23.66a60.29 60.29 0 0 1-8.63-21.19l-67.43 27.54a82.72 82.72 0 0 0-45.64 50.62L466.46 710l86.95 10.87Z" class="color4f3cc9 svgShape"/><path fill="#f582ae" d="M383 636h378v296H383z" class="colorf582ae svgShape"/><path fill="#4f3cc9" d="M764 935H380V633h384Zm-378-6h372V639H386Z" class="color4f3cc9 svgShape"/><path fill="#ffffff" d="M297.5 715.5h228l92-79h-235l-85 79z" class="colorfff svgShape"/><path fill="#4f3cc9" d="M526.61 718.5H289.87l91.45-85H625.6Zm-221.48-6h219.26l85-73H383.68Z" class="color4f3cc9 svgShape"/><path fill="#4f3cc9" d="M616 636h145v296H616z" class="color4f3cc9 svgShape"/><path fill="#ffffff" d="M822.5 715.5h-158l-48-79h145l61 79z" class="colorfff svgShape"/><path fill="#4f3cc9" d="M828.61 718.5h-165.8l-51.64-85H763Zm-162.42-6h150.2l-56.39-73H621.83Z" class="color4f3cc9 svgShape"/><path fill="#ffffff" d="M383 818s-27.51 16.68-26.21 47a32.44 32.44 0 0 0 5.84 17.21C369.5 892 385.06 907.31 416 910c0 0 14 2 10-8 0 0 10-5 6-14 0 0 9-8 4-15 0 0 7-10 1-14s-33-9-33-9 20-4 17-13-38-7.67-38-7.67Z" class="colorfff svgShape"/><path fill="#4f3cc9" d="M418.73 913.18a22.27 22.27 0 0 1-3.07-.2c-32.48-2.85-48.7-19.43-55.48-29.07a35.25 35.25 0 0 1-6.38-18.8c-1.37-31.72 26.46-49 27.65-49.68l4.55-2.76v13.58c11-.2 34.74.49 37.85 9.8a8.33 8.33 0 0 1-.73 7c-1.54 2.66-4.49 4.7-7.6 6.22 8.48 1.88 19.28 4.64 23.14 7.21a8.22 8.22 0 0 1 3.6 5.43c.78 4.14-1.36 8.71-2.76 11.13 2.77 5.89-.76 12.13-4 15.72 1.93 6.76-2.19 11.88-5.94 14.57a7.5 7.5 0 0 1-1.3 6.33c-2.32 2.94-6.54 3.52-9.53 3.52ZM380 823.93c-7.4 6.08-21.1 20.23-20.21 40.92a29.39 29.39 0 0 0 5.29 15.61c6.19 8.79 21.06 23.93 51.18 26.55h.16c2.67.37 6.25 0 7.1-1.06.35-.44.23-1.51-.31-2.86l-1-2.56 2.47-1.23c.75-.39 7.32-4 4.6-10.1l-.89-2 1.64-1.45c.06-.06 6.91-6.31 3.55-11l-1.25-1.75 1.21-1.74c1.33-1.92 3.28-5.86 2.82-8.25a2.18 2.18 0 0 0-1-1.53c-4-2.67-21.68-6.66-31.89-8.55l-15.31-2.84 15.27-3.05c4.58-.92 12.58-3.64 14.53-7a2.35 2.35 0 0 0 .21-2.11c-1.34-4.05-19.55-6.21-35-5.62l-3.11.12Z" class="color4f3cc9 svgShape"/><path fill="#ffffff" d="m929.41 698.28-100.41 1 11.79 33.27L688.3 889.94s-35-23.34-55.76-25a7.59 7.59 0 0 0-8.16 7.44c-.07 5.56 2.51 13.7 14.73 21.85 0 0-19 14.56-32.49 22a12.58 12.58 0 0 0-6.39 13.65c1.27 5.51 6.33 11 21.52 10.88 0 0 0 15.67 20.25 11.33 0 0 5.79 14.47 23.15 7.23 0 0 4.85 9.63 27.49-4.33L923.21 795.1A46.54 46.54 0 0 0 941.7 745Z" class="colorfff svgShape"/><path fill="#4f3cc9" d="M672.57 965.61a15.33 15.33 0 0 1-4.16-.54 10.82 10.82 0 0 1-4.12-2.16c-5.66 2-10.79 2-15.29.1a18.8 18.8 0 0 1-8.6-7.52c-6.83 1.08-12.24 0-16.11-3.09a15.26 15.26 0 0 1-5.16-8.63c-15.58-.57-20.49-7.38-21.82-13.17a15.59 15.59 0 0 1 7.86-16.94c9.83-5.44 22.89-14.89 28.87-19.33-10.49-8.16-12.73-16.32-12.66-21.94A10.58 10.58 0 0 1 632.77 862c18.56 1.44 47.1 19 55.09 24.08L837.34 731.8l-12.57-35.48 106.94-1.06 12.89 49a49.69 49.69 0 0 1-19.68 53.34l-230.64 160h-.07c-8.65 5.33-15.91 8.01-21.64 8.01Zm-4.76-7.61c1.24 1.77 7.64 4.11 23.18-5.46l230.51-159.9a43.7 43.7 0 0 0 17.3-46.88l-11.7-44.46-93.87.94 11 31.06-155.52 160.52-2.08-1.39c-.34-.22-34.59-22.91-54.32-24.45a4.55 4.55 0 0 0-3.44 1.19 4.49 4.49 0 0 0-1.49 3.29c-.09 6.74 4.54 13.42 13.4 19.32l3.49 2.33-3.34 2.55c-.78.6-19.37 14.79-32.86 22.25a9.56 9.56 0 0 0-4.91 10.35c1.32 5.76 7.58 8.64 18.57 8.55h3v3a10 10 0 0 0 3.36 7c2.81 2.24 7.27 2.72 13.27 1.44l2.47-.53.94 2.35a13.29 13.29 0 0 0 6.6 6.48c3.48 1.44 7.72 1.13 12.61-.9l2.82-1.18Zm0 0Z" class="color4f3cc9 svgShape"/><g><path fill="#4f3cc9" d="M635.36 585h57.27v6h-57.27z" transform="rotate(-65.23 663.98 587.995)" class="color4f3cc9 svgShape"/><path fill="#4f3cc9" d="M597 536h6v78h-6z" class="color4f3cc9 svgShape"/><path fill="#4f3cc9" d="M533 560.34h6v50.33h-6z" transform="rotate(-20.96 535.856 585.401)" class="color4f3cc9 svgShape"/></g></g></svg>