<svg data-v-0dd9719b="" version="1.0" xmlns="http://www.w3.org/2000/svg" xmlns:xlink="http://www.w3.org/1999/xlink" width="100%" height="100%" viewBox="0 0 340 250" preserveAspectRatio="xMidYMid meet" color-interpolation-filters="sRGB" style="margin: auto;">
  <g data-v-0dd9719b="" fill="#6B6B6B" class="icon-text-wrapper icon-svg-group iconsvg" transform="translate(69.5650023818016,76.13436889648438)">
    <g >
      <g data-gra="path-name" fill-rule="" class="tp-name iconsvg-namesvg">
        <g transform="scale(1)">
          <g>
            <path d="M13.04-3.12C11.82-1.89 10.17-1.25 8.55-1.25 5.13-1.25 2.26-3.48 2.26-7.54 2.26-11.61 5.13-13.84 8.55-13.84 10.17-13.84 11.85-13.26 13.07-12.03L14.05-12.98C12.52-14.48 10.54-15.24 8.55-15.24 4.18-15.24 0.79-12.31 0.79-7.54 0.79-2.78 4.31 0.15 8.55 0.15 10.54 0.15 12.52-0.58 14.05-2.11ZM17.1-15.09L17.1 0 18.6 0 18.6-8.8C18.6-11.55 20.77-13.81 23.58-13.84 24.47-13.84 25.35-13.62 26.15-13.13L26.82-14.36C25.81-14.97 24.71-15.27 23.58-15.24 21.66-15.24 19.52-14.45 18.57-12.4L18.51-15.09ZM42.09-15.09L42.09-11.79C40.84-14.14 38.36-15.27 35.92-15.27 31.71-15.27 28.25-12.16 28.25-7.54 28.25-2.93 31.71 0.24 35.92 0.24 38.36 0.24 40.62-0.86 42.09-3.21L42.09 0 43.59 0C43.59-5.04 43.59-10.05 43.59-15.09ZM35.92-13.84C44.32-13.84 44.32-1.22 35.92-1.22 32.5-1.22 29.75-3.76 29.75-7.54 29.75-11.33 32.5-13.84 35.92-13.84ZM50.67 0L50.67-13.65 55.65-13.65 55.65-14.97 50.67-14.97 50.67-16.31C50.67-18.94 51.77-20.1 53.67-20.1 54.58-20.1 55.16-19.82 55.99-19.33L56.72-20.43C55.87-21.08 54.86-21.47 53.73-21.47 50.4-21.47 49.21-19.3 49.21-16.31L49.21-14.97 46.12-14.97 46.12-13.65 49.21-13.65 49.21 0ZM61.15-19.49L61.15-15.09 57.94-15.09 57.94-13.84 61.15-13.84 61.15-4.64C61.15-1.68 62.19 0.21 65.4 0.21 66.34 0.21 67.29-0.09 68.24-0.55L67.72-1.77C66.95-1.41 66.13-1.16 65.4-1.16 63.04-1.16 62.62-2.6 62.62-4.64L62.62-13.84 67.75-13.84 67.75-15.09 62.62-15.09 62.62-19.64ZM78.01 0.21C80.42 0.21 83.05-0.76 84.52-2.69L83.45-3.54C82.32-2.05 80-1.25 78.01-1.25 74.9-1.25 72.18-3.3 71.87-6.84L85.46-6.84C86.04-12.74 82.26-15.33 78.01-15.33 73.76-15.33 70.34-12.07 70.34-7.54 70.34-2.75 73.76 0.21 78.01 0.21ZM71.87-8.16C72.21-11.85 74.9-13.96 78.01-13.96 81.65-13.96 84.09-11.88 84.12-8.16ZM96.15-13.9C99.64-13.9 102.32-11.33 102.32-7.58 102.32-3.82 99.7-1.22 96.15-1.22 92.76-1.22 89.98-3.36 89.98-7.54 89.98-11.79 92.76-13.9 96.15-13.9ZM102.35-21.38L102.35-11.79C101.13-14.23 98.69-15.33 96.09-15.33 91.88-15.33 88.52-12.52 88.52-7.54 88.52-2.54 91.85 0.24 96.06 0.24 98.63 0.24 101.1-1.04 102.35-3.33L102.35 0 103.82 0 103.82-21.38Z" transform="translate(-0.7899999618530273, 21.469999313354492)"></path>
          </g>
          <g data-gra="path-name-1" fill="#0ca579" transform="translate(106.02999877929688,0)">
            <g transform="scale(1)">
              <path d="M11.64-4.37C10.72-3.45 9.53-3.12 8.34-3.12 6.02-3.12 4.06-4.64 4.06-7.51 4.06-10.14 5.9-11.97 8.4-11.97 9.44-11.97 10.54-11.58 11.42-10.78L13.78-13.26C12.13-14.88 10.48-15.49 8.34-15.49 3.97-15.49 0.34-12.86 0.34-7.51 0.34-2.17 3.97 0.46 8.34 0.46 10.57 0.46 12.4-0.21 14.14-1.92ZM27.61-12.98C26.76-14.48 24.83-15.42 22.82-15.42 18.42-15.46 14.97-12.74 14.97-7.54 14.97-2.26 18.27 0.49 22.73 0.46 24.41 0.43 26.76-0.43 27.61-2.2L27.8 0 31.31 0 31.31-15.06 27.73-15.06ZM23.15-12.1C29.02-12.1 29.02-2.96 23.15-2.96 20.68-2.96 18.69-4.67 18.69-7.54 18.69-10.42 20.68-12.1 23.15-12.1ZM34.45-15.06L34.45 0 38.18 0 38.18-7.94C38.18-10.72 39.98-11.76 41.94-11.76 43.16-11.76 43.86-11.42 44.63-10.78L46.31-14.02C45.48-14.84 43.98-15.46 42.43-15.46 40.9-15.46 39.34-15.18 38.18-13.32L37.91-15.06ZM62.65-6.2C63.23-12.4 60.08-15.52 55.04-15.52 50.15-15.52 47.04-12.22 47.04-7.64 47.04-2.81 50.12 0.4 55.32 0.4 57.61 0.4 60.2-0.4 61.79-2.05L59.41-4.4C58.55-3.51 56.75-2.99 55.38-2.99 52.75-2.99 51.13-4.34 50.89-6.2ZM50.95-9.29C51.5-11.24 53.15-12.22 55.16-12.22 57.3-12.22 58.83-11.24 59.07-9.29ZM80.45-6.2C81.03-12.4 77.89-15.52 72.85-15.52 67.96-15.52 64.85-12.22 64.85-7.64 64.85-2.81 67.93 0.4 73.12 0.4 75.41 0.4 78.01-0.4 79.6-2.05L77.22-4.4C76.36-3.51 74.56-2.99 73.18-2.99 70.56-2.99 68.94-4.34 68.69-6.2ZM68.76-9.29C69.31-11.24 70.95-12.22 72.97-12.22 75.11-12.22 76.64-11.24 76.88-9.29ZM83.33-15.06L83.33 0 87.05 0 87.05-7.94C87.05-10.72 88.85-11.76 90.81-11.76 92.03-11.76 92.73-11.42 93.5-10.78L95.18-14.02C94.35-14.84 92.86-15.46 91.3-15.46 89.77-15.46 88.21-15.18 87.05-13.32L86.78-15.06Z" transform="translate(-0.3400000035762787, 21.469999313354492)"></path>
            </g>
          </g>
        </g>
      </g>
      <!---->
    </g>
  </g>
  <defs v-gra="od"></defs>
</svg>