<svg xmlns="http://www.w3.org/2000/svg" enable-background="new 0 0 2500 2500"
    viewBox="0 0 2500 2500">
    <path fill="#ffffff"
        d="M1239.25,1428.58H497.82c-33.93,0-61.43-27.5-61.43-61.43V484.43c0-33.93,27.5-61.43,61.43-61.43          h741.43c33.93,0,61.43,27.5,61.43,61.43v882.72C1300.68,1401.08,1273.18,1428.58,1239.25,1428.58z"
        class="colorfff svgShape" />
    <path fill="#e7ebfb"
        d="M1300.69,646.1v559.39c0,123.19-99.91,223.1-223.1,223.1H659.51c-90.25,0-167.97-53.57-203.12-130.63          c40.71,43.04,98.31,69.87,162.19,69.87h418.12c123.19,0,223.1-99.87,223.1-223.1v-559.4c0-32.94-7.15-64.24-19.97-92.39          C1277.55,532.93,1300.69,586.79,1300.69,646.1z"
        class="colore7ebfb svgShape" />
    <path fill="#060f11"
        d="M1077.58,1431.76H659.49c-124.77,0-226.28-101.51-226.28-226.28V646.1          c0-124.77,101.51-226.28,226.28-226.28h418.09c124.77,0,226.28,101.51,226.28,226.28v559.38          C1303.86,1330.25,1202.35,1431.76,1077.58,1431.76z M659.49,426.17c-121.27,0-219.93,98.66-219.93,219.93v559.38          c0,121.27,98.66,219.93,219.93,219.93h418.09c121.27,0,219.92-98.66,219.92-219.93V646.1          c0-121.27-98.66-219.93-219.92-219.93H659.49z"
        class="color060f11 svgShape" />
    <path fill="#e7ebfb"
        d="M1173.84,1269.43H610.86c-11.66,0-21.11-9.45-21.11-21.11v-111.1c0-11.66,9.45-21.11,21.11-21.11          h562.98c11.66,0,21.11,9.45,21.11,21.11v111.1C1194.95,1259.98,1185.5,1269.43,1173.84,1269.43z"
        class="colore7ebfb svgShape" />
    <path fill="#060f11"
        d="M1118.29,1272.61H666.4c-44.02,0-79.83-35.81-79.83-79.83c0-44.02,35.81-79.83,79.83-79.83h451.89          c44.02,0,79.83,35.81,79.83,79.83C1198.13,1236.79,1162.31,1272.61,1118.29,1272.61z M666.4,1119.3          c-40.51,0-73.48,32.96-73.48,73.48s32.96,73.48,73.48,73.48h451.89c40.51,0,73.48-32.96,73.48-73.48          s-32.96-73.48-73.48-73.48H666.4z"
        class="color060f11 svgShape" />
    <path fill="#ffd400"
        d="M953.56,845.77l32.62,175.2c2.8,15.05-8.75,28.95-24.05,28.95H822.57c-15.31,0-26.86-13.9-24.05-28.95           l32.63-175.2c1.94-10.44-3.06-20.94-12.41-25.98c-51.81-27.88-86-84.23-81.6-148.1c5.38-78.19,69.5-140.76,147.79-144.41           c89.3-4.16,163.03,67,163.03,155.41c0,59.28-33.17,110.84-81.97,137.1C956.62,824.83,951.61,835.33,953.56,845.77z"
        class="colorffd400 svgShape" />
    <path fill="#141323"
        d="M953.57,845.78l32.62,175.18c2.8,15.04-8.74,28.95-24.07,28.95h-33.31           c15.32,0,26.87-13.91,24.07-28.95l-32.62-175.18c-1.94-10.44,3.05-20.96,12.41-25.98c48.8-26.26,81.97-77.81,81.97-137.1           c0-80.33-60.87-146.4-138.96-154.7c3.05-0.33,6.13-0.58,9.24-0.72c89.3-4.16,163.03,67.01,163.03,155.42           c0,59.29-33.17,110.84-81.97,137.1C956.62,824.82,951.63,835.34,953.57,845.78z"
        class="color141323 svgShape" />
    <path fill="#060f11"
        d="M962.13,1053.1H822.57c-8.24,0-15.99-3.64-21.26-9.98c-5.27-6.34-7.42-14.63-5.92-22.73l32.63-175.2           c1.7-9.13-2.64-18.21-10.79-22.6c-54.87-29.53-87.55-88.85-83.27-151.11c5.52-80.26,70.36-143.62,150.82-147.36           c43.9-2.05,85.51,13.48,117.19,43.73c31.7,30.26,49.16,71.05,49.16,114.86c0,58.53-32.05,112.14-83.65,139.89           c-8.16,4.39-12.5,13.47-10.8,22.6l32.63,175.2c1.51,8.1-0.65,16.39-5.92,22.73C978.12,1049.46,970.37,1053.1,962.13,1053.1           z M892.44,530.29c-2.45,0-4.9,0.06-7.37,0.17c-77.23,3.6-139.47,64.41-144.77,141.45           c-4.11,59.78,27.26,116.73,79.94,145.08c10.6,5.7,16.24,17.5,14.03,29.36l-32.63,175.2c-1.16,6.24,0.5,12.62,4.56,17.5           c4.06,4.88,10.02,7.68,16.37,7.68h139.56c6.35,0,12.32-2.8,16.37-7.68s5.72-11.26,4.56-17.5l-32.63-175.2l0,0           c-2.21-11.86,3.43-23.65,14.04-29.36c49.53-26.65,80.3-78.11,80.3-134.3c0-42.06-16.76-81.22-47.19-110.26           C968.94,545.1,931.84,530.29,892.44,530.29z"
        class="color060f11 svgShape" />
    <path fill="none" d="M779.59,673.38c3.5-50.84,45.19-91.52,96.09-93.89" />
    <path fill="#060f11"
        d="M779.59,676.56c-0.07,0-0.15,0-0.22-0.01c-1.75-0.12-3.07-1.64-2.95-3.39           c3.63-52.75,46.24-94.38,99.11-96.85c1.76-0.08,3.24,1.27,3.32,3.03c0.08,1.75-1.27,3.24-3.03,3.32           c-49.65,2.31-89.66,41.41-93.06,90.93C782.65,675.28,781.25,676.56,779.59,676.56z"
        class="color060f11 svgShape" />
    <polyline fill="#ffc1a4"
        points="2082.51 2046.29 2011.83 1966.09 2125.74 1879.59 2191.33 1953.29"
        class="colorffc1a4 svgShape" />
    <path fill="#00c09a"
        d="M2113.72,2246.42l167.35-185.46c2.45-2.68,3.33-6.41,2.46-9.91l-92.2-97.76l-108.82,93.01                 l23.48,47.79l-9.95,115.05l-0.99,31.99C2096.7,2249.97,2107.69,2253.07,2113.72,2246.42z"
        class="color00c09a svgShape" />
    <path fill="#060606"
        d="M2113.72,2246.42l167.35-185.46c2.45-2.68,3.33-6.41,2.46-9.91l-17.29-18.34l-158.16,183.35                 c-6.01,6.67-10.52,1.41-12.14-7.42l-0.88,32.48C2096.7,2249.97,2107.69,2253.07,2113.72,2246.42z"
        class="color060606 svgShape" />
    <path
        d="M2105.99 2097.71c-1.4 0-2.73-.81-3.33-2.17-.81-1.84.02-3.98 1.86-4.79l39.02-17.19c1.84-.81 3.98.03 4.79 1.86.81 1.84-.02 3.98-1.86 4.79l-39.02 17.19C2106.97 2097.61 2106.47 2097.71 2105.99 2097.71zM2111.67 2114.34c-1.41 0-2.76-.83-3.34-2.21-.79-1.85.07-3.98 1.92-4.76l36.71-15.62c1.84-.79 3.98.07 4.76 1.92.79 1.85-.07 3.98-1.92 4.76l-36.71 15.62C2112.62 2114.24 2112.14 2114.34 2111.67 2114.34zM2238.56 2088.37c-.48 0-.98-.1-1.44-.3-1.15-.5-28.23-12.54-34.4-37.66-6.92-28.15 16.44-48.87 26.81-56.47 1.62-1.19 3.89-.84 5.08.78 1.18 1.62.84 3.89-.78 5.08-11.41 8.37-29.71 25.84-24.05 48.88 5.31 21.59 30 32.63 30.25 32.73 1.83.8 2.67 2.94 1.87 4.78C2241.29 2087.55 2239.96 2088.37 2238.56 2088.37z"
        fill="#000000" class="color000 svgShape" />
    <polygon points="2154.88 1912.31 2064.17 2025.48 2047.6 2006.69 2153.07 1913.52" fill="#000000"
        class="color000 svgShape" />
    <polyline fill="#ffc1a4" points="1486.1 2075.34 1514.88 1972.39 1649.46 2020.81 1623.37 2115.96"
        class="colorffc1a4 svgShape" />
    <path fill="#00c09a"
        d="M1335.26,2210.5l246.68,39.35c3.58,0.59,7.19-0.7,9.65-3.33l31.78-130.57l-137.27-40.62                 l-27.3,45.72l-101.91,54.31l-27.36,16.59C1323,2198.16,1326.39,2209.07,1335.26,2210.5z"
        class="color00c09a svgShape" />
    <path fill="#060606"
        d="M1335.26,2210.5l246.68,39.35c3.58,0.59,7.19-0.7,9.65-3.33l5.96-24.49l-239.91-32.8                 c-8.87-1.41-6.91-8.05-0.39-14.22l-27.72,16.95C1323,2198.16,1326.39,2209.07,1335.26,2210.5z"
        class="color060606 svgShape" />
    <path
        d="M1494.47 2148.04c-.68 0-1.37-.19-1.99-.59l-35.66-23.36c-1.68-1.1-2.15-3.35-1.05-5.03 1.1-1.68 3.35-2.15 5.03-1.05l35.66 23.36c1.68 1.1 2.15 3.35 1.05 5.03C1496.81 2147.47 1495.65 2148.04 1494.47 2148.04zM1481.05 2160.79c-.7 0-1.4-.2-2.03-.62l-33.09-22.28c-1.66-1.12-2.1-3.38-.98-5.04 1.12-1.66 3.37-2.1 5.04-.98l33.09 22.28c1.66 1.12 2.1 3.38.98 5.04C1483.36 2160.23 1482.21 2160.79 1481.05 2160.79zM1538.84 2230.79c-1.74 0-3.28-1.26-3.57-3.03-.21-1.24-4.86-30.5 12.85-49.36 19.84-21.13 49.94-12.82 61.96-8.27 1.88.71 2.82 2.81 2.11 4.68-.71 1.88-2.81 2.82-4.69 2.11-13.23-5.01-37.86-10.84-54.09 6.45-15.21 16.2-11.02 42.93-10.98 43.2.33 1.98-1.01 3.85-2.99 4.17C1539.24 2230.77 1539.04 2230.79 1538.84 2230.79z"
        fill="#000000" class="color000 svgShape" />
    <polygon points="1637.89 2063.07 1493.58 2048.63 1500.3 2024.49 1635.89 2062.21" fill="#000000"
        class="color000 svgShape" />
    <path fill="#141323"
        d="M1951.39,1221.38l-127.61,226.81l-69.91,124.19l-34.05,187.19l-57.43,315.75l-203.58-63.5               l81.62-448.66c7.45-37.66,21.42-73.75,41.27-106.61l154.56-255.75l129.72-134.29L1951.39,1221.38z"
        class="color141323 svgShape" />
    <path
        d="M1823.78,1448.19l-69.91,124.19l-34.05,187.19l-13.17-108.87c-7.41-60.81,0.65-122.5,23.42-179.39               l57.47-143.62L1823.78,1448.19z"
        fill="#000000" class="color000 svgShape" />
    <path fill="#ffc1a4"
        d="M1860.61 698.29l32.17-41.98-168.02 19.77-19.52-103.17 243.21-53.22c32.53-9.83 67.75 1.36 88.65 28.15v0c21.99 28.2 23.24 67.39 3.09 96.93l-101.48 148.74L1860.61 698.29zM1133.96 1009.74l154.85 185.66c30.6 47.26 95.13 58.11 139.51 23.48l175.94-137.31-86.52-122.94-143.06 122.94-102.08-143.27L1133.96 1009.74z"
        class="colorffc1a4 svgShape" />
    <path fill="#141323"
        d="M1771.25,1721.67l253.15,314.04l157.15-133.91l-230.17-307.66l77.57-316.02               c9.82-50.1,2.63-102.05-20.39-147.61l-32.36-64l-144.93,65.79l-98.99,412.96               C1717.5,1606.93,1731.86,1671.94,1771.25,1721.67z"
        class="color141323 svgShape" />
    <path fill="#ffffff"
        d="M1732.29,1548.44c-0.24,0-0.5-0.03-0.74-0.09c-1.71-0.41-2.76-2.12-2.35-3.83l66.9-279.1               c0.41-1.71,2.12-2.77,3.83-2.35c1.71,0.41,2.76,2.12,2.35,3.83l-66.9,279.1               C1735.03,1547.46,1733.73,1548.44,1732.29,1548.44z"
        class="colorfff svgShape" />
    <polygon fill="#00c09a" points="1558.88 921.29 1780.53 769.47 1981.07 1063.8 1705.1 1230.22"
        class="color00c09a svgShape" />
    <path fill="#00c09a"
        d="M1780.53,769.47l81.45-83.16l94.2,108.25l-87.83,103.82                C1784.11,928.65,1771.48,863.5,1780.53,769.47z"
        class="color00c09a svgShape" />
    <path fill="#ffffff"
        d="M1831.63,909.08c-8.8,0-16.56-1.67-23.38-5c-12.12-5.91-21.02-17.28-26.45-33.78                c-0.55-1.67,0.36-3.46,2.03-4.01c1.67-0.55,3.46,0.36,4.01,2.02c4.94,15.02,12.53,24.85,23.21,30.05                c13.33,6.51,31.99,5.59,55.45-2.71l87.27-103.16c1.13-1.34,3.14-1.5,4.48-0.37c1.34,1.13,1.51,3.14,0.37,4.48                l-87.82,103.82c-0.36,0.43-0.83,0.75-1.35,0.94C1855.09,906.51,1842.56,909.08,1831.63,909.08z"
        class="colorfff svgShape" />
    <polygon fill="#00c09a" points="1558.88 921.29 1487.66 972.54 1570.16 1126.16 1684.45 1027.29"
        class="color00c09a svgShape" />
    <polygon fill="#f7b094" points="1491.15 981.48 1538.58 1132.83 1562.43 1114.21"
        class="colorf7b094 svgShape" />
    <polygon fill="#f7b094" points="1866.74 691.78 1962 759.39 1946 782.85"
        class="colorf7b094 svgShape" />
    <path fill="#ffffff"
        d="M1979.45 1233.39c-.19 0-.38-.02-.57-.05-17.51-3.18-33.35-13.39-43.47-28.02-10.12-14.63-14.09-33.06-10.89-50.56.32-1.72 1.98-2.86 3.7-2.55 1.73.32 2.87 1.97 2.55 3.7-2.9 15.85.7 32.55 9.87 45.8 9.17 13.25 23.52 22.51 39.38 25.39 1.73.31 2.87 1.97 2.56 3.69C1982.3 1232.32 1980.96 1233.39 1979.45 1233.39zM2019.83 1895.42c-1.01 0-2-.48-2.62-1.37l-171.63-248.37c-21.02-30.42-27.58-68.34-18-104.06l67.63-252.02c.45-1.7 2.2-2.7 3.89-2.24 1.7.45 2.7 2.2 2.24 3.89l-67.63 252.02c-9.1 33.91-2.87 69.92 17.09 98.8l171.63 248.37c1 1.44.63 3.42-.81 4.42C2021.08 1895.24 2020.45 1895.42 2019.83 1895.42zM2011.83 1956.52c-.8 0-1.6-.3-2.22-.9-1.26-1.23-1.28-3.24-.05-4.49l88.1-90.17c1.23-1.25 3.24-1.28 4.49-.05 1.26 1.23 1.28 3.24.05 4.49l-88.1 90.17C2013.48 1956.2 2012.66 1956.52 2011.83 1956.52zM1573.51 1932.67c-.15 0-.29-.01-.44-.03-1.74-.24-2.95-1.85-2.71-3.59l50.24-360.8c2.21-15.84 6.7-31.25 13.36-45.81l89.74-196.08c.73-1.59 2.61-2.3 4.21-1.57 1.6.73 2.3 2.62 1.57 4.21l-89.74 196.08c-6.41 13.99-10.72 28.81-12.85 44.04l-50.24 360.8C1576.43 1931.52 1575.07 1932.67 1573.51 1932.67zM1642.11 1980.69c-.23 0-.46-.02-.69-.08l-137.22-30.39c-1.71-.38-2.79-2.08-2.42-3.79.38-1.71 2.06-2.79 3.79-2.42l137.22 30.39c1.71.38 2.79 2.08 2.42 3.79C1644.88 1979.68 1643.57 1980.69 1642.11 1980.69z"
        class="colorfff svgShape" />
    <path fill="#ffc1a4"
        d="M1667.67,932.27c-44.62,32.47-63.37-7.85-66.79-40.19l-30.72-73.69l78.59-50.13l35.22,75.08                C1683.96,843.33,1729.73,887.11,1667.67,932.27z"
        class="colorffc1a4 svgShape" />
    <path fill="#060606" d="M1592.94,873.02c0,0,38.95-31.04,38.98-54.05l-55.3,9.75L1592.94,873.02z"
        class="color060606 svgShape" />
    <circle cx="1551.29" cy="759.56" r="100.12" fill="#ffc1a4" class="colorffc1a4 svgShape" />
    <path fill="#060606"
        d="M1526.04 818.23c-3.2 0-6.24-1.24-8.46-3.51-4.34-4.45-4.32-10.93-3.73-16.68l2.55-24.8c.18-1.75 1.75-3.01 3.49-2.84 1.74.18 3.01 1.74 2.83 3.49l-2.55 24.8c-.44 4.29-.55 9.02 1.95 11.59 1.49 1.53 3.59 1.76 5.09 1.48 2.06-.4 4.07-1.72 6.02-2.99 1.47-.96 3.44-.55 4.4.92.96 1.47.55 3.44-.92 4.4-2.35 1.54-5.01 3.29-8.3 3.92C1527.62 818.15 1526.82 818.23 1526.04 818.23zM1561.28 827.19c-1.73 0-3.15-1.38-3.18-3.12-.27-14.06 6.71-27.82 18.2-35.92 1.44-1.01 3.42-.67 4.43.77 1.01 1.43.67 3.42-.77 4.43-9.64 6.8-15.73 18.81-15.5 30.6.03 1.75-1.36 3.2-3.12 3.24C1561.32 827.19 1561.3 827.19 1561.28 827.19zM1546.57 758.11c1.31 5.14-.52 10.06-4.06 11-3.58.91-7.57-2.5-8.91-7.61-1.34-5.17.48-10.09 4.07-11C1541.21 749.57 1545.2 752.97 1546.57 758.11zM1492.15 771.54c1.31 5.14-.52 10.06-4.06 11-3.58.91-7.57-2.5-8.91-7.61-1.34-5.17.48-10.09 4.07-11C1486.79 763 1490.78 766.4 1492.15 771.54z"
        class="color060606 svgShape" />
    <path fill="#060606"
        d="M1643.91,650.87c66.14-9.79,55.64,107.35,7.5,109.3c-0.72-14.8-6.16-78.69-26.24-59.03               c-19.15,18.74-5.1,24.27-5.13,24.61c-0.56,3.56-4.36,4.79-9.52,4.63c-19.64-0.59-33.37-19.85-28.87-38.97l0.55-2.34               c0,0-119.13,82.83-161.12,22.52c-36.57-52.55,2.16-89.27,52.37-75.07c-9.53-10.59-29.15-37.68,0.86-55.32               C1518.66,555.17,1617.9,593.75,1643.91,650.87z"
        class="color060606 svgShape" />
    <path fill="#ffffff"
        d="M1490.66,709.79c-3.23,0-6.46-0.26-9.64-0.78c-18.36-3.04-35.3-15.07-44.22-31.4               c-0.84-1.54-0.28-3.47,1.27-4.31c1.54-0.84,3.47-0.27,4.31,1.27c8,14.65,23.21,25.45,39.68,28.18               c16.48,2.73,34.35-2.59,46.65-13.89c1.29-1.19,3.3-1.1,4.49,0.19c1.19,1.29,1.1,3.3-0.19,4.49               C1521.67,703.94,1506.1,709.79,1490.66,709.79z"
        class="colorfff svgShape" />
    <path fill="#ffffff"
        d="M1500.08,687.14c-5.82,0-11.62-1.35-16.72-4.12c-1.54-0.84-2.11-2.77-1.27-4.31               c0.83-1.54,2.76-2.12,4.31-1.28c9.79,5.32,22.79,4.28,31.62-2.53c1.39-1.07,3.39-0.81,4.45,0.58               c1.07,1.39,0.82,3.39-0.57,4.46C1515.73,684.69,1507.89,687.14,1500.08,687.14z"
        class="colorfff svgShape" />
    <circle cx="1631.76" cy="712.01" r="27.48" fill="#ffc1a4" class="colorffc1a4 svgShape" />
    <g>
        <path fill="#ffc1a4"
            d="M1737.78,665.71c-15.2,22.46-37.85,27.76-52.75,23.23c-14.9-4.57-17.05-28.03-17.05-28.03                c-14.09-3.65-10.71-18.54-10.71-18.54c-16.81-0.5-14.13-17.47-14.13-17.47l-12.65-19.42l-16.74,12.94                c-4.06,4.02-9.93,5.61-15.46,4.2l0,0c-11.25-2.88-15.94-16.28-8.95-25.55l25.71-23.94                c5.07-6.71,12.96-10.67,21.36-10.72c13.41-0.08,73.71,13.17,73.71,13.17C1738.93,590.4,1752.99,643.29,1737.78,665.71                z"
            class="colorffc1a4 svgShape" />
        <path fill="#060606"
            d="M1695.43,693.59c-3.93,0-7.76-0.53-11.32-1.62c-14.07-4.3-18.03-22.35-19-28.64                c-9.49-3.45-11.65-11.97-11.37-18.14c-4.19-0.72-7.52-2.55-9.93-5.45c-5.15-6.21-3.83-14.98-3.77-15.35                c0.28-1.73,1.93-2.92,3.64-2.64c1.73,0.27,2.91,1.9,2.64,3.63c-0.02,0.14-0.89,6.39,2.41,10.33                c1.83,2.18,4.75,3.35,8.68,3.47c0.95,0.03,1.84,0.48,2.42,1.23c0.58,0.75,0.8,1.72,0.59,2.65                c-0.27,1.21-2.3,12.02,8.39,14.76c1.3,0.33,2.25,1.45,2.37,2.79c0.02,0.21,2.14,21.41,14.8,25.28                c9.32,2.85,20.83,1.16,30.8-4.51c1.53-0.87,3.46-0.34,4.33,1.19c0.87,1.53,0.33,3.47-1.19,4.33                C1712.18,691.3,1703.57,693.59,1695.43,693.59z"
            class="color060606 svgShape" />
        <path fill="#060606"
            d="M1643.17 628.06c-.87 0-1.74-.36-2.37-1.06-1.17-1.31-1.06-3.32.25-4.49.67-.6 16.57-14.71 28.03-17.34 1.7-.39 3.42.67 3.81 2.38.39 1.71-.67 3.42-2.38 3.81-9.87 2.27-25.06 15.75-25.22 15.89C1644.68 627.8 1643.92 628.06 1643.17 628.06zM1657.3 645.53c-1.09 0-2.16-.56-2.75-1.58-.88-1.52-.37-3.46 1.14-4.35.53-.31 13.04-7.57 25.67-11.31 1.69-.5 3.45.46 3.95 2.15.5 1.68-.46 3.45-2.15 3.95-11.9 3.52-24.15 10.63-24.27 10.7C1658.4 645.39 1657.84 645.53 1657.3 645.53zM1668 664.07c-1.1 0-2.16-.57-2.75-1.59-.88-1.52-.36-3.46 1.16-4.34.73-.42 17.95-10.33 29.86-12.12 1.72-.26 3.35.94 3.61 2.67.26 1.74-.93 3.35-2.67 3.61-10.73 1.61-27.45 11.24-27.62 11.34C1669.09 663.94 1668.54 664.07 1668 664.07z"
            class="color060606 svgShape" />
    </g>
    <g>
        <path fill="#060f11"
            d="M1278.26 1237.57c-2.06 0-4.03-1.17-4.95-3.17-1.26-2.73-.07-5.97 2.67-7.23 16.57-7.64 31.39-19.21 42.87-33.48 1.89-2.34 5.32-2.71 7.66-.83 2.34 1.89 2.72 5.32.83 7.66-12.53 15.57-28.71 28.21-46.8 36.55C1279.8 1237.41 1279.03 1237.57 1278.26 1237.57zM1349.19 1142.54c-.26 0-.51-.02-.77-.05-2.98-.42-5.05-3.18-4.62-6.16.79-5.56 1.19-11.24 1.19-16.89 0-46.13-27.08-88.43-69-107.74-2.73-1.26-3.93-4.5-2.67-7.23 1.26-2.73 4.49-3.93 7.23-2.67 45.76 21.09 75.33 67.27 75.33 117.64 0 6.16-.44 12.36-1.3 18.43C1354.19 1140.57 1351.86 1142.54 1349.19 1142.54zM1131.01 1204.11c-1.56 0-3.12-.67-4.19-1.96-19.26-23.17-29.87-52.55-29.87-82.72 0-63.3 47.1-118.3 109.56-127.94 2.97-.46 5.76 1.58 6.22 4.55.46 2.97-1.58 5.76-4.55 6.22-57.19 8.83-100.32 59.21-100.32 117.18 0 27.64 9.71 54.54 27.35 75.76 1.92 2.31 1.61 5.75-.71 7.67C1133.47 1203.7 1132.24 1204.11 1131.01 1204.11zM1226.41 1248.89c-17.25 0-34.01-3.34-49.8-9.93-2.78-1.16-4.09-4.35-2.93-7.12 1.16-2.78 4.35-4.09 7.13-2.93 14.46 6.03 29.8 9.09 45.61 9.09 3.01 0 5.45 2.44 5.45 5.45C1231.86 1246.45 1229.42 1248.89 1226.41 1248.89z"
            class="color060f11 svgShape" />
        <path fill="#ff73ed"
            d="M1462.41,1338.92l-79.96-96.26c13.24-18.65,12.89-44.55-2.43-62.96               c-18.26-21.98-50.85-25-72.83-6.74c-21.98,18.26-25,50.85-6.74,72.83c15.32,18.42,40.71,23.51,61.43,13.91l47.13,56.73               l-14.77,12.26l10.46,12.61l8.15-6.78l10.19,12.26l-8.15,6.74l11.87,14.3l14.77-12.26l0.31,0.39               c4.74,5.68,13.16,6.42,18.81,1.72C1466.33,1352.98,1467.11,1344.6,1462.41,1338.92z M1336.77,1208.57               c-6.93,5.76-17.24,4.82-23-2.12c-5.76-6.93-4.78-17.24,2.15-23c6.93-5.76,17.2-4.82,22.96,2.12               C1344.68,1192.51,1343.7,1202.81,1336.77,1208.57z"
            class="colorff73ed svgShape" />
        <path fill="#ffd400"
            d="M1282.47,1266.36c-0.31-28.6-23.66-51.52-52.23-51.25c-28.6,0.31-51.48,23.66-51.21,52.26               c0.24,23.94,16.69,43.92,38.87,49.56l0.74,73.74l-19.2,0.2l0.16,16.38l10.58-0.12l0.16,15.95l-10.58,0.12l0.2,18.57               l19.2-0.2v0.51c0.08,7.37,6.11,13.28,13.48,13.2c7.37-0.08,13.28-6.11,13.2-13.48l-1.25-125.1               C1266.65,1310.6,1282.71,1290.3,1282.47,1266.36z M1230.72,1261.42c-9.05,0.08-16.42-7.13-16.49-16.18               c-0.12-9.01,7.13-16.38,16.14-16.49c9.01-0.08,16.42,7.17,16.49,16.18               C1246.94,1253.94,1239.73,1261.35,1230.72,1261.42z"
            class="colorffd400 svgShape" />
        <path fill="#ff452d"
            d="M1135.62,1170.93c-26.49-10.77-56.65,1.96-67.43,28.4c-9.01,22.18-1.53,46.98,16.73,60.73               l-27.78,68.29l-17.75-7.21l-6.19,15.2l9.79,3.96l-5.99,14.77l-9.79-4l-7.01,17.24l17.79,7.21l-0.2,0.47               c-2.78,6.86,0.55,14.61,7.37,17.39c6.82,2.78,14.57-0.51,17.36-7.33l47.13-115.93c22.72,2.9,45.37-9.64,54.38-31.81               C1174.8,1211.83,1162.07,1181.66,1135.62,1170.93z M1139.46,1204.82c-3.41,8.34-12.93,12.38-21.27,8.97               c-8.38-3.41-12.38-12.93-9.01-21.27c3.41-8.35,12.93-12.38,21.31-8.97               C1138.83,1186.95,1142.83,1196.47,1139.46,1204.82z"
            class="colorff452d svgShape" />
        <path fill="#4a4ddc"
            d="M1204.63,905.96c-38.13-15.76-80.95-3.12-104.92,28.22l-199.38-82.51               c-11.77-4.83-25.2,0.73-30.03,12.49c-4.87,11.73,0.69,25.21,12.42,30.07l0.84,0.33l-12.67,30.58l29.64,12.27               l6.97-16.89l25.39,10.53l-6.97,16.85l26.11,10.82l12.67-30.61l117.49,48.59c-5.23,39.11,16.12,78.3,54.29,94.1               c45.54,18.81,97.69-2.8,116.54-48.34C1271.82,976.96,1250.17,924.81,1204.63,905.96z M1231.25,1013.5               c-5.96,14.35-22.41,21.17-36.79,15.25c-14.35-5.96-21.21-22.41-15.25-36.79c5.96-14.38,22.41-21.21,36.79-15.25               C1230.38,982.63,1237.21,999.11,1231.25,1013.5z"
            class="color4a4ddc svgShape" />
        <path fill="#060f11"
            d="M1226.41 1248.89c-3.01 0-5.45-2.44-5.45-5.45 0-3.01 2.44-5.45 5.45-5.45 17.31 0 33.98-3.64 49.57-10.83 2.73-1.26 5.97-.07 7.23 2.67 1.26 2.73.07 5.97-2.67 7.23C1263.52 1244.91 1245.3 1248.89 1226.41 1248.89zM1323.09 1202.55c-1.2 0-2.4-.39-3.41-1.2-2.34-1.89-2.71-5.31-.83-7.66 13.33-16.56 21.95-36.4 24.94-57.37.43-2.98 3.2-5.04 6.16-4.62 2.98.42 5.05 3.18 4.62 6.16-3.27 22.91-12.68 44.57-27.23 62.66C1326.27 1201.86 1324.69 1202.55 1323.09 1202.55zM1178.71 1239.39c-.7 0-1.41-.14-2.1-.42-19.21-8.01-36.43-20.74-49.79-36.82-1.92-2.31-1.61-5.75.71-7.67 2.32-1.92 5.75-1.61 7.67.71 12.24 14.73 28.02 26.39 45.61 33.73 2.78 1.16 4.09 4.35 2.93 7.13C1182.86 1238.13 1180.84 1239.39 1178.71 1239.39zM1278.26 1012.18c-.76 0-1.54-.16-2.28-.5-15.59-7.18-32.27-10.83-49.57-10.83-6.11 0-12.25.47-18.25 1.39-2.98.46-5.76-1.58-6.22-4.55-.46-2.97 1.58-5.76 4.55-6.22 6.54-1.01 13.24-1.52 19.91-1.52 18.89 0 37.1 3.98 54.13 11.83 2.73 1.26 3.93 4.5 2.67 7.23C1282.29 1011.01 1280.32 1012.18 1278.26 1012.18z"
            class="color060f11 svgShape" />
    </g>
    <g>
        <path fill="#ffc1a4"
            d="M1272.61,938.29l-17.28-45.1c-5.27-9.42-15.46-14.99-26.24-14.35l-40.27,2.4            c-11.22,0.67-20.21,9.55-21.01,20.77l0,0c-0.92,12.96,9.35,23.98,22.34,23.98h44.16l20.6,32.49L1272.61,938.29z"
            class="colorffc1a4 svgShape" />
    </g>
    <g>
        <path fill="#ffffff"
            d="M1630.18,1075.09c-1.19,0-2.33-0.67-2.88-1.82l-30.85-65.18c-0.75-1.59-0.07-3.48,1.51-4.23           c1.58-0.76,3.48-0.07,4.23,1.51l30.85,65.18c0.75,1.59,0.07,3.48-1.51,4.23           C1631.1,1074.99,1630.63,1075.09,1630.18,1075.09z"
            class="colorfff svgShape" />
    </g>
    <g>
        <path fill="#ffffff"
            d="M1576.62,1075.09c-1.16,0-2.27-0.63-2.83-1.74l-38.99-76.5c-0.8-1.56-0.18-3.48,1.39-4.27           c1.56-0.8,3.48-0.18,4.27,1.39l38.99,76.5c0.8,1.56,0.18,3.48-1.39,4.27C1577.6,1074.98,1577.11,1075.09,1576.62,1075.09z"
            class="colorfff svgShape" />
    </g>
    <g>
        <path fill="#e7ebfb"
            d="M1558.92,295.82c3.84,9.43,5.95,18.5,6.33,27.19c0.39,8.69-0.74,16.8-3.39,24.31         c-2.65,7.51-6.71,14.33-12.2,20.45c-5.49,6.12-12.19,11.33-20.09,15.62l12.31,34.21c0.73,2.12-0.28,4.34-3.03,6.66         c-2.74,2.32-7.1,4.7-13.09,7.13c-3.79,1.54-7.02,2.76-9.68,3.64c-2.66,0.88-4.83,1.4-6.51,1.54         c-1.68,0.15-3.03-0.04-4.05-0.57c-1.02-0.52-1.84-1.39-2.47-2.61l-18.12-40.09c-1.61-3.63-2.66-6.69-3.14-9.18         c-0.48-2.49-0.39-4.67,0.26-6.54c0.65-1.87,1.79-3.44,3.42-4.71c1.63-1.27,3.71-2.41,6.25-3.45l2.41-0.98         c6.1-2.48,10.96-5.6,14.6-9.36c3.63-3.76,6.23-7.83,7.8-12.22c1.56-4.39,2.12-9.04,1.67-13.95         c-0.46-4.91-1.69-9.84-3.7-14.78c-2.25-5.52-5.08-10.27-8.5-14.24c-3.43-3.97-7.4-6.98-11.92-9.03         c-4.52-2.05-9.53-2.99-15.03-2.84c-5.5,0.16-11.47,1.55-17.91,4.17c-5.87,2.39-10.81,5.07-14.83,8.04         c-4.01,2.98-7.36,5.81-10.02,8.5c-2.66,2.69-4.82,5.05-6.48,7.06c-1.66,2.02-3.06,3.26-4.21,3.73         c-0.81,0.33-1.66,0.37-2.56,0.13c-0.9-0.24-1.87-0.95-2.89-2.14c-1.02-1.19-2.19-3-3.51-5.41c-1.32-2.41-2.77-5.58-4.36-9.49         c-1.64-4.03-2.66-7.03-3.06-9.01c-0.4-1.98-0.27-3.78,0.42-5.4c0.68-1.62,2.32-3.86,4.91-6.72c2.59-2.86,5.86-5.87,9.81-9.02         c3.95-3.15,8.5-6.3,13.64-9.47c5.15-3.16,10.71-5.97,16.7-8.4c13.57-5.52,25.95-8.38,37.14-8.57         c11.18-0.19,21.14,1.62,29.87,5.45c8.72,3.83,16.19,9.24,22.39,16.23C1550.28,278.69,1555.22,286.74,1558.92,295.82z          M1568,464.49c1.92,4.72,3.16,8.84,3.72,12.36c0.56,3.53,0.29,6.65-0.81,9.38c-1.1,2.73-3.06,5.17-5.87,7.32         c-2.82,2.15-6.52,4.16-11.12,6.03c-4.83,1.96-8.98,3.15-12.43,3.55c-3.46,0.4-6.53,0.01-9.22-1.17         c-2.69-1.18-5.07-3.23-7.13-6.15c-2.06-2.91-4.05-6.73-5.97-11.45c-1.96-4.83-3.25-9.04-3.83-12.62         c-0.59-3.58-0.34-6.77,0.74-9.55c1.08-2.78,3-5.24,5.75-7.37c2.76-2.13,6.55-4.17,11.38-6.14c4.6-1.87,8.66-3.02,12.17-3.44         c3.52-0.42,6.63-0.01,9.35,1.23c2.72,1.24,5.12,3.35,7.2,6.32C1564.01,455.75,1566.04,459.66,1568,464.49z"
            class="colore7ebfb svgShape" />
    </g>
    <g>
        <path fill="#e7ebfb"
            d="M1704.53,504.4c-1.61,3.4-3.25,6.13-4.88,8.19c-1.64,2.06-3.48,3.48-5.52,4.23         c-2.04,0.76-4.34,0.91-6.91,0.45c-2.57-0.46-5.52-1.48-8.83-3.05c-3.48-1.65-6.19-3.32-8.13-5.01         c-1.94-1.69-3.26-3.55-3.96-5.61c-0.7-2.06-0.77-4.37-0.2-6.95c0.56-2.58,1.65-5.56,3.26-8.96c1.66-3.48,3.31-6.27,4.98-8.38         c1.66-2.11,3.51-3.56,5.58-4.36c2.05-0.8,4.35-0.98,6.88-0.54c2.53,0.44,5.53,1.49,9.01,3.14c3.32,1.58,5.97,3.21,7.95,4.92         s3.31,3.61,3.99,5.7c0.68,2.1,0.73,4.46,0.15,7.08C1707.3,497.87,1706.18,500.92,1704.53,504.4z M1791.93,415.38         c-3.23,6.79-7.12,12.46-11.66,17.01c-4.55,4.54-9.53,7.96-14.93,10.27c-5.41,2.3-11.15,3.49-17.22,3.55         c-6.07,0.06-12.25-1-18.53-3.17l-12.51,23.76c-0.79,1.45-2.51,2.01-5.14,1.67c-2.63-0.34-6.11-1.53-10.41-3.58         c-2.74-1.3-5-2.45-6.81-3.46c-1.81-1.01-3.17-1.94-4.09-2.78c-0.92-0.84-1.49-1.67-1.71-2.49c-0.22-0.81-0.16-1.7,0.2-2.65         l12.82-29.86c1.17-2.69,2.32-4.79,3.44-6.29s2.35-2.54,3.7-3.12c1.34-0.58,2.76-0.74,4.27-0.49c1.5,0.26,3.16,0.82,4.99,1.68         l1.74,0.83c4.39,2.09,8.52,3.18,12.37,3.29c3.86,0.11,7.38-0.51,10.55-1.84c3.17-1.33,5.99-3.35,8.43-6.05         c2.45-2.7,4.52-5.82,6.21-9.39c1.89-3.98,3.06-7.89,3.52-11.73c0.45-3.84,0.11-7.51-1.02-11c-1.14-3.48-3.12-6.69-5.95-9.61         c-2.83-2.92-6.56-5.48-11.2-7.68c-4.23-2.01-8.15-3.36-11.78-4.07c-3.62-0.71-6.83-1.12-9.63-1.22         c-2.79-0.11-5.15-0.11-7.08-0.01c-1.93,0.1-3.31-0.05-4.14-0.44c-0.58-0.27-1.03-0.72-1.35-1.33         c-0.32-0.61-0.41-1.49-0.27-2.64c0.14-1.15,0.54-2.69,1.2-4.61c0.66-1.92,1.66-4.29,3-7.11c1.38-2.9,2.5-4.95,3.38-6.16         c0.88-1.2,1.93-2.03,3.15-2.46c1.22-0.43,3.26-0.66,6.11-0.67c2.85-0.02,6.12,0.27,9.8,0.85c3.68,0.59,7.67,1.49,11.96,2.71         c4.29,1.23,8.59,2.86,12.9,4.91c9.77,4.64,17.5,9.97,23.18,15.97c5.68,6,9.65,12.33,11.92,18.99         c2.26,6.66,3.04,13.43,2.31,20.29C1796.95,402.13,1795.03,408.83,1791.93,415.38z"
            class="colore7ebfb svgShape" />
    </g>
    <g>
        <circle cx="702.03" cy="1192.77" r="22.18" fill="#141323" class="color141323 svgShape" />
    </g>
    <g>
        <circle cx="775.59" cy="1192.77" r="22.18" fill="#141323" class="color141323 svgShape" />
    </g>
    <g>
        <circle cx="849.15" cy="1192.77" r="22.18" fill="#141323" class="color141323 svgShape" />
    </g>
    <g>
        <circle cx="922.72" cy="1192.77" r="22.18" fill="#141323" class="color141323 svgShape" />
    </g>
    <g>
        <path fill="#060f11"
            d="M1007.64,1218.14h-40.49c-1.76,0-3.18-1.42-3.18-3.18c0-1.75,1.42-3.18,3.18-3.18h40.49        c1.76,0,3.18,1.42,3.18,3.18C1010.82,1216.71,1009.4,1218.14,1007.64,1218.14z"
            class="color060f11 svgShape" />
    </g>
    <g>
        <path fill="#0081ff"
            d="M916.05,1650.46c-13.58,26.01-35.84,44.54-61.4,53.92l-0.02,0.03c-28.95,10.64-62.15,9.48-91.64-5.92        c-29.49-15.4-49.42-41.97-57.24-71.8l0.02-0.03c-6.91-26.34-4.43-55.19,9.15-81.21c29.01-55.56,97.54-77.05,153.07-48.06        C923.52,1526.38,945.05,1594.9,916.05,1650.46z"
            class="color0081ff svgShape" />
        <path fill="#060f11"
            d="M815.54,1714.53c-18.63,0-37.2-4.44-54.01-13.22c-29.08-15.18-50.53-42.09-58.84-73.82        c-0.03-0.12-0.06-0.25-0.08-0.38c-7.25-27.99-3.89-57.5,9.49-83.13c29.76-57.01,100.36-79.17,157.36-49.41        c27.61,14.42,47.96,38.72,57.29,68.44c9.33,29.72,6.53,61.3-7.89,88.92c-13.38,25.63-35.67,45.27-62.8,55.32        c-0.11,0.06-0.23,0.11-0.34,0.15C842.74,1712.17,829.12,1714.53,815.54,1714.53z M708.92,1626.22        c7.92,29.85,28.15,55.15,55.55,69.45c27.4,14.3,59.73,16.44,88.75,5.87c0.11-0.05,0.22-0.1,0.34-0.15        c25.78-9.47,46.98-28.08,59.68-52.41l0,0c13.63-26.12,16.28-55.97,7.46-84.07c-8.83-28.1-28.06-51.08-54.17-64.71        c-53.9-28.14-120.64-7.18-148.78,46.72c-12.7,24.33-15.86,52.36-8.89,78.93C708.87,1625.97,708.9,1626.1,708.92,1626.22z         M854.63,1704.41h0.04H854.63z"
            class="color060f11 svgShape" />
        <circle cx="828.24" cy="1573.51" r="33.13" fill="#ffffff" class="colorfff svgShape" />
        <path fill="#060f11"
            d="M828.2,1609.83c-5.77,0-11.5-1.39-16.76-4.14c-8.6-4.49-14.93-12.06-17.84-21.31        c-2.91-9.25-2.03-19.08,2.46-27.68c4.49-8.6,12.05-14.93,21.31-17.84c9.25-2.91,19.08-2.03,27.68,2.46        c17.75,9.27,24.65,31.24,15.38,48.99c-4.49,8.6-12.06,14.93-21.31,17.84C835.53,1609.28,831.86,1609.83,828.2,1609.83z         M828.28,1543.54c-3.02,0-6.05,0.46-9.01,1.39c-7.63,2.4-13.88,7.62-17.58,14.71c-3.7,7.09-4.42,15.2-2.03,22.83        c2.4,7.63,7.62,13.88,14.71,17.58c7.09,3.7,15.2,4.42,22.84,2.03c7.63-2.4,13.88-7.62,17.58-14.71        c7.64-14.64,1.95-32.77-12.69-40.41C837.76,1544.69,833.04,1543.54,828.28,1543.54z"
            class="color060f11 svgShape" />
        <path fill="#ffffff"
            d="M854.64,1704.38l-0.02,0.03c-28.95,10.64-62.15,9.48-91.64-5.92c-29.49-15.4-49.42-41.97-57.24-71.8        l0.02-0.03c27.85-20.41,65.99-24.55,98.65-7.5C837.07,1636.2,855.47,1669.87,854.64,1704.38z"
            class="colorfff svgShape" />
        <path fill="#060f11"
            d="M815.54,1714.53c-18.63,0-37.2-4.44-54.01-13.22c-29.08-15.18-50.53-42.09-58.84-73.82        c-0.21-0.78-0.1-1.62,0.28-2.33c0.22-0.41,0.55-0.8,0.93-1.07c29.99-21.97,69.08-24.95,101.99-7.76        c32.92,17.19,52.82,50.96,51.94,88.12c-0.01,0.49-0.14,0.98-0.37,1.41l-0.02,0.03c-0.37,0.69-0.98,1.23-1.71,1.5        C842.74,1712.17,829.12,1714.53,815.54,1714.53z M709.4,1627.97c8.24,29.09,28.21,53.68,55.07,67.7        c26.86,14.02,58.45,16.35,87.03,6.48c0.03-33.87-18.43-64.46-48.55-80.19C772.82,1606.24,737.17,1608.58,709.4,1627.97z         M854.64,1704.38h0.04H854.64z"
            class="color060f11 svgShape" />
    </g>
    <g>
        <path fill="#ffffff"
            d="M535.77,936.48l-255.46,15.53c-45.22,2.75-75.64-45.53-53.64-85.13l115.55-208       c20.37-36.66,71.9-39.8,96.57-5.87L578.7,845.48C605.34,882.12,580.99,933.73,535.77,936.48z"
            class="colorfff svgShape" />
        <path fill="#060f11"
            d="M276.64,955.31c-20.89,0-39.76-10.38-51.04-28.28c-11.97-19-12.61-42.06-1.7-61.69l115.55-208       c10.09-18.17,28.51-29.77,49.26-31.03c20.78-1.26,40.43,8.02,52.65,24.84l139.91,192.46c13.2,18.16,15.37,41.13,5.79,61.44       c-9.58,20.31-28.68,33.25-51.09,34.61l-255.46,15.54C279.21,955.27,277.92,955.31,276.64,955.31z M392.44,632.55       c-1.11,0-2.23,0.03-3.35,0.1c-18.57,1.13-35.05,11.51-44.09,27.78L229.45,868.43c-9.76,17.57-9.19,38.21,1.53,55.21       c10.71,17,29.1,26.42,49.14,25.21l255.46-15.53l0,0c20.06-1.22,37.16-12.8,45.73-30.98c8.57-18.18,6.64-38.73-5.18-54.99       L436.22,654.88C425.94,640.74,409.76,632.55,392.44,632.55z"
            class="color060f11 svgShape" />
        <path fill="#ff452d"
            d="M426.85,725.9c0.06,1.38,0.02,2.79-0.1,4.23l-7.25,85.3c-0.9,10.77-9.68,19.2-20.48,19.67        c-10.82,0.47-20.28-7.16-22.13-17.82l-14.62-84.35c-3.33-19.34,11.05-37.21,30.65-38.06        C411.09,694.07,426.08,708.24,426.85,725.9z"
            class="colorff452d svgShape" />
        <circle cx="401.22" cy="869.99" r="22.33" fill="#ff452d" class="colorff452d svgShape" />
    </g>
    <g>
        <path fill="#ffffff"
            d="M860.2,2038.79c-0.3,0.79-0.49,1.28-0.6,1.5C859.68,2040.06,859.83,2039.54,860.2,2038.79z"
            class="colorfff svgShape" />
    </g>
    <g>
        <path fill="#060f11"
            d="M859.6,2043.47c-0.4,0-0.81-0.08-1.21-0.24c-1.54-0.63-2.33-2.35-1.81-3.94l3.02,1l-3-1.06     c0.11-0.34,0.32-0.99,0.76-1.86c0.76-1.51,2.57-2.17,4.12-1.49c1.55,0.68,2.29,2.46,1.69,4.04c-0.36,0.94-0.59,1.51-0.72,1.78     C861.9,2042.81,860.77,2043.47,859.6,2043.47z M859.6,2040.29h0.04H859.6z"
            class="color060f11 svgShape" />
    </g>
    <g>
        <path fill="#060f11"
            d="M765,2184.81c-1.17,0-2.3-0.65-2.86-1.78c-0.99-2.03-24.28-49.97-14.1-73.69     c3.18-7.46,10.92-12.27,21.77-13.55c15-1.77,35.59,3.43,49.81,14.95c-0.07-0.23-0.14-0.46-0.21-0.69     c-3.95-13.35-6.8-23,11.32-37.22c22.06-17.38,73.29-11.57,89.11-9.26c-2.18-10.99-6.23-38.56,4.39-53.46     c4.21-5.9,10.19-9.22,17.79-9.87c15.23-1.31,31.07,14.73,41.69,28.4c18.41,23.7,36.72,61.02,38.65,82.21     c7.25-7.25,19.62-16.72,31.26-11.82c11.28,4.72,13.96,16.11,14.39,23.91c5.14-4.09,13.09-8.99,21.55-8.53     c6.43,0.35,11.97,3.66,16.46,9.86c16.32,22.52,2.07,57.12,1.45,58.58c-0.68,1.62-2.54,2.38-4.16,1.7     c-1.62-0.68-2.38-2.54-1.7-4.16c0.13-0.33,13.47-32.78-0.74-52.39c-3.35-4.63-7.16-7-11.64-7.24     c-10.96-0.59-22.16,11.62-22.27,11.74c-0.94,1.03-2.45,1.33-3.71,0.74c-1.26-0.6-1.99-1.95-1.79-3.33     c0.03-0.2,2.68-19.59-10.3-25.01c-10.82-4.56-25.36,10.68-30.04,16.94c-0.94,1.26-2.65,1.64-4.04,0.9s-2.02-2.37-1.51-3.85     c4.08-11.71-13.08-55.68-36.89-86.34c-13.64-17.57-26.49-26.78-36.13-25.97c-5.74,0.49-10.04,2.85-13.16,7.22     c-11.49,16.12-2.47,52.5-2.38,52.86c0.26,1.05-0.02,2.15-0.75,2.94c-0.74,0.79-1.82,1.15-2.88,0.97     c-0.65-0.12-65.25-11.24-88.74,7.27c-14.72,11.55-12.98,17.47-9.15,30.42c1.09,3.68,2.32,7.84,3.29,12.66     c0.29,1.46-0.46,2.93-1.82,3.53c-1.36,0.61-2.96,0.18-3.84-1.01c-11.6-15.63-36.31-23.24-52.58-21.33     c-4.92,0.58-13.63,2.62-16.67,9.74c-9.03,21.05,13.73,67.92,13.96,68.39c0.77,1.58,0.12,3.48-1.45,4.25     C765.95,2184.7,765.47,2184.81,765,2184.81z"
            class="color060f11 svgShape" />
    </g>
    <g>
        <path fill="#ffffff"
            d="M952.99,2181.63c0,0,13.71-16.49,11.8-38.88c-1.92-22.35-38.36-24.27-38.36-24.27     c8.94-30.06,1.92-69.1-30.06-79.32c-25.59-8.19-33.59,2.48-35.77,7.03c4.4-11.76,4.54-73.57-19.19-76.88     c-38.95-5.43-65.45,76.52-65.45,76.52s-12.26-69.81-46.83-69.81c-34.53,0-64.93,146.93-64.93,146.93     c-12.14-25.59-75.48-48.62-97.2-21.75c-21.76,26.86,19.16,80.44,19.16,80.44"
            class="colorfff svgShape" />
        <path fill="#060f11"
            d="M586.16,2184.81c-0.96,0-1.9-0.43-2.53-1.25c-1.73-2.27-42.17-55.88-19.11-84.36     c8.37-10.35,23.13-14.84,41.58-12.65c22.26,2.65,45.58,14.62,56.59,28.24c7.17-32.42,33.83-141.95,66.42-141.95     c28.42,0,42.42,41.41,47.57,61.65c8.81-22.47,32.41-72.89,65.14-68.33c5.87,0.82,10.82,4.53,14.7,11.04     c8.98,15.07,10.6,42.64,9.06,59.12c5.97-3.5,15.79-5.3,31.73-0.19c32.47,10.38,41.1,47.94,33.15,79.54     c10.01,1.24,35.72,6.41,37.46,26.8c2.01,23.42-11.93,40.47-12.52,41.18c-1.12,1.35-3.12,1.53-4.47,0.41     c-1.35-1.12-1.54-3.12-0.42-4.47c0.13-0.16,12.85-15.83,11.08-36.58c-1.66-19.33-35.03-21.35-35.36-21.37     c-0.97-0.05-1.87-0.55-2.43-1.34c-0.56-0.8-0.73-1.8-0.45-2.74c8.75-29.41,1.92-65.83-27.98-75.38     c-22.98-7.36-29.99,1.31-31.94,5.37c-0.74,1.53-2.55,2.21-4.11,1.55c-1.56-0.67-2.33-2.44-1.73-4.04     c3.37-9.03,3.75-47.34-6.54-64.62c-2.84-4.77-6.24-7.46-10.11-8c-35.93-4.99-61.73,73.56-61.99,74.35     c-0.45,1.39-1.81,2.3-3.24,2.19c-1.46-0.1-2.66-1.18-2.91-2.62c-0.12-0.67-12.19-67.19-43.7-67.19     c-26.2,0-53.51,104.23-61.81,144.4c-0.28,1.34-1.38,2.35-2.73,2.51c-1.37,0.17-2.67-0.56-3.25-1.79     c-6.75-14.24-32.39-28.65-55.97-31.45c-16.18-1.93-28.94,1.74-35.88,10.33c-19.93,24.61,18.82,75.99,19.21,76.51     c1.07,1.4,0.8,3.39-0.6,4.45C587.51,2184.59,586.84,2184.81,586.16,2184.81z"
            class="color060f11 svgShape" />
    </g>
    <g>
        <path fill="#060f11"
            d="M793.66,2184.81c-0.08,0-0.15,0-0.23-0.01c-1.75-0.12-3.07-1.64-2.95-3.39     c3.36-47.52,15.43-96.29,34-137.35c0.72-1.6,2.61-2.31,4.2-1.59c1.6,0.72,2.31,2.61,1.59,4.21     c-18.26,40.39-30.14,88.39-33.45,135.18C796.7,2183.53,795.31,2184.81,793.66,2184.81z"
            class="color060f11 svgShape" />
    </g>
    <g>
        <path fill="#060f11"
            d="M742.4,2184.81c-1.43,0-2.73-0.98-3.09-2.43c-6.36-26.17-10.88-60.94-12.11-93.01    c-0.07-1.75,1.3-3.23,3.05-3.3c1.83-0.05,3.23,1.3,3.3,3.05c1.21,31.67,5.67,65.97,11.93,91.75c0.41,1.71-0.63,3.42-2.34,3.84    C742.9,2184.78,742.65,2184.81,742.4,2184.81z"
            class="color060f11 svgShape" />
    </g>
    <g>
        <path fill="#060f11"
            d="M664.24,2184.81c-1.05,0-2.08-0.52-2.68-1.47c-10.75-16.84-26.88-30.21-45.43-37.63    c-1.63-0.65-2.42-2.5-1.77-4.13c0.65-1.63,2.49-2.42,4.13-1.77c19.77,7.91,36.97,22.15,48.43,40.11c0.94,1.48,0.51,3.44-0.97,4.39    C665.41,2184.64,664.82,2184.81,664.24,2184.81z"
            class="color060f11 svgShape" />
    </g>
    <g>
        <path fill="#060f11"
            d="M851.71,2184.81c-0.21,0-0.42-0.02-0.63-0.06c-1.72-0.34-2.84-2.02-2.49-3.74    c5.08-25.34,12.86-43.25,22.72-65.93l1.31-3.02c0.7-1.61,2.57-2.35,4.18-1.65c1.61,0.7,2.35,2.57,1.65,4.18l-1.31,3.02    c-10.09,23.2-17.38,39.97-22.32,64.64C854.53,2183.76,853.2,2184.81,851.71,2184.81z"
            class="color060f11 svgShape" />
    </g>
</svg>