<svg xmlns="http://www.w3.org/2000/svg" xmlns:xlink="http://www.w3.org/1999/xlink" viewBox="0 0 710 670" width="710" height="670" preserveAspectRatio="xMidYMid meet" style="width: 100%; height: 100%; transform: translate3d(0px, 0px, 0px); content-visibility: visible;"><defs><clipPath id="__lottie_element_4538"><rect width="710" height="670" x="0" y="0"></rect></clipPath></defs><g clip-path="url(#__lottie_element_4538)"><g transform="matrix(1,0,0,1,355,351)" opacity="0.12" style="display: block;"><g opacity="1" transform="matrix(1,0,0,1,0,0)" style="mix-blend-mode: multiply;"><path fill="rgb(128,125,251)" fill-opacity="1" d=" M-1.371999979019165,296.2170104980469 C-1.371999979019165,290.5780029296875 -52.42100143432617,286.0060119628906 -115.38899993896484,286.0060119628906 C-178.36000061035156,286.0060119628906 -229.40699768066406,290.5780029296875 -229.40699768066406,296.2170104980469 C-229.40699768066406,301.85699462890625 -178.36000061035156,306.4289855957031 -115.38899993896484,306.4289855957031 C-52.42100143432617,306.4289855957031 -1.371999979019165,301.85699462890625 -1.371999979019165,296.2170104980469z"></path></g><g opacity="1" transform="matrix(1,0,0,1,0,0)" style="mix-blend-mode: multiply;"><path fill="rgb(128,125,251)" fill-opacity="1" d=" M229.83900451660156,228.08900451660156 C229.83900451660156,223.31900024414062 154.2100067138672,219.4510040283203 60.922000885009766,219.4510040283203 C-32.369998931884766,219.4510040283203 -107.99600219726562,223.31900024414062 -107.99600219726562,228.08900451660156 C-107.99600219726562,232.86000061035156 -32.369998931884766,236.7270050048828 60.922000885009766,236.7270050048828 C154.2100067138672,236.7270050048828 229.83900451660156,232.86000061035156 229.83900451660156,228.08900451660156z"></path></g></g><g transform="matrix(1,0,0,1,355,351)" opacity="1" style="display: block;"><g opacity="1" transform="matrix(0.9809003472328186,0.19451095163822174,-0.19451095163822174,0.9809003472328186,37.214324951171875,-44.248779296875)"><g opacity="1" transform="matrix(1,0,0,1,0,0)"><path fill="rgb(159,156,255)" fill-opacity="1" d=" M298.88299560546875,96.54499816894531 C309.5669860839844,97.28800201416016 313.7380065917969,88.08300018310547 315.74798583984375,82.42400360107422 C312.4630126953125,82.44400024414062 299.1730041503906,83.30699920654297 298.88299560546875,96.54499816894531z"></path></g><g opacity="1" transform="matrix(1,0,0,1,0,0)"><path stroke-linecap="round" stroke-linejoin="round" fill-opacity="0" stroke="rgb(159,156,255)" stroke-opacity="1" stroke-width="2" d=" M240.01199340820312,170.17300415039062 C248.6199951171875,149.6009979248047 269.2869873046875,119.16300201416016 300.1000061035156,95.43699645996094"></path></g><g opacity="1" transform="matrix(1,0,0,1,0,0)"><path fill="rgb(159,156,255)" fill-opacity="1" d=" M242.18899536132812,154.7989959716797 C242.24200439453125,133.17100524902344 226.7899932861328,129.47300720214844 215.11399841308594,126.18499755859375 C215.60000610351562,132.80499267578125 215.4759979248047,156.00399780273438 242.18899536132812,154.7989959716797z"></path></g><g opacity="1" transform="matrix(1,0,0,1,0,0)"><path fill="rgb(159,156,255)" fill-opacity="1" d=" M252.39599609375,136.76100158691406 C256.7569885253906,119.95500183105469 245.4810028076172,113.99299621582031 237.05999755859375,109.1050033569336 C236.11599731445312,114.3479995727539 231.38600158691406,132.36099243164062 252.39599609375,136.76100158691406z"></path></g><g opacity="1" transform="matrix(1,0,0,1,0,0)"><path fill="rgb(159,156,255)" fill-opacity="1" d=" M267.18499755859375,119.71499633789062 C274.2099914550781,106.54900360107422 265.98699951171875,99.29900360107422 259.9339904785156,93.5199966430664 C258.0899963378906,97.70999908447266 250.51400756835938,111.81199645996094 267.18499755859375,119.71499633789062z"></path></g><g opacity="1" transform="matrix(1,0,0,1,0,0)"><path fill="rgb(159,156,255)" fill-opacity="1" d=" M282.7749938964844,104.44300079345703 C289.24798583984375,97.8010025024414 285.593994140625,92.05000305175781 282.98199462890625,87.5530014038086 C281.156005859375,89.73500061035156 274.1929931640625,96.83899688720703 282.7749938964844,104.44300079345703z"></path></g><g opacity="1" transform="matrix(1,0,0,1,0,0)"><path fill="rgb(159,156,255)" fill-opacity="1" d=" M252.8090057373047,158.6219940185547 C267.5169982910156,146.46200561523438 278.70001220703125,154.91799926757812 287.4849853515625,161.02999877929688 C282.70098876953125,164.41200256347656 266.9630126953125,177.5 252.8090057373047,158.6219940185547z"></path></g><g opacity="1" transform="matrix(1,0,0,1,0,0)"><path fill="rgb(159,156,255)" fill-opacity="1" d=" M264.27801513671875,139.21200561523438 C275.1780090332031,126.8759994506836 285.8420104980469,132.58099365234375 294.1499938964844,136.61000061035156 C290.52899169921875,140.13099670410156 278.8739929199219,153.3979949951172 264.27801513671875,139.21200561523438z"></path></g><g opacity="1" transform="matrix(1,0,0,1,0,0)"><path fill="rgb(159,156,255)" fill-opacity="1" d=" M281.22198486328125,118.41000366210938 C290.71099853515625,112.37000274658203 296.6340026855469,118.13099670410156 301.32598876953125,122.34700012207031 C298.2829895019531,123.9749984741211 288.125,130.48300170898438 281.22198486328125,118.41000366210938z"></path></g><g opacity="1" transform="matrix(1,0,0,1,0,0)"><path fill="rgb(159,156,255)" fill-opacity="1" d=" M293.6260070800781,105.1969985961914 C298.4150085449219,100.7229995727539 302.4230041503906,103.39199829101562 305.5610046386719,105.30400085449219 C303.9909973144531,106.56099700927734 298.8699951171875,111.375 293.6260070800781,105.1969985961914z"></path></g></g><g opacity="1" transform="matrix(0.9729267358779907,0.23111365735530853,-0.23111365735530853,0.9729267358779907,21.55279541015625,45.73816680908203)"><g opacity="1" transform="matrix(1,0,0,1,0,0)"><path stroke-linecap="round" stroke-linejoin="round" fill-opacity="0" stroke="rgb(218,224,245)" stroke-opacity="1" stroke-width="2" d=" M-186.22300720214844,111.63800048828125 C-196.36700439453125,126.19100189208984 -240.23399353027344,171.53900146484375 -268.489990234375,192.74899291992188"></path></g><g opacity="1" transform="matrix(1,0,0,1,0,0)"><path stroke-linecap="round" stroke-linejoin="round" fill-opacity="0" stroke="rgb(218,224,245)" stroke-opacity="1" stroke-width="2" d=" M-267.48699951171875,195.1320037841797 C-267.3139953613281,197.38999938964844 -269.0060119628906,199.36000061035156 -271.2640075683594,199.53199768066406 C-273.5220031738281,199.7050018310547 -275.4930114746094,198.01300048828125 -275.6650085449219,195.7550048828125 C-275.83599853515625,193.49600219726562 -274.1449890136719,191.5260009765625 -271.8869934082031,191.35400390625 C-269.6289978027344,191.1820068359375 -267.6579895019531,192.8730010986328 -267.48699951171875,195.1320037841797z"></path></g><g opacity="1" transform="matrix(1,0,0,1,0,0)"><path stroke-linecap="round" stroke-linejoin="round" fill-opacity="0" stroke="rgb(218,224,245)" stroke-opacity="1" stroke-width="2" d=" M-231.51800537109375,186.80599975585938 C-231.3509979248047,188.99200439453125 -232.99000549316406,190.89999389648438 -235.17599487304688,191.0659942626953 C-237.36300659179688,191.23300170898438 -239.27099609375,189.59500122070312 -239.43699645996094,187.40899658203125 C-239.60400390625,185.2209930419922 -237.96499633789062,183.31399536132812 -235.7790069580078,183.14700317382812 C-233.59100341796875,182.9810028076172 -231.6840057373047,184.6199951171875 -231.51800537109375,186.80599975585938z"></path></g><g opacity="1" transform="matrix(1,0,0,1,0,0)"><path stroke-linecap="round" stroke-linejoin="round" fill-opacity="0" stroke="rgb(218,224,245)" stroke-opacity="1" stroke-width="2" d=" M-233.61399841308594,145.96800231933594 C-233.42599487304688,148.4499969482422 -235.28500366210938,150.61599731445312 -237.76699829101562,150.8040008544922 C-240.2480010986328,150.9929962158203 -242.41400146484375,149.13400268554688 -242.6020050048828,146.65199279785156 C-242.79100036621094,144.1699981689453 -240.9320068359375,142.00599670410156 -238.4499969482422,141.81700134277344 C-235.968994140625,141.6280059814453 -233.80299377441406,143.48699951171875 -233.61399841308594,145.96800231933594z"></path></g><g opacity="1" transform="matrix(1,0,0,1,0,0)"><path stroke-linecap="round" stroke-linejoin="round" fill-opacity="0" stroke="rgb(218,224,245)" stroke-opacity="1" stroke-width="2" d=" M-200.05999755859375,153.48199462890625 C-199.8419952392578,156.35400390625 -201.99400329589844,158.86099243164062 -204.86599731445312,159.07899475097656 C-207.73800659179688,159.29800415039062 -210.2449951171875,157.14599609375 -210.46299743652344,154.2740020751953 C-210.6820068359375,151.40199279785156 -208.52999877929688,148.89599609375 -205.65699768066406,148.67799377441406 C-202.78599548339844,148.45899963378906 -200.2790069580078,150.61000061035156 -200.05999755859375,153.48199462890625z"></path></g><g opacity="1" transform="matrix(1,0,0,1,0,0)"><path stroke-linecap="round" stroke-linejoin="round" fill-opacity="0" stroke="rgb(218,224,245)" stroke-opacity="1" stroke-width="2" d=" M-269.74200439453125,181.2760009765625 C-269.5989990234375,183.14999389648438 -271.0039978027344,184.78500366210938 -272.87799072265625,184.92799377441406 C-274.75299072265625,185.0709991455078 -276.38800048828125,183.66600036621094 -276.531005859375,181.79200744628906 C-276.67401123046875,179.91700744628906 -275.2690124511719,178.28199768066406 -273.3949890136719,178.13900756835938 C-271.5199890136719,177.9969940185547 -269.885009765625,179.4010009765625 -269.74200439453125,181.2760009765625z"></path></g><g opacity="1" transform="matrix(1,0,0,1,0,0)"><path stroke-linecap="round" stroke-linejoin="round" fill-opacity="0" stroke="rgb(218,224,245)" stroke-opacity="1" stroke-width="2" d=" M-269.74200439453125,181.75799560546875 C-266.64801025390625,181.71099853515625 -256.69500732421875,182.0070037841797 -253.44200134277344,180.51800537109375"></path></g><g opacity="1" transform="matrix(1,0,0,1,0,0)"><path stroke-linecap="round" stroke-linejoin="round" fill-opacity="0" stroke="rgb(218,224,245)" stroke-opacity="1" stroke-width="2" d=" M-235.7790069580078,183.14700317382812 C-235.98599243164062,180.41299438476562 -236.18499755859375,169.8159942626953 -233.88499450683594,162.71400451660156"></path></g><g opacity="1" transform="matrix(1,0,0,1,0,0)"><path stroke-linecap="round" stroke-linejoin="round" fill-opacity="0" stroke="rgb(218,224,245)" stroke-opacity="1" stroke-width="2" d=" M-233.61399841308594,145.96800231933594 C-231.21499633789062,146.76600646972656 -219.87100219726562,146.96800231933594 -216.27000427246094,145.35499572753906"></path></g><g opacity="1" transform="matrix(1,0,0,1,0,0)"><path stroke-linecap="round" stroke-linejoin="round" fill-opacity="0" stroke="rgb(218,224,245)" stroke-opacity="1" stroke-width="2" d=" M-203.906005859375,148.8459930419922 C-203.5919952392578,145.89599609375 -201.7989959716797,131.76199340820312 -200.875,129.11300659179688"></path></g></g><g opacity="1" transform="matrix(0.9972435832023621,-0.07419702410697937,0.07419702410697937,0.9972435832023621,-8.30523681640625,-11.501358032226562)"><path fill="rgb(107,103,233)" fill-opacity="1" d=" M-162.2689971923828,104.05999755859375 C-190.83299255371094,112.03900146484375 -197.6490020751953,138.9429931640625 -183.68299865722656,170.96099853515625 C-159.33999633789062,158.60699462890625 -141.16299438476562,128.677001953125 -162.2689971923828,104.05999755859375z"></path></g><g opacity="1" transform="matrix(0.9809003472328186,0.19451095163822174,-0.19451095163822174,0.9809003472328186,12.07073974609375,30.253597259521484)"><g opacity="1" transform="matrix(1,0,0,1,0,0)"><path fill="rgb(159,156,255)" fill-opacity="1" d=" M-149.55999755859375,79.06800079345703 C-184.26100158691406,57.237998962402344 -218.11399841308594,75.27999877929688 -237.88600158691406,119.36100006103516 C-202.63499450683594,132.7949981689453 -155.1320037841797,123.57099914550781 -149.55999755859375,79.06800079345703z"></path></g><g opacity="1" transform="matrix(1,0,0,1,0,0)"><path stroke-linecap="round" stroke-linejoin="round" fill-opacity="0" stroke="rgb(128,125,251)" stroke-opacity="1" stroke-width="2" d=" M-149.55999755859375,79.06800079345703 C-164.8090057373047,87.10800170898438 -204.0399932861328,101.77999877929688 -227.302001953125,113.91699981689453"></path></g></g><g opacity="1" transform="matrix(0.9984681606292725,0.055329181253910065,-0.055329181253910065,0.9984681606292725,-5.730987548828125,-11.153030395507812)"><path fill="rgb(187,192,230)" fill-opacity="1" d=" M201.843994140625,-107.26799774169922 C223.47300720214844,-112.73300170898438 229.10299682617188,-132.83700561523438 219.1999969482422,-157.17599487304688 C200.66299438476562,-148.3419952392578 186.4340057373047,-126.17500305175781 201.843994140625,-107.26799774169922z"></path></g><g opacity="1" transform="matrix(0.995963990688324,0.08975381404161453,-0.08975381404161453,0.995963990688324,-8.419052124023438,-18.425453186035156)"><g opacity="1" transform="matrix(1,0,0,1,0,0)"><path fill="rgb(206,211,248)" fill-opacity="1" d=" M202.01400756835938,-104.08599853515625 C223.97500610351562,-88.20099639892578 247.08200073242188,-98.65699768066406 262.010009765625,-126.8949966430664 C239.32699584960938,-137.26499938964844 207.5919952392578,-133.20899963378906 202.01400756835938,-104.08599853515625z"></path></g><g opacity="1" transform="matrix(1,0,0,1,0,0)"><path stroke-linecap="round" stroke-linejoin="round" fill-opacity="0" stroke="rgb(187,192,230)" stroke-opacity="1" stroke-width="2" d=" M202.01400756835938,-104.08599853515625 C212.41799926757812,-108.73899841308594 238.92799377441406,-116.74099731445312 254.79400634765625,-123.75499725341797"></path></g></g><g opacity="1" transform="matrix(0.9982057213783264,0.05987788736820221,-0.05987788736820221,0.9982057213783264,4.286865234375,9.251678466796875)"><path fill="rgb(221,226,248)" fill-opacity="1" d=" M-155.0330047607422,71.52300262451172 C-158.572998046875,76.69300079345703 -217.42999267578125,80.41699981689453 -218.8769989013672,69.20600128173828 C-220.0050048828125,60.47700119018555 -210.77000427246094,59.08399963378906 -207.3780059814453,58.84199905395508 C-202.03500366210938,58.46099853515625 -189.11900329589844,58.38199996948242 -190.02699279785156,54.47200012207031 C-191.6699981689453,47.39500045776367 -224.30799865722656,51.7599983215332 -232.32400512695312,52.33399963378906 C-240.33999633789062,52.90800094604492 -256.06500244140625,51.84199905395508 -261.37799072265625,44.7130012512207 C-266.6910095214844,37.584999084472656 -268.0260009765625,34.082000732421875 -253.94200134277344,33.856998443603516 C-239.85899353027344,33.63100051879883 -212.06399536132812,36.6510009765625 -218.96299743652344,29.010000228881836 C-225.86099243164062,21.3700008392334 -247.9810028076172,24.045000076293945 -261.218994140625,20.924999237060547 C-274.45599365234375,17.804000854492188 -298.5979919433594,7.369999885559082 -291.0299987792969,0.531000018119812 C-284.26300048828125,-5.585000038146973 -246.8800048828125,9.105999946594238 -247.38099670410156,2.1019999980926514 C-247.78199768066406,-3.5 -259.40899658203125,-3.6070001125335693 -276.3919982910156,-9.277000427246094 C-293.3760070800781,-14.944000244140625 -309.3500061035156,-20.468000411987305 -306.9100036621094,-30.871000289916992 C-304.95001220703125,-39.2239990234375 -294.8429870605469,-33.29899978637695 -285.64599609375,-30.357999801635742 C-276.45001220703125,-27.417999267578125 -263.4859924316406,-23.808000564575195 -265.25299072265625,-29 C-267.0169982910156,-34.19200134277344 -313.37298583984375,-44.2239990234375 -313.2170104980469,-58.42100143432617 C-313.114990234375,-67.81400299072266 -303.9049987792969,-62.52799987792969 -293.01300048828125,-59.70899963378906 C-282.12200927734375,-56.888999938964844 -278.0790100097656,-56.70899963378906 -278.2460021972656,-59.042999267578125 C-278.4129943847656,-61.37900161743164 -292.489990234375,-67.56700134277344 -300.3110046386719,-70.76200103759766 C-308.1310119628906,-73.95800018310547 -318.2550048828125,-81.21199798583984 -315.5299987792969,-88.60199737548828 C-312.80499267578125,-95.99299621582031 -300.802001953125,-89.5770034790039 -296.91900634765625,-86.1780014038086 C-293.0350036621094,-82.77999877929688 -287.8869934082031,-81.19300079345703 -286.885986328125,-82.35900115966797 C-285.885009765625,-83.5260009765625 -297.906005859375,-95.64900207519531 -290.68701171875,-100.85800170898438 C-283.4670104980469,-106.06800079345703 -273.10699462890625,-93.35600280761719 -272.4729919433594,-84.48600006103516 C-271.8389892578125,-75.61399841308594 -270.67401123046875,-63.652000427246094 -267.43701171875,-63.88399887084961 C-264.1990051269531,-64.11499786376953 -264.9339904785156,-74.38600158691406 -265.51300048828125,-82.47899627685547 C-266.0920104980469,-90.5719985961914 -264.47198486328125,-93.9209976196289 -262.3139953613281,-94.07499694824219 C-255.1199951171875,-94.58799743652344 -248.3040008544922,-84.49199676513672 -247.88099670410156,-78.5770034790039 C-247.45799255371094,-72.66400146484375 -249.4040069580078,-39.20500183105469 -244.62600708007812,-39.54800033569336 C-239.8470001220703,-39.88800048828125 -240.4409942626953,-52.516998291015625 -240.9080047607422,-59.05400085449219 C-241.375,-65.58999633789062 -242.46600341796875,-80.84100341796875 -234.4499969482422,-81.41500091552734 C-226.4340057373047,-81.98899841308594 -220.6490020751953,-61.75400161743164 -220.52999877929688,-49.24700164794922 C-220.41000366210938,-36.742000579833984 -221.75,-16.468000411987305 -218.0500030517578,-16.73200035095215 C-214.35000610351562,-16.996999740600586 -210.54100036621094,-33.06800079345703 -211.10899353027344,-41.005001068115234 C-211.677001953125,-48.94200134277344 -216.69700622558594,-62.819000244140625 -206.83200073242188,-63.52399826049805 C-196.9669952392578,-64.22899627685547 -194.0959930419922,-52.25400161743164 -192.9810028076172,-36.66999816894531 C-192.51600646972656,-30.15999984741211 -191.52699279785156,-14.029999732971191 -196.37600708007812,-4.895999908447266 C-201.89700317382812,5.502999782562256 -202.9409942626953,11.59000015258789 -200.58599853515625,12.991999626159668 C-195.8939971923828,15.784000396728516 -192.25599670410156,5.982999801635742 -191.2480010986328,-1.597000002861023 C-190.24099731445312,-9.178000450134277 -188.52999877929688,-32.92100143432617 -177.1199951171875,-29.356000900268555 C-165.7100067138672,-25.79199981689453 -171.96099853515625,-7.043000221252441 -173.7270050048828,0.746999979019165 C-175.4949951171875,8.538000106811523 -184.10800170898438,35.433998107910156 -178.23800659179688,37.361000061035156 C-172.36700439453125,39.28799819946289 -171.60899353027344,23.902999877929688 -170.86300659179688,19.156999588012695 C-170.1179962158203,14.411999702453613 -165.43899536132812,5.080999851226807 -162.05099487304688,8.04699993133545 C-158.66200256347656,11.01099967956543 -148.718994140625,62.30500030517578 -155.0330047607422,71.52300262451172z"></path></g><g opacity="1" transform="matrix(1,0,0,1,0,0)"><g opacity="1" transform="matrix(1,0,0,1,0,0)"><path fill="rgb(107,103,233)" fill-opacity="1" d=" M106.00499725341797,223.5019989013672 C90.62300109863281,213.3979949951172 52.715999603271484,138.91900634765625 82.51699829101562,124.48600006103516 C110.76300048828125,110.80599975585938 119.7229995727539,169.06199645996094 121.40399932861328,176.6280059814453 C127.29100036621094,148.0399932861328 134.9949951171875,120.29499816894531 153.843994140625,125.33899688720703 C172.6929931640625,130.38499450683594 153.843994140625,170.7429962158203 153.843994140625,170.7429962158203 C171.01199340820312,148.8820037841797 213.7969970703125,115.23699951171875 233.27099609375,125.33499908447266 C252.74400329589844,135.43499755859375 193.71299743652344,171.65899658203125 193.71299743652344,171.65899658203125 C220.53900146484375,156.4429931640625 300.7040100097656,135.95199584960938 220.64300537109375,174.62899780273438 C257.2969970703125,162.77200317382812 328.7820129394531,156.9550018310547 249.32000732421875,181.68699645996094 C297.1470031738281,177.53599548339844 321.4219970703125,184.0449981689453 322.2640075683594,190.7729949951172 C323.10400390625,197.49899291992188 309.0740051269531,207.01600646972656 247.26699829101562,208.57899475097656 C277.7950134277344,213.6230010986328 293.10699462890625,220.76600646972656 285.24200439453125,223.5019989013672 C272.75,223.5019989013672 106.00499725341797,223.5019989013672 106.00499725341797,223.5019989013672z"></path></g><g opacity="1" transform="matrix(1,0,0,1,0,0)"><path fill="rgb(255,255,255)" fill-opacity="1" d=" M208.427001953125,187.5540008544922 C208.427001953125,186.1840057373047 209.5399932861328,185.07200622558594 210.91099548339844,185.07200622558594 C212.281005859375,185.07200622558594 213.39100646972656,186.1840057373047 213.39100646972656,187.5540008544922 C213.39100646972656,188.92300415039062 212.281005859375,190.03599548339844 210.91099548339844,190.03599548339844 C209.5399932861328,190.03599548339844 208.427001953125,188.92300415039062 208.427001953125,187.5540008544922z"></path></g><g opacity="1" transform="matrix(1,0,0,1,0,0)"><path fill="rgb(255,255,255)" fill-opacity="1" d=" M123.19000244140625,202.16600036621094 C123.19000244140625,200.05499267578125 124.9010009765625,198.34500122070312 127.01200103759766,198.34500122070312 C129.1219940185547,198.34500122070312 130.83399963378906,200.05499267578125 130.83399963378906,202.16600036621094 C130.83399963378906,204.27699279785156 129.1219940185547,205.98800659179688 127.01200103759766,205.98800659179688 C124.9010009765625,205.98800659179688 123.19000244140625,204.27699279785156 123.19000244140625,202.16600036621094z"></path></g><g opacity="1" transform="matrix(1,0,0,1,0,0)"><path fill="rgb(255,255,255)" fill-opacity="1" d=" M172.94000244140625,173.85899353027344 C172.94000244140625,172.0570068359375 174.4010009765625,170.5970001220703 176.2030029296875,170.5970001220703 C178.00399780273438,170.5970001220703 179.46600341796875,172.0570068359375 179.46600341796875,173.85899353027344 C179.46600341796875,175.66000366210938 178.00399780273438,177.1199951171875 176.2030029296875,177.1199951171875 C174.4010009765625,177.1199951171875 172.94000244140625,175.66000366210938 172.94000244140625,173.85899353027344z"></path></g></g></g><g transform="matrix(1,0,0,1,355,351)" opacity="1" style="display: block;"><g opacity="1" transform="matrix(1.0192477703094482,0,0,1.0192477703094482,-4.879302978515625,0.6436080932617188)"><g opacity="1" transform="matrix(1,0,0,1,0,0)"><path fill="rgb(128,125,251)" fill-opacity="1" d=" M236.21499633789062,-33.0989990234375 C236.21499633789062,-42.637001037597656 243.94700622558594,-50.36899948120117 253.48500061035156,-50.36899948120117 C263.02301025390625,-50.36899948120117 270.7550048828125,-42.637001037597656 270.7550048828125,-33.0989990234375 C270.7550048828125,-23.56100082397461 263.02301025390625,-15.82800006866455 253.48500061035156,-15.82800006866455 C243.94700622558594,-15.82800006866455 236.21499633789062,-23.56100082397461 236.21499633789062,-33.0989990234375z"></path></g><g opacity="1" transform="matrix(1,0,0,1,0,0)"><path fill="rgb(255,255,255)" fill-opacity="1" d=" M256.18798828125,-34.43000030517578 C257.52398681640625,-35.310001373291016 258.406005859375,-36.82099914550781 258.406005859375,-38.540000915527344 C258.406005859375,-41.257999420166016 256.2030029296875,-43.459999084472656 253.48500061035156,-43.459999084472656 C250.76800537109375,-43.459999084472656 248.56500244140625,-41.257999420166016 248.56500244140625,-38.540000915527344 C248.56500244140625,-36.82099914550781 249.44700622558594,-35.310001373291016 250.78199768066406,-34.43000030517578 C245.7050018310547,-33.17399978637695 245.3939971923828,-29.531999588012695 245.3939971923828,-25.32699966430664 C245.3939971923828,-25.32699966430664 261.5769958496094,-25.32699966430664 261.5769958496094,-25.32699966430664 C261.5769958496094,-29.531999588012695 261.07000732421875,-33.17399978637695 256.18798828125,-34.43000030517578z"></path></g></g><g opacity="1" transform="matrix(0.997109591960907,0,0,0.997109591960907,0.16475296020507812,-0.90704345703125)"><g opacity="1" transform="matrix(1,0,0,1,0,0)"><path fill="rgb(128,125,251)" fill-opacity="1" d=" M39.57500076293945,-313.4859924316406 C39.57500076293945,-323.02398681640625 47.30699920654297,-330.7560119628906 56.845001220703125,-330.7560119628906 C66.38300323486328,-330.7560119628906 74.11499786376953,-323.02398681640625 74.11499786376953,-313.4859924316406 C74.11499786376953,-303.947998046875 66.38300323486328,-296.2149963378906 56.845001220703125,-296.2149963378906 C47.30699920654297,-296.2149963378906 39.57500076293945,-303.947998046875 39.57500076293945,-313.4859924316406z"></path></g><g opacity="1" transform="matrix(1,0,0,1,0,0)"><path fill="rgb(255,255,255)" fill-opacity="1" d=" M59.54800033569336,-314.8169860839844 C60.88399887084961,-315.6969909667969 61.76599884033203,-317.2080078125 61.76599884033203,-318.927001953125 C61.76599884033203,-321.6449890136719 59.5629997253418,-323.84698486328125 56.845001220703125,-323.84698486328125 C54.12799835205078,-323.84698486328125 51.92499923706055,-321.6449890136719 51.92499923706055,-318.927001953125 C51.92499923706055,-317.2080078125 52.80699920654297,-315.6969909667969 54.141998291015625,-314.8169860839844 C49.064998626708984,-313.5610046386719 48.75400161743164,-309.91900634765625 48.75400161743164,-305.7139892578125 C48.75400161743164,-305.7139892578125 64.93699645996094,-305.7139892578125 64.93699645996094,-305.7139892578125 C64.93699645996094,-309.91900634765625 64.43000030517578,-313.5610046386719 59.54800033569336,-314.8169860839844z"></path></g></g></g><g transform="matrix(1,0,0,1,355,351)" opacity="1" style="display: block;"><g opacity="0.3417556917153729" transform="matrix(0.9263322949409485,0,0,0.9263322949409485,4.19677734375,-6.595542907714844)"><path fill="rgb(233,237,247)" fill-opacity="1" d=" M-14.430999755859375,-89.83200073242188 C-14.430999755859375,-129.19700622558594 17.481000900268555,-161.10899353027344 56.84600067138672,-161.10899353027344 C96.21099853515625,-161.10899353027344 128.1230010986328,-129.19700622558594 128.1230010986328,-89.83200073242188 C128.1230010986328,-50.46699905395508 96.21099853515625,-18.55500030517578 56.84600067138672,-18.55500030517578 C17.481000900268555,-18.55500030517578 -14.430999755859375,-50.46699905395508 -14.430999755859375,-89.83200073242188z"></path></g><g opacity="1" transform="matrix(1,0,0,1,0,0)"><path fill="rgb(233,237,247)" fill-opacity="1" d=" M-14.430999755859375,-89.83200073242188 C-14.430999755859375,-129.19700622558594 17.481000900268555,-161.10899353027344 56.84600067138672,-161.10899353027344 C96.21099853515625,-161.10899353027344 128.1230010986328,-129.19700622558594 128.1230010986328,-89.83200073242188 C128.1230010986328,-50.46699905395508 96.21099853515625,-18.55500030517578 56.84600067138672,-18.55500030517578 C17.481000900268555,-18.55500030517578 -14.430999755859375,-50.46699905395508 -14.430999755859375,-89.83200073242188z"></path></g><g opacity="1" transform="matrix(1,0,0,1,0,0)"><path fill="rgb(206,211,248)" fill-opacity="1" d=" M-3.9830000400543213,-89.83200073242188 C-3.9830000400543213,-123.427001953125 23.250999450683594,-150.66099548339844 56.84600067138672,-150.66099548339844 C90.44100189208984,-150.66099548339844 117.67400360107422,-123.427001953125 117.67400360107422,-89.83200073242188 C117.67400360107422,-56.23699951171875 90.44100189208984,-29.003999710083008 56.84600067138672,-29.003999710083008 C23.250999450683594,-29.003999710083008 -3.9830000400543213,-56.23699951171875 -3.9830000400543213,-89.83200073242188z"></path></g><g opacity="1" transform="matrix(1,0,0,1,0,0)"><path fill="rgb(255,255,255)" fill-opacity="1" d=" M-0.5239999890327454,-89.83200073242188 C-0.5239999890327454,-121.51599884033203 25.16200065612793,-147.2010040283203 56.84600067138672,-147.2010040283203 C88.52999877929688,-147.2010040283203 114.21499633789062,-121.51599884033203 114.21499633789062,-89.83200073242188 C114.21499633789062,-58.14799880981445 88.52999877929688,-32.4630012512207 56.84600067138672,-32.4630012512207 C25.16200065612793,-32.4630012512207 -0.5239999890327454,-58.14799880981445 -0.5239999890327454,-89.83200073242188z"></path></g></g><g transform="matrix(1,0,0,1,355,351)" opacity="1" style="display: block;"><g opacity="1" transform="matrix(0.9996711015701294,0.025645337998867035,-0.025645337998867035,0.9996711015701294,-2.2066497802734375,-0.7474822998046875)"><path stroke-linecap="round" stroke-linejoin="round" fill-opacity="0" stroke="rgb(128,125,251)" stroke-opacity="1" stroke-width="4" d=" M42.736000061035156,-92.6760025024414 C42.736000061035156,-92.6760025024414 29.4950008392334,-79.43499755859375 29.4950008392334,-79.43499755859375 C24.81399917602539,-74.75499725341797 24.81399917602539,-67.16400146484375 29.4950008392334,-62.481998443603516 C34.176998138427734,-57.79999923706055 41.766998291015625,-57.79999923706055 46.448001861572266,-62.481998443603516 C46.448001861572266,-62.481998443603516 59.689998626708984,-75.72100067138672 59.689998626708984,-75.72100067138672 C64.37100219726562,-80.40299987792969 64.37100219726562,-87.99400329589844 59.689998626708984,-92.6760025024414"></path></g><g opacity="1" transform="matrix(1,0,0,1,0,0)"><path stroke-linecap="round" stroke-linejoin="round" fill-opacity="0" stroke="rgb(252,186,6)" stroke-opacity="1" stroke-width="4" d=" M70.95500183105469,-86.98799896240234 C70.95500183105469,-86.98799896240234 84.19599914550781,-100.22899627685547 84.19599914550781,-100.22899627685547 C88.87799835205078,-104.91000366210938 88.87699890136719,-112.5 84.19499969482422,-117.18299865722656 C79.51399993896484,-121.86499786376953 71.92400360107422,-121.86499786376953 67.24199676513672,-117.18299865722656 C67.24199676513672,-117.18299865722656 54.000999450683594,-103.94200134277344 54.000999450683594,-103.94200134277344 C49.319000244140625,-99.26000213623047 49.319000244140625,-91.66999816894531 54.000999450683594,-86.98799896240234"></path></g></g><g transform="matrix(0.9820683598518372,-0.18852511048316956,0.18852511048316956,0.9820683598518372,372.80084228515625,360.1500244140625)" opacity="1" style="display: block;"><g opacity="1" transform="matrix(1,0,0,1,0,0)"><path stroke-linecap="round" stroke-linejoin="round" fill-opacity="0" stroke="rgb(206,211,248)" stroke-opacity="1" stroke-width="2" d=" M56.84600067138672,-216.53500366210938 C56.84600067138672,-216.53500366210938 100.3270034790039,-270.572998046875 100.3270034790039,-270.572998046875"></path></g><g opacity="1" transform="matrix(1,0,0,1,0,0)"><path stroke-linecap="round" stroke-linejoin="round" fill-opacity="0" stroke="rgb(206,211,248)" stroke-opacity="1" stroke-width="2" d=" M56.84600067138672,-216.53500366210938 C56.84600067138672,-216.53500366210938 13.36400032043457,-270.572998046875 13.36400032043457,-270.572998046875"></path></g><g opacity="1" transform="matrix(1,0,0,1,0,0)"><path stroke-linecap="round" stroke-linejoin="round" fill-opacity="0" stroke="rgb(206,211,248)" stroke-opacity="1" stroke-width="2" d=" M146.43699645996094,-0.23999999463558197 C146.43699645996094,-0.23999999463558197 152.9739990234375,68.81099700927734 152.9739990234375,68.81099700927734"></path></g><g opacity="1" transform="matrix(1,0,0,1,0,0)"><path stroke-linecap="round" stroke-linejoin="round" fill-opacity="0" stroke="rgb(206,211,248)" stroke-opacity="1" stroke-width="2" d=" M146.43699645996094,-0.23999999463558197 C146.43699645996094,-0.23999999463558197 215.28799438476562,8.151000022888184 215.28799438476562,8.151000022888184"></path></g></g><g transform="matrix(0.9820683598518372,-0.18852511048316956,0.18852511048316956,0.9820683598518372,372.80084228515625,360.1500244140625)" opacity="1" style="display: block;"><g opacity="0.42852490588201186" transform="matrix(0.02551020309329033,0,0,0.02551020309329033,12.940250396728516,-263.7086181640625)" style="mix-blend-mode: multiply;"><path fill="rgb(255,231,128)" fill-opacity="1" d=" M-7.564000129699707,-270.5710144042969 C-7.564000129699707,-282.1310119628906 1.8040000200271606,-291.5 13.36400032043457,-291.5 C24.92300033569336,-291.5 34.29199981689453,-282.1310119628906 34.29199981689453,-270.5710144042969 C34.29199981689453,-259.0140075683594 24.92300033569336,-249.64599609375 13.36400032043457,-249.64599609375 C1.8040000200271606,-249.64599609375 -7.564000129699707,-259.0140075683594 -7.564000129699707,-270.5710144042969z"></path></g><g opacity="0.42852490588201186" transform="matrix(0.02551020309329033,0,0,0.02551020309329033,209.7511444091797,7.755964279174805)" style="mix-blend-mode: multiply;"><path fill="rgb(255,231,128)" fill-opacity="1" d=" M194.36000061035156,8.152000427246094 C194.36000061035156,-3.4079999923706055 203.72799682617188,-12.776000022888184 215.28799438476562,-12.776000022888184 C226.8470001220703,-12.776000022888184 236.21499633789062,-3.4079999923706055 236.21499633789062,8.152000427246094 C236.21499633789062,19.708999633789062 226.8470001220703,29.077999114990234 215.28799438476562,29.077999114990234 C203.72799682617188,29.077999114990234 194.36000061035156,19.708999633789062 194.36000061035156,8.152000427246094z"></path></g></g><g transform="matrix(0.9820683598518372,-0.18852511048316956,0.18852511048316956,0.9820683598518372,372.80084228515625,360.1500244140625)" opacity="1" style="display: block;"><g opacity="1" transform="matrix(1,0,0,1,0,0)"><g opacity="1" transform="matrix(1,0,0,1,0,0)"><g opacity="1" transform="matrix(1,0,0,1,0,0)"><path fill="rgb(252,186,6)" fill-opacity="1" d=" M92.7300033569336,-270.5719909667969 C92.7300033569336,-274.7690124511719 96.13099670410156,-278.1700134277344 100.3270034790039,-278.1700134277344 C104.52300262451172,-278.1700134277344 107.92500305175781,-274.7690124511719 107.92500305175781,-270.5719909667969 C107.92500305175781,-266.37701416015625 104.52300262451172,-262.97601318359375 100.3270034790039,-262.97601318359375 C96.13099670410156,-262.97601318359375 92.7300033569336,-266.37701416015625 92.7300033569336,-270.5719909667969z"></path></g><g opacity="1" transform="matrix(1,0,0,1,0,0)"><path fill="rgb(225,145,0)" fill-opacity="1" d=" M94.83699798583984,-270.5719909667969 C94.83699798583984,-267.5450134277344 97.29900360107422,-265.0830078125 100.3270034790039,-265.0830078125 C103.35399627685547,-265.0830078125 105.81800079345703,-267.5450134277344 105.81800079345703,-270.5719909667969 C105.81800079345703,-273.5989990234375 103.35399627685547,-276.06298828125 100.3270034790039,-276.06298828125 C97.29900360107422,-276.06298828125 94.83699798583984,-273.5989990234375 94.83699798583984,-270.5719909667969z"></path></g></g></g><g opacity="1" transform="matrix(1,0,0,1,0,0)"><g opacity="1" transform="matrix(1,0,0,1,0,0)"><g opacity="1" transform="matrix(1,0,0,1,0,0)"><path fill="rgb(252,186,6)" fill-opacity="1" d=" M5.767000198364258,-270.5719909667969 C5.767000198364258,-274.7690124511719 9.168000221252441,-278.1700134277344 13.36400032043457,-278.1700134277344 C17.559999465942383,-278.1700134277344 20.961000442504883,-274.7690124511719 20.961000442504883,-270.5719909667969 C20.961000442504883,-266.37701416015625 17.559999465942383,-262.97601318359375 13.36400032043457,-262.97601318359375 C9.168000221252441,-262.97601318359375 5.767000198364258,-266.37701416015625 5.767000198364258,-270.5719909667969z"></path></g><g opacity="1" transform="matrix(1,0,0,1,0,0)"><path fill="rgb(225,145,0)" fill-opacity="1" d=" M7.874000072479248,-270.5719909667969 C7.874000072479248,-267.5450134277344 10.336000442504883,-265.0830078125 13.36400032043457,-265.0830078125 C16.391000747680664,-265.0830078125 18.854999542236328,-267.5450134277344 18.854999542236328,-270.5719909667969 C18.854999542236328,-273.5989990234375 16.391000747680664,-276.06298828125 13.36400032043457,-276.06298828125 C10.336000442504883,-276.06298828125 7.874000072479248,-273.5989990234375 7.874000072479248,-270.5719909667969z"></path></g></g></g><g opacity="1" transform="matrix(1,0,0,1,0,0)"><g opacity="1" transform="matrix(1,0,0,1,0,0)"><g opacity="1" transform="matrix(1,0,0,1,0,0)"><path fill="rgb(252,186,6)" fill-opacity="1" d=" M158.41700744628906,63.51100158691406 C161.343994140625,66.51799774169922 161.27999877929688,71.3270034790039 158.2729949951172,74.25399780273438 C155.26600646972656,77.18099975585938 150.45700073242188,77.11599731445312 147.52999877929688,74.10900115966797 C144.60400390625,71.10299682617188 144.66799926757812,66.29399871826172 147.6750030517578,63.367000579833984 C150.6820068359375,60.439998626708984 155.49099731445312,60.505001068115234 158.41700744628906,63.51100158691406z"></path></g><g opacity="1" transform="matrix(1,0,0,1,0,0)"><path fill="rgb(225,145,0)" fill-opacity="1" d=" M156.9080047607422,64.9800033569336 C154.79600524902344,62.81100082397461 151.31399536132812,62.76499938964844 149.1439971923828,64.87699890136719 C146.97500610351562,66.98899841308594 146.927001953125,70.47100067138672 149.03900146484375,72.63999938964844 C151.1510009765625,74.80899810791016 154.63499450683594,74.85700225830078 156.8040008544922,72.74500274658203 C158.9739990234375,70.63300323486328 159.02000427246094,67.14900207519531 156.9080047607422,64.9800033569336z"></path></g></g></g><g opacity="1" transform="matrix(1,0,0,1,0,0)"><g opacity="1" transform="matrix(1,0,0,1,0,0)"><g opacity="1" transform="matrix(1,0,0,1,0,0)"><path fill="rgb(252,186,6)" fill-opacity="1" d=" M220.7310028076172,2.8510000705718994 C223.6580047607422,5.857999801635742 223.593994140625,10.666999816894531 220.58700561523438,13.593999862670898 C217.5800018310547,16.520999908447266 212.77099609375,16.457000732421875 209.843994140625,13.449999809265137 C206.91799926757812,10.444000244140625 206.98199462890625,5.633999824523926 209.98899841308594,2.7070000171661377 C212.99600219726562,-0.2199999988079071 217.80499267578125,-0.1550000011920929 220.7310028076172,2.8510000705718994z"></path></g><g opacity="1" transform="matrix(1,0,0,1,0,0)"><path fill="rgb(225,145,0)" fill-opacity="1" d=" M219.2220001220703,4.321000099182129 C217.11000061035156,2.1519999504089355 213.6269989013672,2.1050000190734863 211.45799255371094,4.2170000076293945 C209.28900146484375,6.328999996185303 209.24099731445312,9.810999870300293 211.35299682617188,11.979999542236328 C213.46499633789062,14.14900016784668 216.947998046875,14.196999549865723 219.11700439453125,12.085000038146973 C221.28700256347656,9.972999572753906 221.33399963378906,6.489999771118164 219.2220001220703,4.321000099182129z"></path></g></g></g></g><g transform="matrix(0.9820683598518372,-0.18852511048316956,0.18852511048316956,0.9820683598518372,372.80084228515625,360.1500244140625)" opacity="1" style="display: block;"><g opacity="1" transform="matrix(1,0,0,1,0,0)"><path stroke-linecap="round" stroke-linejoin="round" fill-opacity="0" stroke="rgb(206,211,248)" stroke-opacity="1" stroke-width="2" d=" M87.8270034790039,33.05500030517578 C85.51000213623047,33.637001037597656 83.16699981689453,34.15599822998047 80.8010025024414,34.60900115966797"></path></g><g opacity="1" transform="matrix(1,0,0,1,0,0)"><path stroke-linecap="round" stroke-linejoin="round" fill-opacity="0" stroke="rgb(206,211,248)" stroke-opacity="1" stroke-width="2" d=" M103.61399841308594,27.959999084472656 C100.9990005493164,28.999000549316406 98.33999633789062,29.952999114990234 95.64299774169922,30.81999969482422"></path></g><g opacity="1" transform="matrix(1,0,0,1,0,0)"><path stroke-linecap="round" stroke-linejoin="round" fill-opacity="0" stroke="rgb(206,211,248)" stroke-opacity="1" stroke-width="2" d=" M-49.77299880981445,-158.31500244140625 C-27.229999542236328,-193.33900451660156 12.098999977111816,-216.53500366210938 56.84600067138672,-216.53500366210938 C126.8219985961914,-216.53500366210938 183.54800415039062,-159.80799865722656 183.54800415039062,-89.83200073242188 C183.54800415039062,-39.150001525878906 153.79100036621094,4.580999851226807 110.79499816894531,24.8439998626709"></path></g><g opacity="1" transform="matrix(1,0,0,1,0,0)"><path stroke-linecap="round" stroke-linejoin="round" fill-opacity="0" stroke="rgb(206,211,248)" stroke-opacity="1" stroke-width="2" d=" M-56.154998779296875,-147.20199584960938 C-55.316001892089844,-148.8520050048828 -54.441001892089844,-150.4810028076172 -53.53300094604492,-152.08799743652344"></path></g><g opacity="1" transform="matrix(1,0,0,1,0,0)"><path stroke-linecap="round" stroke-linejoin="round" fill-opacity="0" stroke="rgb(206,211,248)" stroke-opacity="1" stroke-width="2" d=" M-60.38800048828125,-137.97900390625 C-59.81700134277344,-139.3679962158203 -59.22200012207031,-140.7449951171875 -58.604000091552734,-142.10800170898438"></path></g></g><g transform="matrix(0.9820683598518372,-0.18852511048316956,0.18852511048316956,0.9820683598518372,372.80084228515625,360.1500244140625)" opacity="1" style="display: block;"><g opacity="1" transform="matrix(1,0,0,1,0,0)"><g opacity="1" transform="matrix(1,0,0,1,0,0)"><g opacity="1" transform="matrix(1,0,0,1,0,0)"><path fill="rgb(252,186,6)" fill-opacity="1" d=" M113.5790023803711,-0.23800000548362732 C113.5790023803711,-18.38800048828125 128.28799438476562,-33.097999572753906 146.43800354003906,-33.097999572753906 C164.58700561523438,-33.097999572753906 179.29600524902344,-18.38800048828125 179.29600524902344,-0.23800000548362732 C179.29600524902344,17.908000946044922 164.58700561523438,32.61800003051758 146.43800354003906,32.61800003051758 C128.28799438476562,32.61800003051758 113.5790023803711,17.908000946044922 113.5790023803711,-0.23800000548362732z"></path></g><g opacity="1" transform="matrix(1,0,0,1,0,0)"><path fill="rgb(225,145,0)" fill-opacity="1" d=" M118.5260009765625,-0.23800000548362732 C118.5260009765625,15.151000022888184 131.04600524902344,27.670000076293945 146.43800354003906,27.670000076293945 C161.82699584960938,27.670000076293945 174.34800720214844,15.151000022888184 174.34800720214844,-0.23800000548362732 C174.34800720214844,-15.628000259399414 161.82699584960938,-28.150999069213867 146.43800354003906,-28.150999069213867 C131.04600524902344,-28.150999069213867 118.5260009765625,-15.628000259399414 118.5260009765625,-0.23800000548362732z"></path></g></g><g opacity="1" transform="matrix(1,0,0,1,0,0)"><path fill="rgb(252,186,6)" fill-opacity="1" d=" M146.43800354003906,-2.365000009536743 C145.10699462890625,-2.365000009536743 143.85400390625,-2.881999969482422 142.91400146484375,-3.822999954223633 C141.9720001220703,-4.763000011444092 141.4550018310547,-6.015999794006348 141.4550018310547,-7.3480000495910645 C141.4550018310547,-10.095999717712402 143.68899536132812,-12.333000183105469 146.43800354003906,-12.333000183105469 C149.18499755859375,-12.333000183105469 151.4219970703125,-10.095999717712402 151.4219970703125,-7.3480000495910645 C151.4219970703125,-7.3480000495910645 155.9459991455078,-7.3480000495910645 155.9459991455078,-7.3480000495910645 C155.9459991455078,-11.8100004196167 152.8509979248047,-15.553999900817871 148.69900512695312,-16.56999969482422 C148.69900512695312,-16.56999969482422 148.69900512695312,-20.138999938964844 148.69900512695312,-20.138999938964844 C148.69900512695312,-20.138999938964844 144.177001953125,-20.138999938964844 144.177001953125,-20.138999938964844 C144.177001953125,-20.138999938964844 144.177001953125,-16.56999969482422 144.177001953125,-16.56999969482422 C140.0260009765625,-15.553999900817871 136.93299865722656,-11.8100004196167 136.93299865722656,-7.3480000495910645 C136.93299865722656,-4.807000160217285 137.92100524902344,-2.4189999103546143 139.71800231933594,-0.625 C141.51199340820312,1.1710000038146973 143.8990020751953,2.1570000648498535 146.43800354003906,2.1570000648498535 C149.18499755859375,2.1570000648498535 151.4219970703125,4.394000053405762 151.4219970703125,7.140999794006348 C151.4219970703125,9.890000343322754 149.18499755859375,12.125 146.43800354003906,12.125 C143.68899536132812,12.125 141.4550018310547,9.890000343322754 141.4550018310547,7.140999794006348 C141.4550018310547,7.140999794006348 136.93299865722656,7.140999794006348 136.93299865722656,7.140999794006348 C136.93299865722656,11.604000091552734 140.0260009765625,15.345999717712402 144.177001953125,16.36400032043457 C144.177001953125,16.36400032043457 144.177001953125,19.656999588012695 144.177001953125,19.656999588012695 C144.177001953125,19.656999588012695 148.69900512695312,19.656999588012695 148.69900512695312,19.656999588012695 C148.69900512695312,19.656999588012695 148.69900512695312,16.36400032043457 148.69900512695312,16.36400032043457 C152.8509979248047,15.345999717712402 155.9459991455078,11.604000091552734 155.9459991455078,7.140999794006348 C155.9459991455078,1.9010000228881836 151.68099975585938,-2.365000009536743 146.43800354003906,-2.365000009536743z"></path></g></g><g opacity="1" transform="matrix(1,0,0,1,0,0)"><g opacity="1" transform="matrix(1,0,0,1,0,0)"><g opacity="1" transform="matrix(1,0,0,1,0,0)"><path fill="rgb(252,186,6)" fill-opacity="1" d=" M153.9739990234375,-89.83000183105469 C153.9739990234375,-106.16500091552734 167.21299743652344,-119.40399932861328 183.54800415039062,-119.40399932861328 C199.8820037841797,-119.40399932861328 213.1199951171875,-106.16500091552734 213.1199951171875,-89.83000183105469 C213.1199951171875,-73.49800109863281 199.8820037841797,-60.2599983215332 183.54800415039062,-60.2599983215332 C167.21299743652344,-60.2599983215332 153.9739990234375,-73.49800109863281 153.9739990234375,-89.83000183105469z"></path></g><g opacity="1" transform="matrix(1,0,0,1,0,0)"><path fill="rgb(225,145,0)" fill-opacity="1" d=" M158.427001953125,-89.83000183105469 C158.427001953125,-75.9800033569336 169.69500732421875,-64.71299743652344 183.54800415039062,-64.71299743652344 C197.3979949951172,-64.71299743652344 208.66700744628906,-75.9800033569336 208.66700744628906,-89.83000183105469 C208.66700744628906,-103.68099975585938 197.3979949951172,-114.95099639892578 183.54800415039062,-114.95099639892578 C169.69500732421875,-114.95099639892578 158.427001953125,-103.68099975585938 158.427001953125,-89.83000183105469z"></path></g></g><g opacity="1" transform="matrix(1,0,0,1,0,0)"><path fill="rgb(252,186,6)" fill-opacity="1" d=" M183.54800415039062,-91.74400329589844 C182.35000610351562,-91.74400329589844 181.22300720214844,-92.20999908447266 180.3769989013672,-93.05699920654297 C179.5290069580078,-93.90299987792969 179.06300354003906,-95.02999877929688 179.06300354003906,-96.22899627685547 C179.06300354003906,-98.7030029296875 181.07400512695312,-100.71600341796875 183.54800415039062,-100.71600341796875 C186.02000427246094,-100.71600341796875 188.0330047607422,-98.7030029296875 188.0330047607422,-96.22899627685547 C188.0330047607422,-96.22899627685547 192.10499572753906,-96.22899627685547 192.10499572753906,-96.22899627685547 C192.10499572753906,-100.24500274658203 189.32000732421875,-103.61299896240234 185.58299255371094,-104.52799987792969 C185.58299255371094,-104.52799987792969 185.58299255371094,-107.74099731445312 185.58299255371094,-107.74099731445312 C185.58299255371094,-107.74099731445312 181.51300048828125,-107.74099731445312 181.51300048828125,-107.74099731445312 C181.51300048828125,-107.74099731445312 181.51300048828125,-104.52799987792969 181.51300048828125,-104.52799987792969 C177.77699279785156,-103.61299896240234 174.9929962158203,-100.24500274658203 174.9929962158203,-96.22899627685547 C174.9929962158203,-93.94200134277344 175.88299560546875,-91.79299926757812 177.5,-90.1780014038086 C179.11500549316406,-88.56199645996094 181.26300048828125,-87.67400360107422 183.54800415039062,-87.67400360107422 C186.02000427246094,-87.67400360107422 188.0330047607422,-85.66200256347656 188.0330047607422,-83.18900299072266 C188.0330047607422,-80.71499633789062 186.02000427246094,-78.7030029296875 183.54800415039062,-78.7030029296875 C181.07400512695312,-78.7030029296875 179.06300354003906,-80.71499633789062 179.06300354003906,-83.18900299072266 C179.06300354003906,-83.18900299072266 174.9929962158203,-83.18900299072266 174.9929962158203,-83.18900299072266 C174.9929962158203,-79.1719970703125 177.77699279785156,-75.80400085449219 181.51300048828125,-74.88800048828125 C181.51300048828125,-74.88800048828125 181.51300048828125,-71.92500305175781 181.51300048828125,-71.92500305175781 C181.51300048828125,-71.92500305175781 185.58299255371094,-71.92500305175781 185.58299255371094,-71.92500305175781 C185.58299255371094,-71.92500305175781 185.58299255371094,-74.88800048828125 185.58299255371094,-74.88800048828125 C189.32000732421875,-75.80400085449219 192.10499572753906,-79.1719970703125 192.10499572753906,-83.18900299072266 C192.10499572753906,-87.90499877929688 188.26699829101562,-91.74400329589844 183.54800415039062,-91.74400329589844z"></path></g></g><g opacity="1" transform="matrix(1,0,0,1,0,0)"><g opacity="1" transform="matrix(1,0,0,1,0,0)"><g opacity="1" transform="matrix(1,0,0,1,0,0)"><path fill="rgb(252,186,6)" fill-opacity="1" d=" M119.822998046875,-179.42300415039062 C119.822998046875,-194.125 131.73699951171875,-206.04100036621094 146.43899536132812,-206.04100036621094 C161.13999938964844,-206.04100036621094 173.05499267578125,-194.125 173.05499267578125,-179.42300415039062 C173.05499267578125,-164.72500610351562 161.13999938964844,-152.81100463867188 146.43899536132812,-152.81100463867188 C131.73699951171875,-152.81100463867188 119.822998046875,-164.72500610351562 119.822998046875,-179.42300415039062z"></path></g><g opacity="1" transform="matrix(1,0,0,1,0,0)"><path fill="rgb(225,145,0)" fill-opacity="1" d=" M123.83100128173828,-179.42300415039062 C123.83100128173828,-166.95799255371094 133.9720001220703,-156.8179931640625 146.43899536132812,-156.8179931640625 C158.9040069580078,-156.8179931640625 169.0469970703125,-166.95799255371094 169.0469970703125,-179.42300415039062 C169.0469970703125,-191.88900756835938 158.9040069580078,-202.0330047607422 146.43899536132812,-202.0330047607422 C133.9720001220703,-202.0330047607422 123.83100128173828,-191.88900756835938 123.83100128173828,-179.42300415039062z"></path></g></g><g opacity="1" transform="matrix(1,0,0,1,0,0)"><path fill="rgb(252,186,6)" fill-opacity="1" d=" M146.43899536132812,-181.14700317382812 C145.36099243164062,-181.14700317382812 144.3470001220703,-181.5659942626953 143.58599853515625,-182.3280029296875 C142.822998046875,-183.08900451660156 142.4029998779297,-184.10400390625 142.4029998779297,-185.18299865722656 C142.4029998779297,-187.40899658203125 144.21299743652344,-189.2209930419922 146.43899536132812,-189.2209930419922 C148.66400146484375,-189.2209930419922 150.4770050048828,-187.40899658203125 150.4770050048828,-185.18299865722656 C150.4770050048828,-185.18299865722656 154.14100646972656,-185.18299865722656 154.14100646972656,-185.18299865722656 C154.14100646972656,-188.7969970703125 151.63400268554688,-191.82899475097656 148.27099609375,-192.65199279785156 C148.27099609375,-192.65199279785156 148.27099609375,-195.54299926757812 148.27099609375,-195.54299926757812 C148.27099609375,-195.54299926757812 144.60800170898438,-195.54299926757812 144.60800170898438,-195.54299926757812 C144.60800170898438,-195.54299926757812 144.60800170898438,-192.65199279785156 144.60800170898438,-192.65199279785156 C141.24600219726562,-191.82899475097656 138.74000549316406,-188.7969970703125 138.74000549316406,-185.18299865722656 C138.74000549316406,-183.125 139.54100036621094,-181.19000244140625 140.99600219726562,-179.73699951171875 C142.44900512695312,-178.2830047607422 144.3820037841797,-177.48399353027344 146.43899536132812,-177.48399353027344 C148.66400146484375,-177.48399353027344 150.4770050048828,-175.67100524902344 150.4770050048828,-173.4459991455078 C150.4770050048828,-171.22000122070312 148.66400146484375,-169.40899658203125 146.43899536132812,-169.40899658203125 C144.21299743652344,-169.40899658203125 142.4029998779297,-171.22000122070312 142.4029998779297,-173.4459991455078 C142.4029998779297,-173.4459991455078 138.74000549316406,-173.4459991455078 138.74000549316406,-173.4459991455078 C138.74000549316406,-169.83099365234375 141.24600219726562,-166.8000030517578 144.60800170898438,-165.9759979248047 C144.60800170898438,-165.9759979248047 144.60800170898438,-163.3090057373047 144.60800170898438,-163.3090057373047 C144.60800170898438,-163.3090057373047 148.27099609375,-163.3090057373047 148.27099609375,-163.3090057373047 C148.27099609375,-163.3090057373047 148.27099609375,-165.9759979248047 148.27099609375,-165.9759979248047 C151.63400268554688,-166.8000030517578 154.14100646972656,-169.83099365234375 154.14100646972656,-173.4459991455078 C154.14100646972656,-177.6909942626953 150.68600463867188,-181.14700317382812 146.43899536132812,-181.14700317382812z"></path></g></g><g opacity="1" transform="matrix(1,0,0,1,0,0)"><g opacity="1" transform="matrix(1,0,0,1,0,0)"><g opacity="1" transform="matrix(1,0,0,1,0,0)"><path fill="rgb(252,186,6)" fill-opacity="1" d=" M32.891998291015625,-216.53399658203125 C32.891998291015625,-229.76600646972656 43.61399841308594,-240.48899841308594 56.84600067138672,-240.48899841308594 C70.07599639892578,-240.48899841308594 80.80000305175781,-229.76600646972656 80.80000305175781,-216.53399658203125 C80.80000305175781,-203.30499267578125 70.07599639892578,-192.58200073242188 56.84600067138672,-192.58200073242188 C43.61399841308594,-192.58200073242188 32.891998291015625,-203.30499267578125 32.891998291015625,-216.53399658203125z"></path></g><g opacity="1" transform="matrix(1,0,0,1,0,0)"><path fill="rgb(225,145,0)" fill-opacity="1" d=" M36.49800109863281,-216.53399658203125 C36.49800109863281,-205.31500244140625 45.625,-196.18899536132812 56.84600067138672,-196.18899536132812 C68.06500244140625,-196.18899536132812 77.19300079345703,-205.31500244140625 77.19300079345703,-216.53399658203125 C77.19300079345703,-227.75399780273438 68.06500244140625,-236.8820037841797 56.84600067138672,-236.8820037841797 C45.625,-236.8820037841797 36.49800109863281,-227.75399780273438 36.49800109863281,-216.53399658203125z"></path></g></g><g opacity="1" transform="matrix(1,0,0,1,0,0)"><path fill="rgb(252,186,6)" fill-opacity="1" d=" M56.84600067138672,-218.0850067138672 C55.875999450683594,-218.0850067138672 54.96200180053711,-218.46200561523438 54.277000427246094,-219.1479949951172 C53.59000015258789,-219.83299255371094 53.2140007019043,-220.74600219726562 53.2140007019043,-221.7169952392578 C53.2140007019043,-223.7209930419922 54.84199905395508,-225.3520050048828 56.84600067138672,-225.3520050048828 C58.8489990234375,-225.3520050048828 60.479000091552734,-223.7209930419922 60.479000091552734,-221.7169952392578 C60.479000091552734,-221.7169952392578 63.777000427246094,-221.7169952392578 63.777000427246094,-221.7169952392578 C63.777000427246094,-224.97000122070312 61.520999908447266,-227.69900512695312 58.49399948120117,-228.44000244140625 C58.49399948120117,-228.44000244140625 58.49399948120117,-231.04200744628906 58.49399948120117,-231.04200744628906 C58.49399948120117,-231.04200744628906 55.198001861572266,-231.04200744628906 55.198001861572266,-231.04200744628906 C55.198001861572266,-231.04200744628906 55.198001861572266,-228.44000244140625 55.198001861572266,-228.44000244140625 C52.172000885009766,-227.69900512695312 49.91699981689453,-224.97000122070312 49.91699981689453,-221.7169952392578 C49.91699981689453,-219.86500549316406 50.637001037597656,-218.12399291992188 51.946998596191406,-216.8159942626953 C53.255001068115234,-215.5070037841797 54.994998931884766,-214.78799438476562 56.84600067138672,-214.78799438476562 C58.8489990234375,-214.78799438476562 60.479000091552734,-213.1580047607422 60.479000091552734,-211.15499877929688 C60.479000091552734,-209.1510009765625 58.8489990234375,-207.52099609375 56.84600067138672,-207.52099609375 C54.84199905395508,-207.52099609375 53.2140007019043,-209.1510009765625 53.2140007019043,-211.15499877929688 C53.2140007019043,-211.15499877929688 49.91699981689453,-211.15499877929688 49.91699981689453,-211.15499877929688 C49.91699981689453,-207.90199279785156 52.172000885009766,-205.17300415039062 55.198001861572266,-204.43099975585938 C55.198001861572266,-204.43099975585938 55.198001861572266,-202.031005859375 55.198001861572266,-202.031005859375 C55.198001861572266,-202.031005859375 58.49399948120117,-202.031005859375 58.49399948120117,-202.031005859375 C58.49399948120117,-202.031005859375 58.49399948120117,-204.43099975585938 58.49399948120117,-204.43099975585938 C61.520999908447266,-205.17300415039062 63.777000427246094,-207.90199279785156 63.777000427246094,-211.15499877929688 C63.777000427246094,-214.97500610351562 60.667999267578125,-218.0850067138672 56.84600067138672,-218.0850067138672z"></path></g></g><g opacity="1" transform="matrix(1,0,0,1,0,0)"><g opacity="1" transform="matrix(1,0,0,1,0,0)"><g opacity="1" transform="matrix(1,0,0,1,0,0)"><path fill="rgb(252,186,6)" fill-opacity="1" d=" M-54.305999755859375,-179.4239959716797 C-54.305999755859375,-191.33200073242188 -44.654998779296875,-200.98399353027344 -32.74700164794922,-200.98399353027344 C-20.84000015258789,-200.98399353027344 -11.189000129699707,-191.33200073242188 -11.189000129699707,-179.4239959716797 C-11.189000129699707,-167.51800537109375 -20.84000015258789,-157.86700439453125 -32.74700164794922,-157.86700439453125 C-44.654998779296875,-157.86700439453125 -54.305999755859375,-167.51800537109375 -54.305999755859375,-179.4239959716797z"></path></g><g opacity="1" transform="matrix(1,0,0,1,0,0)"><path fill="rgb(225,145,0)" fill-opacity="1" d=" M-51.060001373291016,-179.4239959716797 C-51.060001373291016,-169.32699584960938 -42.84600067138672,-161.11399841308594 -32.74700164794922,-161.11399841308594 C-22.649999618530273,-161.11399841308594 -14.4350004196167,-169.32699584960938 -14.4350004196167,-179.4239959716797 C-14.4350004196167,-189.52200317382812 -22.649999618530273,-197.73699951171875 -32.74700164794922,-197.73699951171875 C-42.84600067138672,-197.73699951171875 -51.060001373291016,-189.52200317382812 -51.060001373291016,-179.4239959716797z"></path></g></g><g opacity="1" transform="matrix(1,0,0,1,0,0)"><path fill="rgb(252,186,6)" fill-opacity="1" d=" M-32.74700164794922,-180.82000732421875 C-33.619998931884766,-180.82000732421875 -34.44300079345703,-181.15899658203125 -35.058998107910156,-181.7760009765625 C-35.676998138427734,-182.39300537109375 -36.016998291015625,-183.21499633789062 -36.016998291015625,-184.08900451660156 C-36.016998291015625,-185.89199829101562 -34.54999923706055,-187.36000061035156 -32.74700164794922,-187.36000061035156 C-30.94499969482422,-187.36000061035156 -29.476999282836914,-185.89199829101562 -29.476999282836914,-184.08900451660156 C-29.476999282836914,-184.08900451660156 -26.509000778198242,-184.08900451660156 -26.509000778198242,-184.08900451660156 C-26.509000778198242,-187.01600646972656 -28.538999557495117,-189.4720001220703 -31.263999938964844,-190.13900756835938 C-31.263999938964844,-190.13900756835938 -31.263999938964844,-192.4810028076172 -31.263999938964844,-192.4810028076172 C-31.263999938964844,-192.4810028076172 -34.23099899291992,-192.4810028076172 -34.23099899291992,-192.4810028076172 C-34.23099899291992,-192.4810028076172 -34.23099899291992,-190.13900756835938 -34.23099899291992,-190.13900756835938 C-36.95500183105469,-189.4720001220703 -38.98400115966797,-187.01600646972656 -38.98400115966797,-184.08900451660156 C-38.98400115966797,-182.4219970703125 -38.334999084472656,-180.85499572753906 -37.15599822998047,-179.67799377441406 C-35.979000091552734,-178.5 -34.41299819946289,-177.85299682617188 -32.74700164794922,-177.85299682617188 C-30.94499969482422,-177.85299682617188 -29.476999282836914,-176.38400268554688 -29.476999282836914,-174.58200073242188 C-29.476999282836914,-172.7790069580078 -30.94499969482422,-171.31199645996094 -32.74700164794922,-171.31199645996094 C-34.54999923706055,-171.31199645996094 -36.016998291015625,-172.7790069580078 -36.016998291015625,-174.58200073242188 C-36.016998291015625,-174.58200073242188 -38.98400115966797,-174.58200073242188 -38.98400115966797,-174.58200073242188 C-38.98400115966797,-171.6540069580078 -36.95500183105469,-169.19900512695312 -34.23099899291992,-168.531005859375 C-34.23099899291992,-168.531005859375 -34.23099899291992,-166.37100219726562 -34.23099899291992,-166.37100219726562 C-34.23099899291992,-166.37100219726562 -31.263999938964844,-166.37100219726562 -31.263999938964844,-166.37100219726562 C-31.263999938964844,-166.37100219726562 -31.263999938964844,-168.531005859375 -31.263999938964844,-168.531005859375 C-28.538999557495117,-169.19900512695312 -26.509000778198242,-171.6540069580078 -26.509000778198242,-174.58200073242188 C-26.509000778198242,-178.02000427246094 -29.30699920654297,-180.82000732421875 -32.74700164794922,-180.82000732421875z"></path></g></g></g><g transform="matrix(0.9992524981498718,0.03865842521190643,-0.03865842521190643,0.9992524981498718,355,351)" opacity="1" style="display: block;"><g opacity="1" transform="matrix(1,0,0,1,0,0)"><path fill="rgb(252,186,6)" fill-opacity="1" d=" M183.46499633789062,272.3139953613281 C183.46499633789062,272.3139953613281 174.30999755859375,268.6759948730469 174.30999755859375,268.6759948730469 C173.593994140625,268.3909912109375 172.781005859375,268.510009765625 172.177001953125,268.9880065917969 C172.177001953125,268.9880065917969 164.44900512695312,275.09698486328125 164.44900512695312,275.09698486328125 C163.84500122070312,275.57501220703125 163.5399932861328,276.3389892578125 163.65199279785156,277.10101318359375 C163.65199279785156,277.10101318359375 165.0800018310547,286.8489990234375 165.0800018310547,286.8489990234375 C165.19200134277344,287.6109924316406 165.7010040283203,288.2550048828125 166.41700744628906,288.53900146484375 C166.41700744628906,288.53900146484375 175.5709991455078,292.177001953125 175.5709991455078,292.177001953125 C176.28700256347656,292.4620056152344 177.10000610351562,292.3429870605469 177.70399475097656,291.8659973144531 C177.70399475097656,291.8659973144531 185.43299865722656,285.7560119628906 185.43299865722656,285.7560119628906 C186.03700256347656,285.27899169921875 186.33999633789062,284.5159912109375 186.22900390625,283.75299072265625 C186.22900390625,283.75299072265625 184.802001953125,274.0039978027344 184.802001953125,274.0039978027344 C184.69000244140625,273.24200439453125 184.18099975585938,272.5989990234375 183.46499633789062,272.3139953613281z"></path></g><g opacity="1" transform="matrix(1,0,0,1,0,0)"><path fill="rgb(107,103,233)" fill-opacity="1" d=" M-272.4079895019531,-157.20799255371094 C-272.4079895019531,-157.20799255371094 -261.5899963378906,-143.06900024414062 -261.5899963378906,-143.06900024414062 C-260.4179992675781,-141.53700256347656 -258.02899169921875,-141.8489990234375 -257.28900146484375,-143.6300048828125 C-257.28900146484375,-143.6300048828125 -250.4530029296875,-160.0679931640625 -250.4530029296875,-160.0679931640625 C-249.71200561523438,-161.84800720214844 -251.17599487304688,-163.76300048828125 -253.08799743652344,-163.51300048828125 C-253.08799743652344,-163.51300048828125 -270.7430114746094,-161.21299743652344 -270.7430114746094,-161.21299743652344 C-272.65399169921875,-160.96400451660156 -273.5799865722656,-158.73899841308594 -272.4079895019531,-157.20799255371094z"></path></g><g opacity="1" transform="matrix(1,0,0,1,0,0)"><path fill="rgb(66,62,175)" fill-opacity="1" d=" M236.35400390625,-295.4949951171875 C236.35400390625,-295.4949951171875 220.85899353027344,-286.7309875488281 220.85899353027344,-286.7309875488281 C219.17999267578125,-285.7829895019531 219.1580047607422,-283.3710021972656 220.82000732421875,-282.39300537109375 C220.82000732421875,-282.39300537109375 236.1580047607422,-273.3559875488281 236.1580047607422,-273.3559875488281 C237.82000732421875,-272.37701416015625 239.91799926757812,-273.56298828125 239.93499755859375,-275.4909973144531 C239.93499755859375,-275.4909973144531 240.09100341796875,-293.2929992675781 240.09100341796875,-293.2929992675781 C240.10899353027344,-295.2229919433594 238.0330047607422,-296.44500732421875 236.35400390625,-295.4949951171875z"></path></g></g><g transform="matrix(1,0,0,1,348.5,361.5)" opacity="1" style="display: block;"><g opacity="1" transform="matrix(1,0,0.0005532299401238561,1,-0.1576690673828125,0)"><g opacity="1" transform="matrix(1,0,0,1,0,0)"><g opacity="1" transform="matrix(1,0,0,1,0,0)"><path fill="rgb(247,211,201)" fill-opacity="1" d=" M-86.19100189208984,267.22100830078125 C-86.19100189208984,265.0660095214844 -86.19100189208984,263.3110046386719 -86.19100189208984,263.3110046386719 C-86.19100189208984,263.3110046386719 -75.50599670410156,263.3110046386719 -75.50599670410156,263.3110046386719 C-75.36799621582031,266.9549865722656 -74.69100189208984,268.9079895019531 -74.27999877929688,270.4209899902344 C-77.05899810791016,271.4880065917969 -81.1240005493164,268.73199462890625 -86.19100189208984,267.22100830078125z"></path></g><g opacity="1" transform="matrix(1,0,0,1,0,0)"><path fill="rgb(32,25,111)" fill-opacity="1" d=" M-86.19100189208984,267.22100830078125 C-81.1240005493164,268.73199462890625 -77.05899810791016,271.4880065917969 -74.27999877929688,270.4209899902344 C-72.80899810791016,271.4880065917969 -51.13800048828125,279.2820129394531 -48.93199920654297,280.7919921875 C-46.67499923706055,282.3370056152344 -47.00600051879883,284.7330017089844 -49.39500045776367,284.7330017089844 C-52.888999938964844,284.7330017089844 -81.66300201416016,283.4670104980469 -81.66300201416016,283.4670104980469 C-82.24800109863281,284.1000061035156 -82.72100067138672,284.7330017089844 -82.72100067138672,284.7330017089844 C-82.72100067138672,284.7330017089844 -89.2959976196289,284.7330017089844 -89.2959976196289,284.7330017089844 C-91.25700378417969,281.3330078125 -90.72699737548828,271.1310119628906 -86.19100189208984,267.22100830078125z"></path></g></g><g opacity="1" transform="matrix(1,0,0,1,0,0)"><g opacity="1" transform="matrix(1,0,0,1,0,0)"><path fill="rgb(247,211,201)" fill-opacity="1" d=" M-156.00399780273438,267.22100830078125 C-156.00399780273438,265.0660095214844 -156.00399780273438,263.3110046386719 -156.00399780273438,263.3110046386719 C-156.00399780273438,263.3110046386719 -145.3179931640625,263.3110046386719 -145.3179931640625,263.3110046386719 C-145.17999267578125,266.9549865722656 -144.5030059814453,268.9079895019531 -144.09300231933594,270.4209899902344 C-146.8719940185547,271.4880065917969 -150.93699645996094,268.73199462890625 -156.00399780273438,267.22100830078125z"></path></g><g opacity="1" transform="matrix(1,0,0,1,0,0)"><path fill="rgb(32,25,111)" fill-opacity="1" d=" M-156.00399780273438,267.22100830078125 C-150.93699645996094,268.73199462890625 -146.8719940185547,271.4880065917969 -144.09300231933594,270.4209899902344 C-142.6219940185547,271.4880065917969 -120.95099639892578,279.2820129394531 -118.74500274658203,280.7919921875 C-116.48799896240234,282.3370056152344 -116.81800079345703,284.7330017089844 -119.20800018310547,284.7330017089844 C-122.70099639892578,284.7330017089844 -151.4759979248047,283.4670104980469 -151.4759979248047,283.4670104980469 C-152.05999755859375,284.1000061035156 -152.53399658203125,284.7330017089844 -152.53399658203125,284.7330017089844 C-152.53399658203125,284.7330017089844 -159.10899353027344,284.7330017089844 -159.10899353027344,284.7330017089844 C-161.0709991455078,281.3330078125 -160.53900146484375,271.1310119628906 -156.00399780273438,267.22100830078125z"></path></g></g><g opacity="1" transform="matrix(1,0,0,1,0,0)"><path fill="rgb(66,62,175)" fill-opacity="1" d=" M-149.1479949951172,42.54600143432617 C-154.45599365234375,62.05099868774414 -158.87899780273438,239.69000244140625 -158.87899780273438,263.3110046386719 C-154.45599365234375,263.3110046386719 -142.29200744628906,263.3110046386719 -142.29200744628906,263.3110046386719 C-139.8820037841797,249.14500427246094 -121.2020034790039,133.76300048828125 -117.22100067138672,106.76200103759766 C-122.52899932861328,80.2040023803711 -149.1479949951172,42.54600143432617 -149.1479949951172,42.54600143432617z"></path></g><g opacity="1" transform="matrix(1,0,0,1,0,0)"><path fill="rgb(86,82,204)" fill-opacity="1" d=" M-79.25900268554688,42.54600143432617 C-76.6050033569336,63.81999969482422 -72.62699890136719,229.07400512695312 -72.62699890136719,263.3110046386719 C-77.49199676513672,263.3110046386719 -90.08300018310547,263.3110046386719 -90.08300018310547,263.3110046386719 C-92.44200134277344,241.12899780273438 -114.552001953125,134.3520050048828 -129.4250030517578,106.76200103759766 C-140.0570068359375,87.03900146484375 -152.38099670410156,73.46299743652344 -149.1479949951172,42.54600143432617 C-145,37 -137.99099731445312,32.196998596191406 -113.5,33.04600143432617 C-86,34 -79.25900268554688,42.54600143432617 -79.25900268554688,42.54600143432617z"></path></g><g opacity="1" transform="matrix(0.9999996423721313,-0.0008298447355628014,0.0008298447355628014,0.9999996423721313,-0.0336456298828125,-0.09624862670898438)"><g opacity="1" transform="matrix(0.9999914169311523,0.004149212036281824,-0.004149212036281824,0.9999914169311523,-0.3142547607421875,0.47443389892578125)"><g opacity="1" transform="matrix(1,0,0,1,0,0)"><path fill="rgb(248,216,208)" fill-opacity="1" d=" M-125.31400299072266,-96.89700317382812 C-124.52300262451172,-93.13300323486328 -122.20500183105469,-79.822998046875 -123.12000274658203,-73.91000366210938 C-123.96099853515625,-68.2040023803711 -121.73899841308594,-64.10399627685547 -118.04499816894531,-63.88199996948242 C-113.87799835205078,-63.63199996948242 -104.86599731445312,-68.34400177001953 -104.49600219726562,-71.02100372314453 C-104.1259994506836,-73.697998046875 -107.60800170898438,-79.34600067138672 -105.46099853515625,-83.87300109863281 C-103.1240005493164,-88.8010025024414 -97.9520034790039,-82.88200378417969 -94.93599700927734,-90.88999938964844 C-91.41400146484375,-100.22899627685547 -91.6240005493164,-118.03900146484375 -96.28900146484375,-122.61000061035156 C-101.50800323486328,-127.72699737548828 -111.56199645996094,-133.6699981689453 -123.73600006103516,-125.05899810791016 C-133.6699981689453,-118.03500366210938 -126.91999816894531,-104.5459976196289 -125.31400299072266,-96.89700317382812z"></path></g><g opacity="1" transform="matrix(1,0,0,1,0,0)"><path fill="rgb(32,25,111)" fill-opacity="1" d=" M-100.71499633789062,-108.63500213623047 C-97.80400085449219,-108.83899688720703 -98.875,-114.03900146484375 -98.875,-116.8550033569336 C-98.875,-118.84500122070312 -96.9219970703125,-120.25199890136719 -94.7020034790039,-120.21900177001953 C-86.43900299072266,-120.09500122070312 -82.23699951171875,-131.12899780273438 -87.84500122070312,-135.12100219726562 C-93.45899963378906,-139.11300659179688 -97.7040023803711,-132.5959930419922 -101.71499633789062,-133.5659942626953 C-106.38999938964844,-134.697998046875 -106.05999755859375,-140.31399536132812 -112.76699829101562,-139.1580047607422 C-118.96199798583984,-138.0919952392578 -115.63700103759766,-132.5260009765625 -119.51599884033203,-131.15899658203125 C-123.51300048828125,-129.75 -129.98300170898438,-134.66200256347656 -134.43299865722656,-127.83100128173828 C-137.73399353027344,-122.76200103759766 -131.39100646972656,-118.47200012207031 -131.5330047607422,-113.13200378417969 C-131.6219940185547,-109.7979965209961 -134.91900634765625,-95.88200378417969 -125.697998046875,-93.31300354003906 C-116.23200225830078,-90.6760025024414 -108.24099731445312,-99.08899688720703 -109.02799987792969,-108.4020004272461 C-109.34700012207031,-112.1760025024414 -108.33899688720703,-115.02799987792969 -106.45800018310547,-114.95600128173828 C-103.65399932861328,-114.8479995727539 -104.875,-108.33799743652344 -100.71499633789062,-108.63500213623047z"></path></g></g><g opacity="1" transform="matrix(1,0,0,1,0,0)"><path fill="rgb(237,159,0)" fill-opacity="1" d=" M-142.281005859375,-66.18099975585938 C-158.87899780273438,-35.34700012207031 -162.59100341796875,-17.243999481201172 -162.44400024414062,-2.1730000972747803 C-162.27200317382812,15.498000144958496 -144.16099548339844,41.05799865722656 -144.16099548339844,41.05799865722656 C-143.5709991455078,23.954999923706055 -149.9080047607422,-37.85200119018555 -142.281005859375,-66.18099975585938z"></path></g><g opacity="1" transform="matrix(1,0,0,1,0,0)"><path fill="rgb(252,186,6)" fill-opacity="1" d=" M-79.25900268554688,42.54600143432617 C-80.14399719238281,25.7810001373291 -79.7030029296875,-15.713000297546387 -79.94100189208984,-22.961999893188477 C-80.36399841308594,-35.82899856567383 -74.18000030517578,-55.82099914550781 -81.51000213623047,-63.96099853515625 C-86.51300048828125,-69.51699829101562 -91.88099670410156,-73.75800323486328 -100.09300231933594,-74.41899871826172 C-112.06999969482422,-75.38200378417969 -143.63499450683594,-81.20099639892578 -147.42100524902344,-53.262001037597656 C-151.06399536132812,-26.37700080871582 -151.802001953125,33.2140007019043 -149.1479949951172,42.54600143432617 C-144.74899291992188,42.54600143432617 -130.29400634765625,45.54600143432617 -115.5,45.54600143432617 C-97.56900024414062,45.54600143432617 -79.25900268554688,42.54600143432617 -79.25900268554688,42.54600143432617z"></path></g><g opacity="1" transform="matrix(0.9999861717224121,0.005255659576505423,-0.005255659576505423,0.9999861717224121,-0.30605316162109375,0.464324951171875)"><g opacity="1" transform="matrix(0.9995701909065247,0.029316982254385948,-0.029316982254385948,0.9995701909065247,0.0311279296875,1.8771464824676514)"><g opacity="1" transform="matrix(0.9999831318855286,-0.005808881018310785,0.005808881018310785,0.9999831318855286,0.2738227844238281,-0.22298812866210938)"><path fill="rgb(247,211,201)" fill-opacity="1" d=" M-41.902000427246094,-49.26300048828125 C-40.65800094604492,-51.862998962402344 -40.2140007019043,-58.98699951171875 -38.457000732421875,-62.832000732421875 C-35.643001556396484,-68.98899841308594 -24.326000213623047,-76.0770034790039 -22.16900062561035,-75.10199737548828 C-20.20800018310547,-74.21600341796875 -29.545698165893555,-68.77239227294922 -30.13669776916504,-66.75439453125 C-28.303997039794922,-65.41014862060547 -22.21299934387207,-60.099998474121094 -24.576000213623047,-56.555999755859375 C-26.93899917602539,-53.012001037597656 -28.56100082397461,-50.5359992980957 -30.847000122070312,-49.435001373291016 C-32.70600128173828,-48.540000915527344 -34.117000579833984,-45.0099983215332 -34.117000579833984,-45.0099983215332 C-34.117000579833984,-45.0099983215332 -36.75,-42.625 -39.82400131225586,-43.9900016784668 C-42.47700119018555,-45.167999267578125 -41.902000427246094,-49.26300048828125 -41.902000427246094,-49.26300048828125z"></path></g><g opacity="1" transform="matrix(1,0,0,1,0,0)"><path fill="rgb(255,208,62)" fill-opacity="1" d=" M-33.025001525878906,-44.41299819946289 C-33.025001525878906,-44.41299819946289 -42.79899978637695,-49.75400161743164 -42.79899978637695,-49.75400161743164 C-42.79899978637695,-49.75400161743164 -62.1349983215332,-21.764999389648438 -62.1349983215332,-21.764999389648438 C-62.1349983215332,-21.764999389648438 -72.20700073242188,-7.561999797821045 -71.6510009765625,1.7289999723434448 C-71.2509994506836,8.406000137329102 -64.5,13.75 -59.21799850463867,8.668999671936035 C-51.02899932861328,-3.572999954223633 -33.025001525878906,-44.41299819946289 -33.025001525878906,-44.41299819946289z"></path></g></g><path fill="rgb(255,208,62)" fill-opacity="1" d=" M-62.1349983215332,-21.764999389648438 C-65.65899658203125,-33.37900161743164 -70.7249984741211,-44.59199905395508 -74.08000183105469,-51.82400131225586 C-81.41500091552734,-67.63700103759766 -88.05999755859375,-70.07099914550781 -93.8740005493164,-68.08799743652344 C-99.46700286865234,-66.18099975585938 -97.05000305175781,-50.66600036621094 -95.33799743652344,-42.83700180053711 C-92.33300018310547,-29.094999313354492 -81,-7.560999870300293 -75.88600158691406,1.4140000343322754 C-71.35600280761719,9.36400032043457 -63,14.875 -58.21799850463867,7.294000148773193 C-54.125,-1.125 -56,-3.5 -62.1349983215332,-21.764999389648438z"></path></g></g></g></g></g></svg>