<svg xmlns="http://www.w3.org/2000/svg" viewBox="0 0 2000 2000"><path fill="#f4f4f4" d="M1330.055 1252.962c-73.5 79.648-116.816 208.608-76.662 246.099 31.846 29.734 87.249-25.087 248.852-51.079 142.188-22.869 193.7 4.386 215.084-30.186 37.807-61.126-60.912-247.081-198.565-259.068-94.182-8.2-165.1 68.65-188.709 94.234z" class="colorF4F4F4 svgShape"/><path fill="#f4f4f4" d="M397.275 676.139c-270.514 73.307-314.596 563.24 21.579 829.668 149.743 118.676 412.353 194.56 580.578 108.116 172.457-88.619 93.815-269.777 298.231-424.245 186.687-141.071 350.941-64.526 452.692-196.026 95.711-123.694 44.484-318.873-72.42-457.065-229.578-271.383-507.038-114.067-667.327 3.096-135.772 99.243-96.228 170.46-208.594 198.405-164.199 40.838-285.668-94.216-404.739-61.949z" class="colorF4F4F4 svgShape"/><path fill="#ffc648" d="M237 1296c-8.654-23.701-17.195-52.783-5-82 13.463-32.255 50.427-60.429 82-55 35.167 6.047 32.928 48.5 84 87 3.33 2.51 74.31 54.954 113 32 34.882-20.695 8.865-82.12 61-159 11.091-16.355 29.044-38.313 36-35 5.672 2.701 1.61 21.05-8 72-13.741 72.849-11.37 66.787-14 76-18.566 65.046-73.323 78.177-66 110 3.438 14.94 14.757 12.856 31 38 12.918 19.996 24.953 51.026 21 74-8.034 46.69-86.608 86.274-152 78-101.522-12.845-147.217-137.996-183-236zM1047 486c-48.107 46.995-42.558 118.86-5 163 45.515 53.492 127.369 33.642 194 10 39.694-14.084 85.994-31.219 95-69 7.754-32.529-16.209-63.284-23-72-51.737-66.403-187.479-103.82-261-32z" class="colorFFC648 svgShape"/><path fill="#f4f4f4" d="M1092 497c-7.091 10.763 30.894 34.471 66 88 6.641 10.126 9.51 15.725 16 17 17.151 3.369 25.816-30.106 62-50 27.9-15.339 54.077-12.661 54-18-.057-3.969-14.522-5.774-39-11-49.58-10.585-74.369-15.877-100-25-7.595-2.703-31.925-11.631-54-4-3.01 1.041-4.19 1.771-5 3z" class="colorF4F4F4 svgShape"/><path fill="#5220dc" d="M1764 1276c-13.36 15.06-48.49 12.69-67-4-17.22-15.53-15.54-39.39-16-76-.31-24.66-1.85-148.61-19-152-12.96-2.56-49.31 60.89-56 137-5.45 62.08 11.81 98.7 16.54 130.86.2 1.36.38 2.72.54 4.07 1.71 15.08.27 29.36-8.08 45.07-2.32 4.37-5.03 8.57-8.05 12.56a99.478 99.478 0 0 1-4.8 5.89c-27.99 31.9-76.01 48.6-104.15 34.55-23.3-11.64-29.87-43.76-43-108-14-68.5-2.86-72.53-16-97-31.84-59.32-101.93-44.31-122-95-2.22-5.59-3.51-11.2-4.1-16.78-.2-1.81-.32-3.61-.36-5.41-1.14-39.02 29.14-75.41 17.63-88.66-.35-.41-.74-.79-1.17-1.15-.8-.67-1.7-1.23-2.69-1.67-17-7.67-59.97 17.29-89.31 42.67-57.16 49.43-62.07 99.96-93 101-21.16.71-44.78-22.07-50-44-18.11-76.07 176.09-179.7 213-199 14.76-5.21 32.61-10.89 34-8 1.93 4-31.92 15.32-34 35-2.8 26.54 52.69 63.71 81 51 7.74-3.48 7.18-7.86 26-26 17.94-17.29 26.91-25.93 36-26 17.85-.14 31.62 26.99 43 50 25.69 51.97 23.1 84.32 35 86 12.64 1.78 29.54-32.89 39-64 16.42-54-7.05-93.41 11-106 22.05-15.37 76.5 29.89 79 32 9.87 8.33 39.94 35.54 61 94 20.87 57.93 4.69 68.3 22 143 16.27 70.24 38.93 97.16 24 114z" class="color5220DC svgShape"/><path fill="#f9f9f9" d="M1606.95 1373.56a99.478 99.478 0 0 1-4.8 5.89c1.44-6.47.99-11.79-1.39-15.96-5.2-9.13-18.05-9.78-32.93-10.53-16.84-.85-35.93-1.82-47.87-16.18-11.2-13.48-8.15-28.9-4.61-46.76 3.54-17.9 7.55-38.18-1.71-61.79-6.14-15.63-13.49-21.14-24.62-29.5-9.8-7.35-21.98-16.49-38.06-35.96-22.64-27.4-33.13-51.5-40.79-69.09-7.96-18.29-13.22-30.38-26.24-34.26-17.92-5.34-41.75 7.36-71.03 37.8-.2-1.81-.32-3.61-.36-5.41 29.51-30.06 53.38-41.94 72.53-36.23 14.8 4.42 20.66 17.88 28.77 36.51 7.56 17.37 17.92 41.16 40.2 68.14 15.78 19.1 27.75 28.08 37.38 35.3 11.26 8.45 19.39 14.56 25.94 31.24 9.7 24.7 5.56 45.59 1.91 64.03-3.47 17.55-6.22 31.41 3.77 43.42 10.81 13.02 28.19 13.89 45 14.74 15.38.78 29.91 1.52 36.2 12.55 1.96 3.44 2.87 7.46 2.71 12.05z" class="colorF9F9F9 svgShape"/><path fill="#f9f9f9" d="M1623.08 1315.93c-4.61-.51-9.6-.76-14.8-1.03-19.78-1-42.19-2.13-56.16-18.93-13.09-15.76-9.51-33.85-5.36-54.8 4.18-21.14 8.93-45.1-2.03-73.02-13.95-35.54-18.17-46.27-73.35-76.75-43.23-23.88-52.1-46.47-59.23-64.63-3.88-9.87-7.23-18.4-15.43-25.23-5.99-4.99-19.68-7.3-34.87-5.88-6.93.65-18.1 2.47-31.68 7.49-.35-.41-.74-.79-1.17-1.15-.8-.67-1.7-1.23-2.69-1.67 15.12-5.88 27.61-7.94 35.17-8.65 16.45-1.54 30.93 1.06 37.8 6.78 8.98 7.49 12.51 16.46 16.59 26.85 6.89 17.56 15.48 39.4 57.45 62.59 56.44 31.17 61.15 43.17 75.13 78.79 11.39 29.01 6.52 53.58 2.23 75.26-4.11 20.76-7.36 37.17 4.52 51.46 12.84 15.46 34.33 16.54 53.28 17.5 4.82.24 9.56.48 14.06.95.2 1.36.38 2.72.54 4.07z" class="colorF9F9F9 svgShape"/><path fill="#5220dc" d="M677 1003c-6.34 10.75-14.89 15.9-27 23-.14.08-.29.17-.43.25l-4.43 2.6c-17.58 10.29-32.02 18.68-43.93 25.43-1.5.85-2.95 1.67-4.37 2.47-21.13 11.87-33.68 18.11-41.74 20.45-1.34.39-2.55.67-3.66.85-4.4.72-7.16-.13-9.44-2.05-3.83-3.22-1.5-5.44-6-16-1.54-3.62-3.27-6.77-5.11-9.54-.66-1-1.33-1.94-2.02-2.85-7.77-10.23-17.04-14.9-23.38-21.18-.79-.77-1.53-1.57-2.22-2.41-1.88-2.29-3.36-4.87-4.27-8.02-6.28-21.67 21.35-46.78 26-51 2.22-2.02 4.46-3.84 6.72-5.5 1.55-1.14 3.11-2.2 4.69-3.19 11.62-7.31 24.13-10.93 39.07-14.38 1.19-.28 2.41-.56 3.64-.84 1.6-.36 3.22-.72 4.88-1.09 11.2-2.48 21.63-4.8 31.21-6.52 1.2-.22 2.37-.43 3.54-.63 12.83-2.16 24.08-3.15 33.57-1.9 1.04.13 2.06.3 3.05.49 7.92 1.52 14.5 4.81 19.63 10.56 2.02 2.27 3.72 4.8 5.11 7.54.61 1.19 1.16 2.43 1.65 3.7 6.03 15.45 3.56 35.67-4.76 49.76z" class="color5220DC svgShape"/><path fill="#f9f9f9" d="m536.41 956.31-30.92 70.12c-.79-.77-1.53-1.57-2.22-2.41l28.45-64.52c1.55-1.14 3.11-2.2 4.69-3.19zM579.12 941.09l-48.23 109.37c-.66-1-1.33-1.94-2.02-2.85l46.61-105.68c1.19-.28 2.41-.56 3.64-.84zM618.75 932.85 555.1 1077.2c-1.34.39-2.55.67-3.66.85l63.77-144.57c1.2-.22 2.37-.43 3.54-.63zM655.37 931.44l-54.16 122.84c-1.5.85-2.95 1.67-4.37 2.47l55.48-125.8c1.04.13 2.06.3 3.05.49zM681.76 953.24l-32.19 73.01-4.43 2.6 34.97-79.31c.61 1.19 1.16 2.43 1.65 3.7z" class="colorF9F9F9 svgShape"/><g fill="#18224c" class="color18224C svgShape"><path d="M680.9 1128.42v.01l.01-.01h-.01zm796.48-473.19c-12.57-28.28-25.34-57.14-51.27-64.25-5.37-1.47-11.27-2-17.42-2-8.47 0-17.45 1.01-26.21 1.99-8.43.94-16.65 1.86-24.07 1.86-6.33 0-12.01-.67-16.71-2.53-7.71-3.04-12.93-9.34-16.81-16.75-3.45-6.6-5.81-14.01-7.9-20.64-1.66-5.21-3.17-9.98-4.95-13.39-2.65-5.07-5.99-7.23-10.11-7.23-.72 0-1.47.08-2.23.21-2.68-4.67-7.19-7.3-13.3-8.83-5.84-1.46-13.18-2.06-21.72-2.76-12.32-1.02-27.27-2.25-44.32-6.52-10.94-2.73-22.74-6.71-34.77-10.77-22.74-7.67-46.31-15.62-65.81-15.62-10.44 0-19.81 2.28-27.28 8.16-.54.43-1.06.91-1.58 1.38-.02 0-.04-.01-.06-.01-.57 0-1.13.06-1.68.19-8.3 1.87-14.99 18.22-21.21 36.65-1.74 5.15-3.46 10.54-5.17 15.91-1.72 5.36-3.43 10.72-5.16 15.84-.64 1.9-1.28 3.75-1.91 5.59-8.85 25.68-15.8 46.09 14.79 65.74 1.22 5.35 2.52 9.18 3.64 12.47 3.1 9.15 4.84 14.09-.78 37.42-4.07 16.87-11.91 43.05-21.36 67.81-1.19-.03-2.39-.14-3.56-.14-15.11 0-29.47 2.37-39.53 7.6-21.57 11.23-23.05 35.39-15.75 49.44 3.35 6.42 8.64 10.94 14.9 10.94 2.64 0 5.39-.81 8.17-2.56 12.31-7.77 25.7-34.71 36.84-63.68 12.95.41 26.24 2.41 37.7 5.94 21.12 6.49 35.13 17.47 30.97 30.99-1.57 5.11-5.73 10.72-11.85 16.71-16.01 15.65-44.86 33.32-73.09 50.6-22.08 13.51-43.68 26.77-58.38 38.62-7.86-21.95-16.91-42.77-26.19-60.19-22.21-41.7-45.83-64.54-71.46-64.54-7.29 0-14.7 1.86-22.22 5.61-5.21 2.6-10.47 6.1-15.8 10.28-13.87 10.91-28.28 26.51-43.38 42.83-16.78 18.16-34.42 37.24-53.23 52.03-23.63 18.56-49.13 30.36-74.2 38.3-3.94-4.69-8.35-7.16-12.53-7.16-.08 0-.15.01-.22.01-5.89.12-10.58 5.05-12.52 14.03-10.98 2.54-21.71 4.5-31.99 6.14-10.09 1.62-19.73 2.92-28.79 4.15-27.62 3.75-50.06 6.76-62.65 15.66-4.18 2.95-7.26 6.54-9.65 10.14-2.4 3.6-4.11 7.22-5.53 10.24-2.34 4.94-3.65 7.38-5.29 7.38-.51 0-1.2-.23-2.16-1-.24-.19-.52-.49-.77-.74a.5.5 0 0 1-.08-.07c-2.09-2.01-4.71-5.65-7.7-10.58-.57-9.16-1.44-18.06-2.7-25.49-3.18-18.67-8.8-28.22-15.68-39.87-2.44-4.14-5.03-8.54-7.74-13.73-1.64-3.14-3.34-6.59-5.09-10.17-1.9-3.86-3.88-7.9-5.96-11.88-6.42-12.29-13.99-24.47-23.58-30.02-7.87-13.01-17.25-24.39-29.39-32.69-13.43-9.18-30.19-14.61-46.89-14.61-18.04 0-36.01 6.4-49.6 21.2-2.03-9.89-7.44-19.24-16.23-27.07-9.86-8.78-24.04-15.72-36.67-15.72-12.98 0-24.16 7.34-27.28 26.82-4.37 27.32 7.16 79.88 19.33 109.26-2.97 4.77-5.54 9.82-7.39 15.3-10.65 31.49.77 75.88 21.4 103.27 18.28 24.27 43.87 35.32 61.68 35.32 2.34 0 4.56-.19 6.61-.57 1.61-.3 3.1-.75 4.5-1.27 3.26 15.27 5.86 32.51 4.35 45.02-1.37 11.33-6.12 18.78-10.9 24.27-1.64 1.89-3.27 3.52-4.81 5.03-1.5 1.1-3.05 2.25-4.74 3.51-2.24 1.66-4.65 3.46-7.28 5.37-2.85 2.06-5.95 4.26-9.24 6.58-28.9 20.46-72.47 51.21-77.6 89.82-5.7 42.94 36.2 95.19 66.32 131.9 30.23 36.86 49.18 58.68 75.62 84.79 25.83 25.5 59.17 55.5 94.04 55.5.7 0 1.39-.01 2.09-.04 17.74-.62 35.74-9.14 52.63-21.4 16.89-12.27 32.67-28.28 45.96-43.86 1.52-.04 3.02-.13 4.45-.38 11.61-2.02 19.4-11.3 17.84-28.73 14.79-21.56 26.1-43.43 36.36-67.99 6.08-14.56 11.83-30.07 17.36-44.98 7.93-21.43 15.42-41.62 22.84-56.21 4.59-9.01 9.15-15.89 13.44-21.42 4.21-5.44 8.17-9.6 11.64-13.24 2.67-2.82 5.08-5.35 7.08-7.93 3.2-4.13 5.3-8.33 7.4-12.52 2.64-5.26 5.27-10.52 10.09-15.83 7.29-8.02 19.59-16.19 32.8-24.44-5.29 5.43-11.42 10.77-17.07 15.67-6.02 5.23-11.5 9.98-14.62 13.77-6.09 7.4-3.33 11.39-.27 15.69.91 1.29 1.83 2.59 2.58 4.05.73 1.42 1.3 3.01 1.9 4.69.61 1.7 1.25 3.48 2.09 5.12 2.01 3.94 5.2 7.09 11.88 7.13h.12c11.88 0 35-9.81 45.34-18.81 10.77-9.37 7.98-18.06 1.72-26.81-6.2-8.66-16.03-17.76-25.75-26.77 0 0-.01 0-.02-.01.39-.49.8-.99 1.16-1.48 4.82-6.63 7.45-13.27 7.45-18.18 0-4.53-2.31-7.77-7.15-7.77-1.53 0-3.28.33-5.25 1-1.7.57-3.59 1.43-5.62 2.48 5.25-7.39 9.16-15.47 9.16-20.83 0-3.68-1.89-6.24-6.18-6.24-1.38 0-2.99.26-4.84.8-5.78 1.67-14.33 6.16-22.98 11.25 6.1-4.47 12.04-8.92 16.71-12.57 16.49-12.94 17.42-16.34 15.97-21.56-.97-3.52-2.98-8.07-11.18-8.07-.62 0-1.3.04-1.99.1.3-.33.61-.66.87-.99 1.32-1.72 1.95-3.54 1.95-5.37 0-7.97-11.62-14.75-23.72-14.75-.99 0-1.99.12-2.99.21 1.3-.75 2.63-1.55 4.01-2.37 8.29-4.98 18.37-11.02 32.73-12.69 2.96-.34 6.1-.49 9.39-.49 3.93 0 8.07.22 12.36.62 17.23 1.6 36.78 6.01 54.66 10.05 14.9 3.36 28.67 6.47 38.83 7.42 2.45.23 4.69.33 6.75.33 11.11 0 16.88-2.98 21.09-5.31 11.52 16.05 23.89 29.45 36.33 37.69 10.37 6.87 20.8 10.22 30.56 10.22 24.56 0 44.15-21.16 47.57-58.85 3.18-35.16-7.67-85-23.7-130.22 14.57-11.83 36.27-25.16 58.65-38.86 28.16-17.24 57.2-35 73.36-50.81 6.18-6.04 10.57-11.88 12.26-17.37 4.65-15.12-11.15-26.53-32.01-32.95-11.44-3.52-24.66-5.53-37.58-5.98 9.45-24.81 17.22-50.87 21.23-67.51 5.68-23.57 3.96-28.81.74-38.28-.99-2.92-2.12-6.29-3.2-10.73 34.5 21.02 113.01 41.45 149.71 50.46 15.39 3.78 23.6 5.59 28.06 5.59 4.11 0 5.4-1.58 5.96-4.41.14-.71.25-1.51.35-2.35.14-1.07.29-2.24.55-3.54.81-4.05 2.67-9.36 5.38-16.15 1.86-4.67 4.11-10.02 6.68-16.11 3.37-8.01 7.29-17.31 11.55-28.01 12.12-30.39 27.41-72.88 19.97-90.11v-.01c.42-.05.88-.19 1.28-.19 3.39 0 6.26 1.69 8.72 6.39 1.71 3.25 3.17 7.87 4.84 13.14 2.09 6.6 4.48 14.14 8.02 20.89 3.96 7.57 9.41 14.24 17.61 17.48 4.96 1.96 10.87 2.63 17.29 2.63 7.52 0 15.83-.93 24.25-1.87 8.77-.98 17.67-1.97 26.03-1.97 6.07 0 11.82.52 17.01 1.94 25.06 6.87 37.56 34.84 50.25 63.38.18.39.64.57 1.04.39.39-.17.57-.63.39-1.03zM1015.41 819.1c-2.56 1.62-5.03 2.32-7.33 2.32-5.43 0-10.3-3.93-13.51-10.1-7.01-13.48-5.53-36.59 15.08-47.32 9.74-5.06 23.81-7.42 38.81-7.42.98 0 1.98.09 2.97.11-11.01 28.56-24.13 54.91-36.02 62.41zm-356.17 99.49c.07 0 .13-.01.19-.01 3.32 0 7.09 1.94 10.64 5.94-7.19 2.22-14.34 4.14-21.4 5.81 1.94-7.89 6.11-11.65 10.57-11.74zm-11.01 13.71c7.6-1.78 15.31-3.84 23.07-6.26 1.84 2.36 3.61 5.24 5.19 8.8 10.3 23.29 12 71.09 1.19 97.93-14.36-22.38-29.62-66.09-30.15-90.82-.08-3.7.2-6.87.7-9.65zm-30.18 130.84c-.53-.65-1.09-1.24-1.66-1.8 1.04.2 2.02.4 3.15.58 4.07.63 8.66 1.09 13.48 1.09 15.99 0 34.6-5.06 44.63-25.6.13-.26.24-.56.36-.83 2.23 3.21 4.43 5.9 6.54 7.88 3.16 2.97 6.19 4.4 9.27 4.78-12.23 6.18-23.77 17.47-32.5 27.01-8.81 9.62-14.93 17.68-20.66 28.4-2.74 1.56-6.59 3.98-10.87 6.98 3.57-7.19-2.01-36.67-11.74-48.49zm-10.41-3.63c.37.08.68.14 1.06.23 1.14.26 2.44.55 3.74.83 1.45.82 2.86 2.08 4.21 3.72 10.48 12.72 14.88 44.01 11.14 47.09a.69.69 0 0 1-.45.16c-5.48 0-21.91-30.88-26.99-44.98-.57-1.59-.95-2.88-1.2-3.95 3.02-1.81 5.86-2.97 8.49-3.1zm-8.79 1.18c0-.11-.02-.25-.02-.35 0-1.48.53-1.95 2.22-1.95.59 0 1.29.07 2.11.19l.13.03c-1.46.52-2.93 1.22-4.44 2.08zm-98.83-75.43c.93.65 1.85 1.08 2.77 1.08 3.1 0 4.93-4.2 6.93-8.43 2.86-6.05 6.66-14.08 14.59-19.68 12.13-8.57 33.99-11.56 61.84-15.33 9.06-1.23 18.72-2.54 28.84-4.16 10.07-1.61 20.59-3.53 31.37-6-.45 2.77-.71 5.81-.64 9.25.54 25.34 16.28 70.29 31.11 92.77-.28.61-.52 1.27-.8 1.86-9.61 19.67-27.38 24.58-43.01 24.58-4.71 0-9.2-.45-13.2-1.07-2.5-.39-4.73-.84-6.83-1.29-.46-.24-.91-.47-1.39-.64-1.11-.39-2.26-.57-3.42-.57-.13 0-.27.05-.41.05-1.6-.36-3.09-.69-4.34-.88-.86-.14-1.66-.22-2.38-.22-2.42 0-4.03 1.03-4.03 3.76 0 .37.13.89.19 1.33-4.07 2.57-8.26 6.04-12.45 9.5-9.18 7.6-18.43 15.18-26.99 15.18-.08 0-.15 0-.23-.01-13.18-.21-25.32-18.63-34.92-33.35-3.2-4.91-6.11-9.36-8.61-12.36-3.89-4.65-6.94-5.97-9.42-5.97-1.32 0-2.39.38-3.15.65-.58.2-.87.28-1.06.28.09 0-.2.25-.51-1.17-1.23-5.58-.57-27.02.15-49.16zm53.83 125.21c.81 44.37-47.33 135.98-90.12 143.49-1.98.35-3.95.52-5.91.52-29.78 0-57.22-38.73-77.77-72.7-3.84-6.36-7.42-12.49-10.72-18.17-1.19-2.04-2.32-3.99-3.44-5.9 13.2-.03 27.33-1.45 39.82-5.46 25.96-8.31 44.71-27.66 51.75-42.91 1.91-4.13 2.96-7.95 3.9-11.41 2.51-9.18 4.32-16.02 20.4-21.01 7.18-2.23 17.16-4.06 27.42-4.06 21.71 0 44.13 8.14 44.67 37.61zm-55.59-126.71c-.74 22.44-1.48 45.06-.16 51.05.33 1.49.93 2.59 2.28 2.59.57 0 1.18-.22 1.65-.39.77-.26 1.58-.54 2.56-.54 1.73 0 4.32.88 8.03 5.32 2.42 2.9 5.26 7.25 8.48 12.19 5.18 7.94 11.42 17.55 18.42 24.56-8.67-5.5-19.7-7.49-30.34-7.49-7.82 0-15.48 1.05-21.92 2.53 1.75-1.45 3.26-3.27 4.41-5.65 4.8-9.97 3.3-29.17 1.93-45.53 1.27-9.56 1.41-20.14-.68-26.39-.07-6.46-.27-13.32-.63-20.14 2.24 3.47 4.25 6.15 5.97 7.89zm-34.08 29.37c1.06.48 2.7.53 4.31.6 2.56.1 5.55.24 8.24 1.46.81.36 1.59.83 2.31 1.42 2.8 2.27 4.94 6.46 6.67 9.86.98 1.93 1.93 3.85 2.82 4.57.09.08.2.15.32.22.19.1.44.19.72.19s.47-.17.67-.3c-.9 3.94-1.98 7.2-3.12 9.07-.85 1.37-1.56 1.69-2.08 1.69-.58 0-1.33-.36-2.31-1.28-1.59-1.5-3.32-4.03-5.29-6.92-2.27-3.33-4.82-7.06-7.64-9.72-4.34-4.09-9.28-5.57-12.88-6.66-3.62-1.09-5-1.67-5.07-2.9-.21-3.71 8.83-13.4 17.42-21.58 7.03-6.7 12.8-11.44 16.18-11.44.64 0 1.14.17 1.56.53 1.31 1.11 2.04 4.16 2.55 9.14-1-.62-2.11-.94-3.31-.94-8.28 0-20.6 13.64-22.97 18.86-.84 1.85-.73 3.38.9 4.13zm25.98 12.83c-.24 1.96-.49 2.98-.69 3.45-.49-.56-1.17-1.83-2.15-3.76-1.67-3.29-3.98-7.88-7.13-10.45-.86-.69-1.77-1.24-2.71-1.66-3.06-1.39-6.4-1.52-8.92-1.62-1.78-.08-2.97-.14-3.63-.44-.25-.11-.69-.23 0-1.73 2.3-5.08 14.17-17.79 21.32-17.79 1.31 0 2.43.43 3.32 1.45.09.11.16.27.25.39.01.16.03.28.04.44.18 2.34.33 4.96.49 7.85.18 3.06.38 6.47.64 10.1-.17 5.91-.46 10.73-.83 13.77zm-36.85-154.13c2.06 3.95 4.04 7.97 5.93 11.83 1.76 3.58 3.46 7.05 5.12 10.22 2.73 5.23 5.34 9.67 7.78 13.81 6.85 11.6 12.34 20.92 15.45 39.25 1.09 6.4 1.89 13.91 2.45 21.73-8.52-14.83-19.45-38.32-29.57-63.08-1.62-3.97-3.23-8-4.83-12.01-6.75-16.86-13.53-33.82-22.11-48.86 7.61 5.86 14.04 16.11 19.78 27.11zm.65 22.42c1.6 4.02 3.21 8.04 4.84 12.03 10.74 26.29 22.55 51.55 31.5 66.38.3 5.01.51 10.07.65 15.04-.53-3.34-1.31-5.9-2.77-7.14-.78-.67-1.72-.96-2.73-.96-4.29 0-10.68 5.52-17.43 11.94-8.15 7.75-18.25 18.2-17.98 22.99.16 2.81 3.44 3.65 6.36 4.53 3.61 1.09 8.16 2.48 12.16 6.25 2.65 2.49 5.08 6.05 7.39 9.42 1.91 2.82 3.77 5.55 5.54 7.22 1.06.99 2.25 1.77 3.55 1.77 1.45 0 2.63-.95 3.62-2.56 1.37-2.24 2.67-6.41 3.71-11.4 1.08 14.51 1.56 29.31-2.33 37.38-3.78 7.85-11.84 9.37-20.57 9.78-1.63.07-3.26.11-4.88.15-1.57.04-3.13.07-4.64.15-2.1.09-4.11.26-6.1.43-3.08.25-6.1.5-9.43.5-6.06 0-13.16-.83-23.33-4.04-19.37-6.12-49.78-20.84-68.52-32.37-5.13-3.15-9.34-6.05-12.87-8.67-1.25-1.77-2.73-3.51-4.63-5.14-2.17-1.86-4.79-3.61-7.67-5.28-.74-.72-1.4-1.39-1.94-1.93-.55-.56-1.01-1.03-1.4-1.4-.4-.38-.82-.74-1.2-.92a1.22 1.22 0 0 0-.57-.14c-.09 0-.19.01-.29.04-.65.17-.79.77-.82 1.01-3.46-1.73-7.1-3.41-10.73-5.08-12.88-5.91-25.37-11.69-29.73-19.56-1.27-2.27-1.85-4.73-1.85-7.23 0-10.3 9.93-21.19 22.99-21.19 2.44 0 5 .38 7.62 1.22 3.76 1.2 7.68 3.35 11.62 6.1 12.03 8.41 23.84 22.19 30.97 30.5 2.96 3.46 5.23 6.12 6.3 6.86.1.08.22.15.33.2.14.07.34.15.58.15.09 0 .18-.01.28-.04.76-.2.8-.95.81-1.14l-.91-.01h.91c0-.28-.07-.58-.14-.87-.48-1.8-2.4-5.88-4.8-10.99-4.54-9.65-10.97-23.37-13.9-34.33-3.65-13.69-1.82-23.07.91-31.44.59-1.85 1.24-3.64 1.88-5.43.63-1.76 1.25-3.5 1.83-5.28.74-2.27 1.39-4.55 2.05-6.89 2.79-9.82 5.87-20.68 16.97-35.5 13.03-17.4 36.66-39.72 54.85-39.72 1.19 0 2.35.1 3.48.3 2.31.4 4.49 1.35 6.61 2.54 9.34 15.59 16.59 33.62 23.85 51.77zm-158.85-42c-3.44 5-7.88 9.82-12.74 14.68 4.54-15.72 10.23-31.43 18.23-43.13 1.16-1.7 2.43-3.2 3.68-4.73 1.22 10.99-1.82 22.5-9.17 33.18zm-68.05-53.07c2.99-18.66 13.46-25.29 25.49-25.29 12.05 0 25.82 6.67 35.47 15.26 8.89 7.92 14.17 17.44 15.88 27.48-1.66 1.94-3.29 3.94-4.79 6.14-8.68 12.7-14.65 29.95-19.35 46.78-2.1 2.05-4.26 4.11-6.46 6.2-9.65 9.19-19.86 18.99-27.51 30.61-11.64-28.9-23.07-80.06-18.73-107.18zm51.74 73.81c-1.78 6.57-3.39 13.04-4.88 19.07-5.2 21.07-9 35.56-14.01 35.56-.34 0-.71-.07-1.11-.24-3.5-1.44-7.82-8.61-12.18-19 7.56-11.84 17.94-21.81 27.93-31.31 1.44-1.37 2.84-2.72 4.25-4.08zm47.77 186.71c-1.93.36-4.04.54-6.28.54-17.18 0-42.25-10.73-60.23-34.6-20.38-27.05-31.54-70.82-21.13-101.6 1.66-4.94 3.9-9.53 6.52-13.88 4.42 10.25 8.88 17.33 12.65 18.89.6.25 1.21.38 1.81.38 6.87 0 10.9-17.22 15.77-36.93 1.72-6.97 3.6-14.46 5.7-22 5.8-5.68 11.16-11.32 15.22-17.22 8-11.61 11.01-24.22 9.2-36.16 13.33-15.15 31.23-21.64 49.25-21.64 16.33 0 32.73 5.31 45.86 14.29 11.13 7.61 19.91 17.88 27.35 29.69-1.44-.59-2.92-1.04-4.45-1.31-1.24-.21-2.5-.32-3.79-.32-19.19 0-43.32 23.12-56.3 40.44-11.29 15.09-14.45 26.2-17.26 36.09-.66 2.35-1.3 4.6-2.03 6.83-.57 1.74-1.18 3.47-1.81 5.23-.65 1.79-1.3 3.6-1.91 5.48-2.8 8.6-4.7 18.35-.93 32.47 2.98 11.14 9.5 25.02 14.01 34.63 1.8 3.83 3.24 6.9 4.05 8.92-1.07-1.16-2.51-2.83-4.4-5.03-7.09-8.27-19.05-22.24-31.31-30.8-4.02-2.81-8.11-5.07-12.1-6.35-2.8-.89-5.54-1.3-8.17-1.3-14.02 0-24.8 11.66-24.8 23 0 2.79.65 5.55 2.07 8.11 4.73 8.52 17.96 14.54 30.56 20.33 4.07 1.87 8.07 3.72 11.79 5.62.13.52.24 1.04.42 1.69.31 1.14.69 2.52 1.18 4.22.75 2.67 1.71 6.07 2.86 10.38 1.53 5.67 3.37 12.85 5.07 20.62-1.37.53-2.82.99-4.44 1.29zm1.12-22.38a932.29 932.29 0 0 0-2.87-10.4c-.49-1.71-.87-3.07-1.17-4.2l-.03-.11c.91.49 1.8.98 2.66 1.47l1.23 1.2c2.52 2.38 6.06 5.48 10.93 9.1 4.67 6.77 4.31 14.01-.01 19.04-1.45 1.68-3.39 3.11-5.73 4.25-1.69-7.7-3.51-14.79-5.01-20.35zm9.85 68.13c1.56-12.88-1.13-30.51-4.45-45.98 2.71-1.26 5.01-2.89 6.72-4.88 4.17-4.86 4.95-11.37 2.12-17.68 2.84 2 6.02 4.12 9.69 6.37 18.84 11.59 49.38 26.38 68.93 32.56 10.33 3.26 17.61 4.12 23.87 4.12 3.41 0 6.51-.26 9.58-.51 1.99-.17 3.97-.33 6.04-.43 1.49-.07 3.02-.1 4.59-.14 1.62-.04 3.27-.08 4.92-.16 1.14-.05 2.29-.13 3.43-.23-9.47 4.93-11.27 11.3-13.36 18.96-.95 3.46-1.96 7.15-3.8 11.13-6.83 14.79-25.18 33.79-50.66 41.95-12.4 3.97-26.51 5.39-39.74 5.39-.2 0-.39-.01-.59-.01-1.14-1.93-2.24-3.8-3.29-5.53-10.29-17.02-16.59-24.41-24.06-24.41-3.27 0-6.71 1.52-10.6 3.92 4.72-5.6 9.3-13.18 10.66-24.44zm-22.91 38.88c.24-1.19 1.08-2.59 2.53-4.25.97-1.12 2.19-2.31 3.56-3.67.16-.15.34-.34.51-.5l.51-.38c6.85-4.97 11.53-7.75 15.74-7.75 6.24 0 12.02 6.18 22.51 23.54.87 1.43 1.79 3 2.71 4.56-12.87-.19-24.68-1.65-32.86-3.31-12.9-2.6-15.77-5.45-15.21-8.24zm144.56 365.83c-.68.02-1.35.03-2.03.03-34 0-66.81-29.35-92.77-54.98-26.37-26.04-45.27-47.81-75.49-84.65-30.34-36.99-71.5-88.53-65.92-130.51 5-37.66 47.69-67.94 76.85-88.58 3.28-2.32 6.4-4.53 9.25-6.6 1.78-1.29 3.42-2.5 5-3.67-.59.93-1.04 1.86-1.22 2.77-.99 4.87 4.47 7.92 16.62 10.38 8.53 1.72 20.88 3.24 34.31 3.35 1.27 2.18 2.6 4.45 3.98 6.82 3.3 5.67 6.88 11.83 10.73 18.19 20.34 33.63 48.31 73.58 79.32 73.58 2.06 0 4.14-.18 6.22-.55 44.12-7.74 92.44-100.59 91.62-145.3-.21-11.64-3.71-20.08-9.15-26.1 3.53 2.31 7.2 3.75 11 3.81.09.01.17.01.26.01 9.37 0 19.18-8.19 28.14-15.6 4.09-3.38 7.98-6.57 11.63-8.96.27 1.06.62 2.22 1.11 3.57 4.77 13.27 21.59 46.18 28.69 46.18.04 0 .07-.04.11-.04-8.56 6.23-18.07 14.37-22.92 22.2-2.25 3.65-3.5 7.22-4.16 10.91-.89 4.96-.71 10.14-.51 15.93.26 7.75.56 16.71-1.49 28.14-4.72 26.41-21.97 66.03-41.74 97.65-.92 1.48-1.86 2.95-2.79 4.4-9.46 14.62-19.28 27.38-28.23 38.77-1.19-.24-2.37-.39-3.53-.39-17.81 0-30.87 27.51-39.94 46.46l-.03.06c-2.73 5.72-5.08 10.53-7.59 13.92-2.5 3.39-5.18 5.35-8.57 5.35-6.46 0-16.04-7-32.49-26.88-9.54-11.52-21.31-27.26-34.21-44.51-32.98-44.12-73.46-98.28-102.59-116.29-8.21-5.08-15.58-7.33-22.13-7.33-.28 0-.55 0-.81.01-25.52.73-36.64 35.6-35.84 63.48 1.02 35.69 21.37 61.88 41.51 87.8l.12.15c.18.23.45.35.72.35.2 0 .39-.06.55-.19.4-.31.47-.88.16-1.27l-.12-.15c-10.1-13-20.13-25.93-27.76-39.99-7.64-14.06-12.87-29.25-13.37-46.75-.81-28.09 10.44-60.94 34.08-61.62.25-.01.5-.01.76-.01 6.12 0 13.17 2.11 21.18 7.06 28.75 17.78 68.98 71.55 102.09 115.83 12.89 17.24 24.69 33.02 34.27 44.59 16.29 19.68 26.41 27.53 33.88 27.53 8.21 0 12.6-9.45 17.79-20.3l.03-.06c4.69-9.8 10.17-21.15 16.53-30.06 6.36-8.91 13.6-15.37 21.78-15.37.74 0 1.5.1 2.25.21-.78 1-1.61 2.06-2.38 3.04-7.57 9.61-14.31 18.15-19.25 25.79-11.98 18.52-13.53 31.95-3.58 47.4 9.8 15.2 30.81 32.46 49.56 36.62 2.31.51 4.58.77 6.79.87-26.51 30.85-62.11 62.31-96.28 63.5zm97.77-65.22c-2.53-.01-5.18-.32-7.89-.92-18.18-4.03-38.82-20.93-48.43-35.84-9.45-14.66-8.15-27.29 3.58-45.42 4.89-7.56 11.56-16.03 19.15-25.66.94-1.2 1.96-2.5 2.93-3.73.52.14 1.03.23 1.56.43 19.7 7.2 45.21 52.21 49.95 79.29.25 1.44.31 2.7.45 4.02a346.903 346.903 0 0 1-21.3 27.83zm5.02-.4c-.81.14-1.69.15-2.53.21a347.54 347.54 0 0 0 19.12-24.89c.74 15.36-6.58 22.93-16.59 24.68zm209.36-269.95c6.01 8.4 8.3 15.92-1.44 24.39-10.08 8.78-32.8 18.36-44.15 18.36h-.11c-5.88-.03-8.52-2.69-10.28-6.14-.78-1.52-1.38-3.19-1.99-4.91-.6-1.66-1.21-3.36-2-4.9-.81-1.6-1.81-3-2.72-4.28-2.89-4.06-5.1-7.06.2-13.49 2.99-3.64 8.34-8.28 14.41-13.55 7.22-6.27 15.4-13.39 21.55-20.57.51-.32 1.02-.63 1.52-.94 9.6 8.89 19.04 17.7 25.01 26.03zm-59.94-128.21c12 0 21.91 6.67 21.91 12.94 0 1.39-.47 2.83-1.58 4.27-.64.84-1.49 1.66-2.5 2.47-2.03.34-4.31.88-6.9 1.65-5.74 1.73-13.02 4.64-20.7 8.19-1.22.12-2.42.22-3.51.22-.76 0-1.41-.05-2.06-.11 6.66-9.36 11.59-17.55 12.14-20.72.04-.23.06-.45.06-.66 0-.28-.04-.56-.14-.82-.2-.52-.61-.87-1.13-.99-.16-.04-.32-.06-.48-.06-.98 0-2.22.63-3.44 1.44-5.51 3.62-16.9 15.59-13.36 20.97.66 1.01 1.8 1.68 3.21 2.11-1.11 1.52-2.25 3.06-3.42 4.61-12.57 6.58-24.69 14.14-31.68 20.51-5.22 4.75-7.81 9.04-7.81 11.88 0 2.09 1.38 3.32 3.51 3.32 2.94 0 7.53-2.26 13.21-7.2 7.04-6.12 16.1-16.72 23.96-27.09a284 284 0 0 1 11.37-5.61c9.14-.94 21.21-4.87 27.85-9.91 1.65-.27 3.12-.4 4.38-.4 7.08 0 8.59 3.66 9.44 6.74 1.09 3.91 1.33 6.57-15.35 19.65-15.25 11.96-44.26 32.38-47.23 34.47-.14.1-.21.14-.24.17h-.01v.01c-.01 0-.03.02-.04.03l-.14.14c-.22.27-.26.64-.11.95.15.32.47.52 1.3.37.01 0 .02-.01.03-.02v.01l.01-.01.01-.01c.02-.01.04-.02.07-.05.02-.01.01-.01.04-.03l.07-.04c1.52-1.07 11.23-7.83 22.47-14.89 11.24-7.06 24.01-14.4 31.66-16.61 1.74-.51 3.18-.73 4.34-.73 3.15 0 4.37 1.6 4.37 4.43 0 5.03-4.02 13.34-9.71 21.04-.51.69-1.08 1.34-1.61 2.02-14.72 8.76-34.27 25.55-42.57 33.27-3.16 2.93-4.92 4.76-5.28 5.6-.05.12-.12.31-.12.53 0 .78.68 1.03 1.06 1.03.1 0 .19-.01.27-.03 1.43-.25 6.6-3.7 12.75-8.02 10.46-7.32 24.75-17.95 35.12-31.02 3.32-1.96 6.37-3.49 8.94-4.36 1.84-.63 3.39-.9 4.67-.9 3.61 0 5.34 2.17 5.34 5.96 0 4.37-2.39 10.64-7.1 17.12-.95 1.29-2 2.59-3.11 3.89-15.15 9.37-30.15 18.81-38.63 28.16-5 5.51-7.73 10.97-10.37 16.23-2.1 4.2-4.14 8.25-7.21 12.22-1.93 2.49-4.28 4.96-6.97 7.79-3.47 3.65-7.47 7.86-11.75 13.38-4.35 5.62-8.98 12.59-13.62 21.71-7.49 14.71-15.01 35.01-22.93 56.4-5.53 14.92-11.26 30.39-17.33 44.91-9.94 23.8-20.87 45.05-35 65.93-.1-.7-.1-1.32-.23-2.05-4.76-27.25-30.46-73.14-51.11-80.68-.33-.12-.65-.17-.98-.27 8.83-11.25 18.52-23.87 27.85-38.31.94-1.45 1.89-2.93 2.81-4.42 19.84-31.73 37.22-71.57 41.99-98.29 2.08-11.63 1.78-20.76 1.51-28.52-.19-5.83-.36-10.81.49-15.55.62-3.49 1.8-6.84 3.92-10.28 6.92-11.18 23.84-23.18 33.05-28.8-.22.44-.45.88-.67 1.33-5.22 5.05-12.73 12.78-17.78 21.51-8.03 13.89-10.22 31.44-7.01 33.69.05.03.09.05.13.08a1.687 1.687 0 0 0 1.14.19c.37-.07.7-.24.99-.46 2.8-2.15 7.43-14 12.32-26.38 2.64-6.7 5.41-13.72 8.08-19.81 1.21-2.77 2.41-5.3 3.61-7.73.91-.89 1.78-1.71 2.53-2.42 1.66-1.58 3.01-2.84 3.36-3.44.05-.09.18-.32.18-.61 0-.81-.75-.98-1.02-.98-.1 0-.19.01-.27.02v.01c-.17.03-.36.09-.54.16-.14.06-.37.17-.56.26 5.28-9.38 11.02-16.84 19.05-25.61 9.94-10.87 23.15-23.53 36.63-28.68 1.06-.27 2.14-.63 3.23-1.08 1.54-.45 3.09-.82 4.63-1.03 1.42-.2 2.84-.3 4.25-.3zm13.21 22.59c-4.54 2.44-10.25 4.46-15.8 5.73 5.18-2.21 10.01-4.04 14.04-5.25.63-.19 1.18-.32 1.76-.48zm-29.75 8.71c.81.12 1.66.19 2.56.21-1.41.68-2.82 1.38-4.24 2.1.58-.78 1.13-1.54 1.68-2.31zm-3.64-3.51c-2.37-3.59 6.68-14.41 12.84-18.46 1.2-.79 1.99-1.1 2.39-1.12v.04c0 .09-.01.2-.03.35-.51 2.95-5.56 11.24-12.35 20.72-1.41-.34-2.41-.85-2.85-1.53zm-4.39 11.2c-7.14 9.17-14.99 18.19-21.28 23.66-5.65 4.92-9.81 6.76-12.03 6.76-1.25 0-1.7-.54-1.7-1.51 0-2 2.02-5.81 7.21-10.54 6.22-5.66 16.65-12.32 27.8-18.37zm43.05 44.18c-9.73 10.9-21.87 19.89-31.15 26.38-3.57 2.5-6.56 4.53-8.71 5.89.64-.63 1.38-1.34 2.3-2.2 7.51-6.98 23.87-21.04 37.56-30.07zm-93.73-15.72c-.49 1.08-.99 2.11-1.49 3.25-2.68 6.13-5.46 13.18-8.1 19.87-5.07 12.84-9.46 23.86-11.74 25.61-.11.08-.13.08-.16.09-1.58-1.39-.68-16.96 7.58-31.24 3.88-6.71 9.26-12.83 13.91-17.58zm8.04-10.22c0-.17.05-.28.07-.3l.78.45h-.77c-.02-.06-.08-.07-.08-.15zm222.95-57.77c-2 0-4.19-.1-6.58-.32-10.02-.93-23.65-4.01-38.6-7.39-17.85-4.03-37.53-8.47-54.89-10.08-4.34-.41-8.53-.63-12.53-.63-3.35 0-6.56.16-9.59.51-14.79 1.71-25.17 7.95-33.46 12.92-3.55 2.14-6.64 3.92-9.53 5.14-1.08.31-2.16.67-3.24 1.08-.63.16-1.27.37-1.89.44-.47.05-.95.08-1.42.08-3.06 0-6.17-1.21-9.62-4.45-2.22-2.08-4.56-5.04-6.92-8.55 11.54-27.13 9.9-76.45-.73-100.48-1.5-3.38-3.2-6.23-5.01-8.65 25.02-8 50.51-19.84 74.14-38.41 18.95-14.89 36.69-34.09 53.45-52.22 15.13-16.36 29.43-31.83 43.17-42.63 5.26-4.13 10.42-7.57 15.49-10.09 7.3-3.65 14.44-5.42 21.41-5.42 24.49 0 47.66 21.89 69.86 63.58 9.33 17.53 18.42 38.48 26.29 60.54-2.53 2.09-4.9 4.15-6.94 6.14a71.313 71.313 0 0 0-4.39 4.71c-10.48-30.22-23.48-59.47-35.23-79.86-20.04-34.83-36.58-44.22-50.52-44.22-2.11 0-4.14.22-6.11.59-14.95 2.8-25.97 14.47-34.82 38.09-8.86 23.69-15.64 59.61-1.04 111.16 9.4 33.21 27.73 72.95 49.28 103.44-4.06 2.24-9.51 4.98-20.03 4.98zm108.18-86.63c-4.93-4.1-11.5-9.58-14.99-16.66-3.57-7.23-3.95-16.29 4.53-27.46 5.35 15.72 9.96 31.59 13.33 46.57-.87-.77-1.83-1.58-2.87-2.45zm3.51 5.22c.19.89.37 1.76.55 2.65-1.12.65-3.83 1.15-8.7 1.15-7.64 0-18.67-1.18-29.54-2.63 3.45-1.64 6.54-4.03 8.91-7.54 4.08-6.04 6.03-15.21 6.32-25.25.02 3.78.98 7.25 2.55 10.43 3.67 7.43 10.51 13.11 15.4 17.18 1.98 1.65 3.52 2.95 4.51 4.01zm-139.2-27.51c-14.48-51.14-7.74-86.67 1-110.02 8.76-23.4 19.43-34.33 33.46-36.95 1.86-.35 3.79-.56 5.77-.56 12.93 0 28.99 8.64 48.96 43.31 11.83 20.56 24.94 50.15 35.44 80.61-5.32 6.74-7.6 12.84-7.86 18.32.32-19.66-5.58-42.22-14.24-50.85-3.07-3.06-6.52-4.42-10.23-4.42-12.48 0-27.78 15.56-42.65 30.6-.3.31-.3.8.01 1.1.31.31.8.31 1.11 0 15.15-15.33 29.88-30.14 41.53-30.14 3.28 0 6.33 1.19 9.12 3.97 12.8 12.75 19.43 57.92 7.7 75.3-2.71 4.01-6.46 6.52-10.7 8-3.91-.54-7.75-1.11-11.36-1.66-5.46-.83-10.38-1.62-14.61-2.3-7.95-1.29-13.56-2.19-15.66-2.19-.31 0-.63.02-.88.09-.13.03-.51.16-.69.56-.23.55.17.98.26 1.07.4.42 1.4.9 2.77 1.48 4.92 2.09 16.97 6.29 28.73 6.29 3.97 0 7.92-.52 11.58-1.74 11.75 1.62 24.1 3.01 32.49 3.01 3.55 0 6.97-.23 9.01-1.14 1.88 9.33 3.27 18.26 3.93 26.42 3.76 46.8-14.99 68.87-33.45 70.35-.61.05-1.22.08-1.83.08h-.2c-13.1 0-26.17-10.07-36.55-18.12-4.8-3.72-9.08-7.04-12.42-8.5-1.51-.66-2.86-.95-4.14-.95-2.26 0-4.2.93-6.26 2.05-21.42-30.25-39.74-69.86-49.14-103.07zm94.59 29.31c-2.45.49-5.01.73-7.61.73-11.46 0-23.28-4.11-28.12-6.16-.04-.02-.07-.03-.12-.05 2.7.29 7.3 1.03 13.46 2.02 4.23.68 9.16 1.48 14.63 2.31 2.48.38 5.1.76 7.76 1.15zm66.66 65c-3.37 37.23-22.53 57.21-45.76 57.21-9.33 0-19.43-3.21-29.56-9.92-12.19-8.07-24.37-21.25-35.72-37.05 1.93-1.03 3.47-1.72 5.19-1.72.99 0 2.09.22 3.41.8 3.08 1.34 7.15 4.49 12.04 8.27 10.22 7.93 23.81 18.5 37.66 18.5h.21c.66 0 1.31-.03 1.97-.09 20.03-1.6 38.88-25.21 35.1-72.3-.68-8.5-2.14-17.81-4.14-27.56.19-.31.31-.66.31-1.06 0-.42-.12-.84-.32-1.24-.15-.29-.4-.62-.66-.95-3.5-16.23-8.55-33.61-14.42-50.74 1.42-1.72 3.05-3.49 4.91-5.31 1.89-1.85 4.06-3.76 6.39-5.7 15.86 44.89 26.53 94.19 23.39 128.86zm92.59-533.84c7.11-5.6 16.08-7.82 26.31-7.82 19.19 0 42.48 7.84 65.31 15.54 12.01 4.05 23.88 8.05 34.89 10.8 17.19 4.3 32.26 5.54 44.57 6.56 8.59.71 15.78 1.3 21.47 2.72 5.7 1.43 9.66 3.76 12.08 7.65-4.36 1.13-9.35 3.92-14.99 7.17-.54.32-1.01.59-1.57.92-.55.31-1.1.63-1.66.96-1.54.89-3.15 1.81-4.79 2.75-14.2 8.15-31.96 18.33-48.38 32.04-3.94 3.29-7.81 6.79-11.59 10.21-12.85 11.61-24.54 22.11-35.64 22.11-.91 0-1.82-.07-2.72-.22-15.26-2.5-29.96-26.74-44.93-54.73-1.46-2.71-2.92-5.47-4.36-8.2-11.81-22.29-23.83-45.24-34.49-48.03.17-.14.32-.3.49-.43zm-36.26 74.83c.63-1.83 1.28-3.7 1.92-5.6 1.73-5.13 3.45-10.5 5.16-15.87 1.72-5.37 3.43-10.74 5.17-15.88 6.21-18.42 12.49-33.12 19.46-35.42-24.92 25.7-24.73 95.27-20.42 126.71.48 3.46 1.01 6.44 1.56 9.1-28.01-18.69-21.56-37.77-12.85-63.04zm222.02 51.37c-4.26 10.69-8.17 19.97-11.55 27.99-2.56 6.08-4.82 11.44-6.69 16.13-2.7 6.79-4.61 12.21-5.45 16.43-.27 1.35-.43 2.57-.57 3.63-.11.86-.21 1.6-.34 2.25-.42 2.11-1.07 3.15-4.42 3.15-4.22 0-12.19-1.74-27.69-5.54-36.9-9.06-115.51-29.53-149.6-50.47-.36-.22-.65-.44-1-.66-.66-3-1.3-6.44-1.86-10.55-4.43-32.27-4.31-102.98 21.36-126.77 9.84.83 21.93 23.35 34.66 47.4 1.45 2.73 2.92 5.51 4.36 8.21 14.78 27.62 29.85 52.88 46.06 55.53.99.17 1.99.24 2.98.24 11.85 0 24.06-11.1 36.69-22.51 3.78-3.42 7.63-6.9 11.54-10.17 16.3-13.61 33.95-23.73 48.16-31.88 1.63-.94 3.26-1.87 4.79-2.76.55-.31 1.13-.65 1.66-.96.6-.34 1-.58 1.58-.91 6.02-3.48 10.94-6.13 15.09-7.07.06.14.16.23.22.37 7.11 16.48-7.72 58.15-19.98 88.92z" fill="#000000" class="color000 svgShape"/><path d="M278.8 872.99c-1.78 6.57-3.39 13.04-4.88 19.07-5.2 21.07-9 35.56-14.01 35.56-.34 0-.71-.07-1.11-.24-3.5-1.44-7.82-8.61-12.18-19 7.56-11.84 17.94-21.81 27.93-31.31 1.44-1.37 2.84-2.72 4.25-4.08zM295.11 852.25c-3.44 5-7.88 9.82-12.74 14.68 4.54-15.72 10.23-31.43 18.23-43.13 1.16-1.7 2.43-3.2 3.68-4.73 1.22 10.99-1.82 22.5-9.17 33.18z" fill="#000000" class="color000 svgShape"/><path d="M303.9 816.63c-1.66 1.94-3.29 3.94-4.79 6.14-8.68 12.7-14.65 29.95-19.35 46.78-2.1 2.05-4.26 4.11-6.46 6.2-9.65 9.19-19.86 18.99-27.51 30.61-11.64-28.9-23.07-80.06-18.73-107.18 2.99-18.66 13.46-25.29 25.49-25.29 12.05 0 25.82 6.67 35.47 15.26 8.89 7.92 14.17 17.44 15.88 27.48z" fill="#000000" class="color000 svgShape"/><path d="M428.26 839.46c-1.44-.59-2.92-1.04-4.45-1.31-1.24-.21-2.5-.32-3.79-.32-19.19 0-43.32 23.12-56.3 40.44-11.29 15.09-14.45 26.2-17.26 36.09-.66 2.35-1.3 4.6-2.03 6.83-.57 1.74-1.18 3.47-1.81 5.23-.65 1.79-1.3 3.6-1.91 5.48-2.8 8.6-4.7 18.35-.93 32.47 2.98 11.14 9.5 25.02 14.01 34.63 1.8 3.83 3.24 6.9 4.05 8.92-1.07-1.16-2.51-2.83-4.4-5.03-7.09-8.27-19.05-22.24-31.31-30.8-4.02-2.81-8.11-5.07-12.1-6.35-2.8-.89-5.54-1.3-8.17-1.3-14.02 0-24.8 11.66-24.8 23 0 2.79.65 5.55 2.07 8.11 4.73 8.52 17.96 14.54 30.56 20.33 4.07 1.87 8.07 3.72 11.79 5.62.13.52.24 1.04.42 1.69.31 1.14.69 2.52 1.18 4.22.75 2.67 1.71 6.07 2.86 10.38 1.53 5.67 3.37 12.85 5.07 20.62-1.37.53-2.82.99-4.44 1.29-1.93.36-4.04.54-6.28.54-17.18 0-42.25-10.73-60.23-34.6-20.38-27.05-31.54-70.82-21.13-101.6 1.66-4.94 3.9-9.53 6.52-13.88 4.42 10.25 8.88 17.33 12.65 18.89.6.25 1.21.38 1.81.38 6.87 0 10.9-17.22 15.77-36.93 1.72-6.97 3.6-14.46 5.7-22 5.8-5.68 11.16-11.32 15.22-17.22 8-11.61 11.01-24.22 9.2-36.16 13.33-15.15 31.23-21.64 49.25-21.64 16.33 0 32.73 5.31 45.86 14.29 11.13 7.61 19.91 17.88 27.35 29.69zM1390.27 840.4c-.01 0-.01-.01-.01-.02 0 0-.01 0-.02-.01 0 .01.02.04.04.07 0-.01 0-.03-.01-.04zm385.62 533.04c-1.74-7.85-4.17-16.26-6.67-24.91-5.11-17.69-10.51-36.43-11.22-54.01-.11-2.8-.08-5.57.01-8.3.19-.01.41-.04.59-.04.82 0 1.57.04 2.25.12 3.78.45 5.79 2.21 6.58 2.9.12.1.25.22.37.3 0 0 .25.2.57.2.05 0 .09 0 .14-.01.63-.1.72-.61.72-.89 0-.12-.01-.19-.01-.19 0-.01 0-.02-.01-.03-.04-.22-.16-.56-.3-.95-.85-2.44-3.58-10.24-6.76-30.27-.15-.96-.31-2-.46-3.01 1.08-7.99 1.43-14.45-1.22-17.8-.41-.52-.9-.93-1.42-1.3-2.84-22.07-5.91-50.35-9.09-79.58-4.02-37.02-8.19-75.45-12.21-104.25-8.39-60.17-16.12-78.54-38.08-102.85-21.81-24.16-57.8-54.39-80.92-62.42-6.16-2.14-11.4-2.7-15.76-2.7-2.78 0-5.2.23-7.24.42-1.52.15-2.8.27-3.89.27-.25 0-.5-.01-.72-.02-2.6-.17-4.01-1.19-3.56-8.27.05-.72.12-1.53.21-2.36 5.85-18.78 11.43-46.32 16.11-76.91 1.19-7.75 2.32-15.72 3.23-23.71.06-.32.13-.65.18-.96 6.49-37.76 7.35-64.4 2.73-84.09-4.63-19.75-14.77-32.5-31.64-40.71-9.32-4.53-20.72-7.69-31.17-7.69-8.4 0-16.27 2.04-21.94 7.16-6.12 5.55-9.52 14.61-12.15 22.58-4.26 1.36-8.37 2.96-12.18 4.88-2.9 1.46-5.6 3.12-8.2 4.89-5-3.58-11.1-7.25-18.19-7.25-1.87 0-3.81.26-5.81.83-18.05 5.18-41.13 36.48-49.1 64.17-.56 1.95-1.03 3.89-1.45 5.81-2.16-3.8-5.26-5.44-7.84-5.44-1.82 0-3.52.85-4.01 2.52-.05.18-.09.36-.11.55-.04.3-.02.64.01.97-1.56-1.42-3.38-2.11-5.19-2.11-2.36 0-4.57 1.12-5.76 2.92-.3.47-.53.97-.7 1.49-.7 2.16-.42 4.89-.14 7.77.4 4.04.84 8.66-.73 13.53-.95 2.93-2.65 6-4.58 9.34-1.77-6.45-7.22-11.2-12.58-11.2-3.09 0-6.01 1.59-8.01 5.1-2.87 5.04-3.89 14.19-4.42 25.35-.23 4.78-.37 9.98-.52 15.44-.16 6.07-.34 12.48-.65 19.04-1.04 21.79-3.76 45.01-13.86 64.3-1.94-.8-4.86-1.11-7.88-1.11-5.02 0-11.57.81-18.49 2.61-6.92 1.8-14.21 4.59-20.72 8.55a69.96 69.96 0 0 0-7.34 5.18c-7.93 6.37-14.99 14.53-22.83 23.61-23.61 13.2-35.37 27.89-34.43 35.27-1.28 1.08-2.55 2.16-3.89 3.24-14.02 11.25-31.66 22.48-49.28 33.69-24.24 15.42-48.48 30.85-62.91 46.17-25.05 26.62-20.57 52.97-9.3 70.97 9.38 14.97 23.51 24.26 40.22 24.26 3.35 0 6.8-.37 10.32-1.15 21.01-4.6 44.88-23.44 75.57-51.85 16.1-14.9 34.13-32.49 48.7-46.71 11.53-11.24 20.83-20.33 25.36-24.35-.7 1.01-1.52 2.19-2.54 3.62-5.12 7.23-13.23 18.62-14.1 24.71-.28 1.97.17 3.49 1.08 4.65 1.38 1.74 3.72 2.54 5.48 3.17 1.54.54 2.49.91 2.87 1.39.25.31.44 1.24-2.96 4.19-.05-.11-.09-.27-.14-.37-1.15-2.51-2.63-3.96-4.6-3.96-3.69 0-8.19 5.52-13.66 12.05-2.92 3.51-6.29 7.47-10.06 11.46-21.94 13.62-52.87 31.76-83.91 49.95-.38.22-.52.71-.32 1.1.21.39.68.56 1.09.38 28.98-13.04 58.15-26.15 77.4-43.44 2.45-2.19 4.67-4.45 6.81-6.7 12.13-7.53 21.54-13.7 26.64-17.7 1.37 4.24 2.48 10.62 3.42 17.44-2.51 28.58-.34 73.62 23.47 103.55 5.56 6.99 12.3 13.14 19.78 18.62 22.67 16.6 52.37 27.11 77.65 36.06 18.98 6.72 35.37 12.53 44.68 19.35 1.67 1.22 3.11 2.48 4.33 3.76 17.3 18.13-8.26 42.82-35.45 68.76-.33.32-.35.85-.03 1.18.32.33.85.35 1.18.03 26.32-25.11 54.26-51.47 35.51-71.12-1.3-1.36-2.81-2.68-4.56-3.96-9.56-6.99-26.24-12.89-45.11-19.57-25.33-8.97-54.78-19.4-77.22-35.83-7.39-5.41-14-11.47-19.45-18.32-21.27-26.73-25-65.83-23.69-93.9.28 2.33.54 4.62.78 6.8.89 7.82 1.62 14.57 2.49 15.86l.1.12.01-.01c.13.18.37.41.79.41.52 0 .8-.39.91-.54.12-.2.22-.45.29-.69 1.26-3.98 2.59-25.52 2.59-40.9 0-8.1-.33-15.21-1.62-16.65-.2-.21-.52-.44-.94-.44-.33 0-.6.14-.8.29-.33.25-.59.66-.81 1.09-1.24 2.41-2.96 9.55-4.19 19.52-.78-4.74-1.69-8.96-2.75-12.02 3.56-2.99 5.02-5.16 3.66-6.88-.75-.95-2.32-1.47-3.62-1.93-1.89-.67-3.71-1.34-4.73-2.63-.6-.77-.96-1.82-.74-3.39.79-5.58 8.53-16.53 13.81-23.97 2.38-3.35 4.4-6.17 4.65-7.15.01-.04.02-.1.03-.15 0-.03.01-.07.01-.11 0-.29-.1-.9-.8-1-.05-.01-.1-.01-.14-.01-.18 0-.34.05-.44.09-.37.14-.86.49-1.44.95-3.55 2.86-13.99 13.05-27.21 25.95-14.58 14.22-32.59 31.79-48.67 46.68-30.76 28.47-54.3 46.95-74.79 51.45-3.42.75-6.75 1.11-9.97 1.11-16.03 0-29.67-8.9-38.81-23.48-10.94-17.48-15.34-42.97 9.11-68.94 14.25-15.15 38.28-30.45 62.58-45.91 17.61-11.21 35.33-22.48 49.43-33.8 1.16-.93 2.23-1.86 3.34-2.79 1.08 2.1 3.51 2.96 6.48 2.96 7.48 0 20.23-5.38 33.53-15.82 8.95-7.02 18.2-16.37 26.14-24.4 6.06-6.12 11.33-11.44 15.17-14.45 1.68-1.32 2.99-2.12 3.93-2.4.28-.09.5-.12.69-.12 1.3 0 1.81 1.89 2.22 6-2.75 2.4-5.53 4.75-8.29 7.05-12.14 10.09-23.72 19.68-26.33 31.3-.4 1.77-.58 3.58-.58 5.41 0 18.36 19.05 38.93 37.96 38.93h.43c1.27-.03 2.54-.14 3.8-.34 2.43-.39 4.84-1.09 7.19-2.06-.24.71-.5 1.41-.73 2.11-3.14 9.66-5.18 20.19 4.56 23.36.04.01.08.02.12.04 3.21 1.01 7.66 1.18 12.93 1.18 1.46 0 2.99-.01 4.58-.03 1.75-.01 3.57-.03 5.47-.03 16.65 0 38.93 1.23 62.22 14.81 37.31 21.76 77.32 75.28 91.04 129.7 9.85 39.11 6.14 78.7 3.82 103.42-.9 9.62-1.61 17.1-1.18 21.35.28 2.7 1.11 4.92 3.06 4.92 5.73 0 15.83-24.65 16.24-57.63.36-27.92-6.12-62.79-11.39-91.2-2.58-13.89-4.87-26.22-5.95-35.48-1.66-14.25-.46-21.22.46-26.57.57-3.33 1.06-6.15.65-9.69-.24-2.04-.77-4.29-1.73-7.02-.94-2.66-2.31-5.83-3.93-9.3.5.16.97.25 1.41.25.38 0 .76-.06 1.12-.2 3.23-1.24 2.87-8.19 2.68-15.29-.23-7.98-.48-17.63 2.13-25.44 3.51-10.47 12.24-17.75 19.49-23.76 3.25-2.71 6.25-5.19 8.22-7.57 4.95-6 3.44-11.36 1.57-18.13-.59-2.15-1.22-4.46-1.74-7.03-1.25-6.26-1.64-13.08-1.39-17.54.22 1.68.45 3.35.78 4.96 2.55 12.45 8.99 23.31 12.16 23.31h.01c.44 0 .84-.18 1.14-.52.38-.43.52-1.05.56-1.67.38-5.71-7.65-28.32-11.83-31.94-.46-.4-.99-.69-1.57-.69-.05 0-.09.01-.14.01-.54-12.53 1.75-25.32 5.61-31.55 1.97-3.19 4.36-4.67 7.17-6.4 3.51-2.15 7.51-4.62 11.54-11.12.81-1.3 1.61-2.76 2.41-4.41 1.36-2.78 2.71-6.16 4.05-9.98.22 4.53 1.75 6.36 5.15 6.57.27.02.55.03.83.03 1.18 0 2.55-.13 4.05-.28 2.04-.19 4.38-.42 7.08-.42 4.2 0 9.26.55 15.21 2.62 22.7 7.88 58.46 37.84 80.24 61.95 21.62 23.96 29.29 41.93 37.66 101.97 4.02 28.78 8.19 67.17 12.21 104.2 3.12 28.72 6.15 56.54 8.94 78.47-1.48-.55-3.18-.8-5.03-.8-1.15 0-2.37.09-3.63.23-4.46.52-9.63 1.82-14.77 3.12-5.23 1.32-10.43 2.63-14.93 3.15-1.85.21-3.59.29-5.22.29-2.67 0-5.05-.21-7.19-.4-1.71-.15-3.29-.3-4.72-.3-4.09 0-7.07 1.21-8.95 6.24-.35.92-.65 2.03-.92 3.21-.19-.9-.38-1.78-.58-2.69-2.18-10.1-4.46-20.64-6.56-31.34-3.74-19.06-6.88-38.58-9.57-55.3-2.01-12.51-3.77-23.46-5.34-31.47-.43-2.21-.85-4.19-1.26-5.93-.9-3.87-1.74-6.47-2.38-8.49-.41-1.28-.74-2.3-.96-3.24-.89-3.79-.16-6.57 4.66-20.94.44-1.3.91-2.7 1.41-4.17 10.72-16.19 25.33-65.78 25.07-69.16 0-.05-.01-.1-.02-.16-.01-.04-.14-.78-.89-.78-.45 0-.72.34-.77.39-2.08 2.46-17.03 45.69-24.92 69.03-.73 1.08-1.45 2.01-2.13 2.72-1.41 1.47-2.59 1.95-3.56 1.95-2.52 0-4.75-3.16-7.18-6.8-1.81-2.7-3.92-6.05-6.42-6.05-2.17 0-3.92 2.35-5.64 6.87-7.74 20.35-18.89 96.61-10.81 141.59 3.22 17.91 9.49 30.86 14.8 41.85 3.98 8.23 7.38 15.28 8.69 22.53 1.34 7.46.46 15.18-4.5 24.6-16.35 31.06-76.22 79.52-85.69 80.61-.09.01-.17.02-.24.02-.34 0-.37-.03-.37-.38 0-3.42 8.34-15.22 19.09-30.31 10.33-14.51 22.57-31.69 30.39-46.19 17.84-33.1 12.72-52.41-6.97-93.1-3.41-7.06-7.27-14.77-11.31-22.84-4.46-8.91-9.14-18.26-13.7-27.7-3.22-6.65-6.37-13.33-9.35-19.92 3.44 1.66 7.55 2.54 12.61 3.26 4.01.57 8.66 1.09 13.32 1.09 9.13 0 18.66-1.97 23.5-9.72 7.13-11.41 3.65-35.15.32-58.29a.839.839 0 0 0-.94-.71c-.46.07-.78.49-.71.95 3.39 23.51 6.63 46.41-.08 57.17-4.35 6.96-13.05 8.93-22.09 8.93-4.55 0-9.1-.5-13.08-1.07-5.95-.84-10.44-1.81-13.96-4.08-4.37-9.78-8.31-19.31-11.44-28.18-1.38-10.53-1.72-22.16-.84-30.19 1.36-12.3 5.47-15.76 17.74-15.76.18 0 .36.01.53.01 5.1.04 11.5.66 17.95 1.28 6.64.65 13.34 1.29 18.58 1.29 2.61 0 4.92-.16 6.7-.58 2.36-.56 4.08-1.67 4.45-3.4.9-4.21-6.77-9.28-20.43-12.2-5.34-1.14-11.77-1.99-18.3-1.99h-.78c-16.96.18-34.82 6.39-34.57 29.24.09 8.82 2.92 20.13 7.35 32.71.83 6.33 2.04 12.28 3.59 16.85 2.02 5.97 4.66 9.58 8.11 11.97 3.27 7.3 6.76 14.71 10.32 22.06 4.57 9.45 9.26 18.82 13.71 27.72 4.04 8.08 7.89 15.78 11.3 22.83 19.61 40.53 24.46 59.2 7 91.58-7.76 14.39-19.92 31.47-30.28 46.02-10.44 14.66-19.4 27.15-19.4 31.27 0 1.22.73 2.04 2.04 2.04.14 0 .28-.01.43-.03 10.3-1.18 70.53-50.25 86.97-81.49 5.12-9.72 6.08-17.81 4.67-25.67-1.36-7.51-4.88-14.78-8.83-22.95-5.31-10.99-11.48-23.76-14.66-41.42-8.03-44.67 3.09-120.62 10.73-140.71 1.81-4.75 3.22-5.79 4.08-5.79 1.36 0 2.9 2.11 5.03 5.3 2.17 3.25 4.94 7.55 8.57 7.55 1.41 0 2.81-.67 4.22-1.97-4.74 14.12-5.71 17.44-4.69 21.8.24 1.02.58 2.1.99 3.37.65 2.01 1.47 4.56 2.35 8.36.4 1.71.82 3.68 1.25 5.87 1.56 7.98 3.32 18.89 5.33 31.41 2.69 16.72 5.83 36.27 9.57 55.36 2.1 10.72 4.39 21.28 6.57 31.37.5 2.3.98 4.54 1.46 6.78-1.02 8.94.12 21.17 5.86 29.26 1.69 9.83 2.73 18.43 2.61 25.19-.1 5.45-.95 9.71-2.18 13.23-1.73 4.93-4.24 8.43-6.62 11.76-2.05 2.85-4.04 5.62-5.23 9.01-.48 1.36-.82 2.8-1.07 4.31-.78 4.81-.57 10.34-.36 15.8.21 5.58.41 11.09-.37 15.91-1.1 6.78-4.18 12.23-6.36 16.1-1.27 2.23-2.49 4.29-2.35 5.64.15 1.46 1.52 1.84 2.67 1.84 2.97 0 8.38-2.28 13.01-5.59 6.55-4.7 11.95-11.76 11.36-21.28-.18-2.94-.95-6.08-1.85-8.94a645.55 645.55 0 0 1 16.28 31.15c.98 2 1.94 4.02 2.92 6.06 7.62 15.85 15.76 33.13 23.66 33.13 1.24 0 2.43-.41 3.57-1.23.7-.51 1.4-1.25 2.08-2.09 1.85 2.85 4.15 4.35 6.69 4.35 3.91 0 7.75-3.4 10.57-8.63 1.3-2.41 2.4-5.32 3.27-8.38.62.16 1.24.34 1.83.34.88 0 1.72-.18 2.51-.58 3.82-1.94 5.7-8.92 5.7-18.81 0-7.75-1.16-17.3-3.45-27.61zm-509.15-285.34c-15.84 14.23-38.55 25.62-62.49 36.59 23.51-13.8 46.22-27.19 64.19-38.21-.58.54-1.11 1.09-1.7 1.62zm33.66-24.57c-4.3 3.39-11.82 8.41-21.54 14.52 2.18-2.47 4.24-4.89 6.07-7.09 5.86-7 9.69-11.45 12.38-11.45.97 0 2.02.65 3.08 2.98.11.23.2.55.3.8-.11.08-.18.15-.29.24zm9.37 49.65.56-.56c.08.06.13.1.13.1l-.69.46zm1.31-56.09c.02-.05.04-.06.06-.1.6 1.72.96 7.37.96 15.05 0 13.94-1.09 32.53-2.16 38.77-.47-2.53-1.02-7.28-1.69-13.21-.54-4.75-1.14-10.11-1.86-15.31 1.16-13 3.27-22.45 4.69-25.2zm2.99-39.62.81.21h-.78c-.01-.07-.03-.18-.03-.18v-.03zm241.17-73.14c.02 0 .17.01.48.28 3.71 3.21 11.61 25.27 11.26 30.57-.02.38-.08.53-.12.61-1.63-.19-7.83-9.1-10.46-21.96-.62-3.04-.97-6.26-1.18-9.5h.02zm34.45-83.74c1.82-10.32 4.55-23.39 7.49-37.45 1.15-5.46 2.31-11.06 3.47-16.69-3.34 20.46-7.06 39.09-10.96 54.14zm-63.28-212.77c5.25-4.75 12.66-6.74 20.82-6.74 10.15 0 21.3 3.08 30.44 7.53 16.4 7.98 26.23 20.3 30.75 39.59 3.53 15.07 3.78 34.46.68 60.05.98-25.23-1.98-48.58-14.32-63.39-11.7-14.03-31.65-20.28-51.87-20.28-9.44 0-18.96 1.38-27.8 3.96 2.57-7.65 5.8-15.74 11.3-20.72zm-24.7 27.71c3.39-1.71 7.02-3.17 10.8-4.42-.11.34-.23.68-.33 1.01-2.41 7.45-4.22 12.74-6.79 13.69-.29.1-.59.15-.92.15-2.12 0-4.93-2.03-8.76-4.88-.48-.36-1-.74-1.51-1.11 2.39-1.6 4.86-3.11 7.51-4.44zm-80.45 61.61c7.92-27.52 30.76-58.1 47.96-63.03 1.85-.53 3.63-.76 5.35-.76 6.34 0 11.88 3.18 16.71 6.57-22.28 16.01-33 43.19-38.26 73.86-5.98 34.81-5.03 74.51 8.8 101.6 13.05 25.59 37.57 39.88 61.53 39.88 1.44 0 2.88-.05 4.32-.15 14.1-1.03 27.74-7.12 37.91-13.91.04 5.22-.21 10.79-2.13 16.28-4.6 13.13-18.75 25.81-35.94 27.93-1.79.22-3.61.33-5.45.33-15.91 0-33.27-7.97-43.11-19.22-7.29-8.32-10.49-18.48-13.56-28.23-1.54-4.91-3.05-9.72-5.04-14.07-.01-.03-.03-.04-.04-.07-.25-.74-.61-1.46-1.15-2.13-4.19-8.17-9.88-14.68-14.91-20.29-2.2-2.46-4.26-4.76-6.01-6.99-6.06-7.75-8.39-14.76-13.12-30.49-.45-1.5-.92-3.09-1.4-4.73.02-.4.04-.79.04-1.14 0-2.01-.42-3.69-1.55-4.3-1.04-3.96-2.03-8.24-2.81-12.8 1.65-13.14 2.65-26.69.52-34.57-.15-.56-.35-1.06-.53-1.57.5-2.64 1.1-5.3 1.87-8zm34.63 122.3c-3.16-1.67-7.88-2.67-12.81-2.67-5.43 0-11.23 1.18-15.5 4.07-.79.54-1.53 1.13-2.21 1.76-3.89 3.62-6.16 8.65-7.92 12.54-1.24 2.72-2.17 4.73-3.16 5.65-.41.38-.76.5-1.03.5-.04 0-.08 0-.12-.01-1.68-.23-4.39-5.59-2.23-20.91 1.29-9.04 4.24-21.2 6.99-32.56 2.26-9.29 4.38-18.04 5.32-24.08.1.33.21.68.3 1 4.72 15.7 7.13 23 13.41 31.04 1.79 2.28 3.88 4.62 6.08 7.07 4.33 4.83 9.05 10.18 12.88 16.6zm-35.43-65.46c-.99.31-2.07 1.14-3.18 2.37.13-.84.25-1.64.38-2.5.35-2.36.7-4.83 1.04-7.33.55 2.6 1.15 5.09 1.76 7.46zm-1.76-44.75c1.19 6.44.8 15.79-.25 25.68-.93-7.93-1.06-16.56.25-25.68zm-33.92 72.6c-2.13-6.76-3.86-14.41-3.66-21.11.25-8.45 3.57-15.4 7.07-21.63.09 4.29-.86 9.22-1.92 14.66-1.21 6.14-2.53 12.84-2.38 19.6.06 2.87.41 5.73.89 8.48zm-35.04 72.8c.01.01.02.02.02.04 0 .17-.09.49-.52.97-.02.03-.07.06-.09.09.2-.37.39-.74.59-1.1zm.75 2.11c.56-.63.93-1.33.93-2.07 0-.67-.29-1.22-.78-1.69 10.34-19.68 12.96-43.32 14.01-65.14.31-6.58.48-13 .65-19.08.14-5.46.28-10.64.51-15.4.54-11.27 1.57-19.98 4.21-24.61 1.73-3.03 4.13-4.25 6.56-4.25 4.51 0 9.57 4.21 11.09 10.32.12.47.12.99.19 1.48-3.87 6.74-8.12 14.57-8.41 24.37-.4 13.86 7.13 31.51 9.85 37.57.23.52.44.97.59 1.31.05.09.07.15.11.23.11.26.21.48.26.6 0 0-.01 0-.02-.01 0 .01.02.04.04.07.09.16.37.51.78.51.84 0 .84-.87.83-.87-.01-.12-.05-.24-.06-.29l-.01-.02-.01-.01v-.01l-.01-.01s0-.01-.01-.02c-.02-.07-.07-.16-.13-.31-.04-.08-.1-.21-.15-.33-1.16-2.72-5.71-14.31-5.96-25.76-.14-6.56 1.14-13.08 2.35-19.25 1.24-6.3 2.32-12.27 1.68-17.41.14-.25.28-.49.42-.73 2.15-3.73 4.21-7.28 5.32-10.73 1.69-5.24 1.2-10.18.81-14.2-.29-3.01-.5-5.34.06-7.1.13-.4.3-.76.51-1.08.85-1.28 2.51-2.17 4.37-2.17 3.19 0 7.34 2.73 7.67 11.82.26 6.97-1.77 17.41-4.16 28.28l-.45 1.23c-2.72 7.4-5.55 15.11-6.53 21.96a42.67 42.67 0 0 0-.39 7.61c.07 1.89.27 3.64.53 5.32-.51 9.43 1.5 14.18 3.13 15.01.14.06.3.12.47.14.05.01.1.01.15.01.63 0 1.01-.45 1.15-.87.08-.23.11-.49.11-.73v-.12c-.03-.92-.48-2.33-.99-3.98-.75-2.41-1.73-5.67-2.34-9.55.07-1.28.19-2.65.37-4.15.81-6.63 2.76-15.27 4.79-24.24.53-2.38 1.07-4.78 1.6-7.18 2.4-6.55 4.7-12.99 5.48-18.48l.09-.64c.92-7.56-1.17-13.18-2.63-17.08-.83-2.26-1.34-3.69-1.22-4.69.01-.1.03-.19.06-.28.21-.71 1.02-1.33 2.41-1.33 2.17 0 5.4 1.67 7.3 6.53-2.45 13.16-1.78 25.38.04 36.07-.53 4.18-1.12 8.35-1.7 12.3-.28 1.91-.56 3.74-.84 5.52a40.647 40.647 0 0 0-3.82 7.31c-1.93 4.95-2.62 9.96-2.62 13.39 0 1.97.22 3.72.8 4.47.18.22.49.5.96.5.38 0 .67-.19.85-.36.01-.01.03-.02.03-.03.75-.75 1.6-3.63 2.51-7.95.9-4.34 1.88-10.12 2.89-16.72 1.58-2.3 3.11-3.86 4.11-4.17.39 1.43.78 2.81 1.17 4.15-.38 5.51-2.95 16.09-5.77 27.7-2.75 11.33-5.72 23.57-7.01 32.72-2.06 14.52-.01 22.28 3.63 22.79.12.02.24.03.36.03.81 0 1.55-.37 2.16-.95 1.31-1.21 2.38-3.62 3.54-6.18 1.79-3.95 3.94-8.66 7.54-12 .63-.59 1.3-1.13 2.02-1.61 3.89-2.64 9.32-3.78 14.56-3.78 5.03 0 9.71 1.05 12.52 2.69.93.55 1.64 1.17 2.19 1.83.32.63.69 1.2.99 1.85.56 1.76.19 3.71-.93 5.62-.75 1.28-1.83 2.54-3.16 3.66-2.06 1.73-4.71 3.13-7.6 4.66-3.19 1.68-6.64 3.5-9.65 6.03-.83.69-1.62 1.44-2.38 2.26-1.34 1.46-2.53 3.13-3.66 4.93-2.17 2.45-4.05 5.78-5.44 9.58-2.16 3.79-4.66 7.74-8.07 11.57-8.39 9.45-22.37 18.25-32.03 23.23-4.99 2.58-8.81 4.12-12.13 5.47-2.53 1.02-4.8 1.94-7.06 3.1-.49.26-.98.52-1.48.81-2.92 1.66-5.95 3.89-8.6 6.58-2.1-.89-4.28-1.72-6.49-2.52-6.52-2.36-12.94-4.7-16.62-8.88-4.37-4.94-5.02-12.58-5.52-18.86-.05-.56-.09-1.12-.13-1.68 5.53-4.86 10.92-9.99 15.35-15.7 1.32-1.7 2.53-3.46 3.69-5.25 1.63-.97 2.91-1.87 3.62-2.68zm50.8-101.28c-.87 3.97-1.67 7.8-2.29 11.3.07-.85.12-1.7.25-2.58.39-2.77 1.15-5.71 2.04-8.72zm-1.51 30.08c.13.43.27.91.39 1.29.34 1.1.56 1.88.72 2.52-.38-.77-.79-2.02-1.11-3.81zm9.14-57.92c.63-3.66 1.1-7.07 1.33-10.15.05 1.4.04 2.84-.16 4.41-.02.21-.05.41-.08.62-.23 1.61-.62 3.34-1.09 5.12zm5.54 36.02c-1.56 9.69-2.91 16.58-3.86 18.83-.11-.58-.21-1.43-.21-2.64 0-3.24.66-8.04 2.52-12.78.46-1.19.99-2.32 1.55-3.41zm25.01 85.54c1.84 0 3.72.98 5.37 3.5.05.07.09.15.14.22 3.12 4.97 5.14 14.96 7.35 25.92 2.5 12.4 5.21 25.96 10.15 33.84.98 1.56 2.05 2.91 3.18 4.07 3.73 3.79 8.12 5.52 12.29 6.44-3.68 3.7-7.17 8.16-9.67 12.33-3.66 6.1-5.37 11.73-6.55 15.64-1.22 3.99-1.73 5.08-2.2 5.08-.04 0-.09 0-.18-.03-2.74-.97-9.32-12.83-17.66-29.82-8.24-16.78-17.79-37.62-16.36-54.48.28-3.42 1.03-6.59 2.05-9.46.73-1.28 1.42-2.54 2.09-3.75 1.13-2.05 2.18-3.96 3.28-5.72 2.17-2.4 4.55-3.78 6.72-3.78zm-82.39 65.14c3.02 1.35 5.64 2.86 7.38 4.82 1.16 1.31 1.93 2.81 2.21 4.59 1.43 8.99-9.43 25.54-23.54 33.07.11-.31.21-.62.32-.93.76-2.12 1.51-4.2 2.16-6.18 2.28-7.03 3.19-12.62 3.96-17.29.67-4.13 1.22-7.45 2.45-10.47 1.15-2.82 2.98-5.34 5.06-7.61zm-61.34-45.73c2.3-1.85 4.67-3.54 7.16-5.05 12.72-7.74 28.55-10.92 38.34-10.92 3.56 0 5.83.41 7.13.92-.91 1.65-1.92 3.25-2.94 4.83-5.44 3.07-15.41 7.08-27.11 11.77-13.7 5.49-29.48 11.83-42.3 18.52 6.7-7.72 12.9-14.6 19.72-20.07zm-27.2 26.16c-8.17 9.42-17.43 19.7-29.51 30.08.48-6.03 9.56-18.09 29.51-30.08zm55.32-22.72c-.38 0-.77.06-1.17.18-1.26.38-2.78 1.36-4.47 2.69-3.95 3.09-9.31 8.51-15.33 14.59-7.96 8.04-17.14 17.31-25.99 24.26-13.21 10.37-25.59 15.47-32.5 15.47-2.77 0-4.37-.81-5.01-2.07-.05-.11-.07-.24-.11-.36 14.17-12.05 24.53-24 33.65-34.58.48-.26.92-.53 1.41-.79 13.12-7.12 30-13.88 44.6-19.73 9.74-3.91 18.57-7.44 24.54-10.43-.56.78-1.02 1.62-1.61 2.39-4.12 5.29-9.08 10.09-14.24 14.67-.39-3.38-1.19-6.29-3.77-6.29zm8.95 88.36c-1.19.19-2.38.3-3.57.32h-.4c-17.93 0-36.3-19.75-36.3-37.26 0-1.72.18-3.4.55-5.04 2.45-10.94 13.45-20.15 25.76-30.39 2.45-2.04 4.94-4.13 7.41-6.27.01.15.03.28.04.43.49 6.13 1.12 14.4 5.93 19.84 4.03 4.56 10.91 7.02 17.31 9.34 2.05.74 4 1.48 5.86 2.25-2.02 2.28-3.76 4.85-4.92 7.69-1.32 3.22-1.89 6.75-2.56 10.83-.76 4.66-1.66 10.15-3.9 17.05-.63 1.94-1.37 4-2.13 6.13-.3.82-.58 1.66-.87 2.49-2.67 1.23-5.41 2.15-8.21 2.59zm190.05 73.39c.93 2.63 1.42 4.76 1.64 6.65.38 3.27-.06 5.87-.63 9.22-.94 5.45-2.16 12.59-.47 27.04 1.09 9.34 3.39 21.73 5.96 35.6 5.29 28.45 11.72 63.14 11.37 90.87-.43 33.87-10.85 55.99-14.58 55.99-.3 0-1.09-.44-1.4-3.43-.41-4.04.27-11.3 1.18-21.02 2.32-24.71 6.07-64.57-3.87-103.98-13.81-54.81-54.07-108.73-91.81-130.74-23.68-13.81-46.32-15.03-63.06-15.03-1.91 0-3.74.01-5.48.03-1.6.01-3.12.02-4.57.02-5.31 0-9.5-.18-12.43-1.1-.04-.01-.07-.03-.11-.04-7.94-2.58-6.79-11.09-3.49-21.25.39-1.2.83-2.4 1.26-3.61 15.34-7.4 27.57-25.3 25.95-35.53-.34-2.13-1.27-3.91-2.61-5.43-1.83-2.07-4.48-3.65-7.44-5.02a38.08 38.08 0 0 1 7.74-5.85c.48-.27.95-.52 1.43-.77 2.18-1.12 4.37-2.01 6.91-3.04 3.33-1.35 7.21-2.91 12.27-5.53 9.73-5.01 23.92-13.93 32.52-23.6 2.01-2.26 3.66-4.55 5.16-6.83-.28 1.43-.51 2.87-.63 4.35-1.47 17.4 8.33 38.68 16.52 55.35 8.09 16.46 15.02 29.4 18.61 30.66.23.08.48.13.73.13 2.07 0 2.88-3.26 3.79-6.26 1.18-3.9 2.85-9.37 6.39-15.28 2.71-4.53 6.45-9.18 10.21-12.81 1.8.3 3.53.49 5.12.66 3.86.41 6.52.74 7.78 2.03.42.42.71 1 .89 1.76.46 1.99.11 4.93-.41 9.01-.9 7.18-2.17 17.28.76 29.84.02.12.07.25.1.37.2 5.03.66 10.04 1.58 14.84 3.74 19.53 14.92 35.85 22.34 40.65 2 4.2 3.7 7.99 4.78 11.08zm-28.85-108.72c-1.79-1.82-5.24-2.14-8.8-2.52-1.19-.12-2.44-.27-3.71-.45 3.57-3.16 7.04-5.3 9.56-5.3 1.31 0 2.35.58 3.05 2.07.85 1.81 1.16 4.78 1.18 8.64-.23-.94-.63-1.77-1.28-2.44zm.97 12.02c-.07 1.34-.14 2.71-.23 4.15-.26 4.5-.53 9.38-.66 14.42-.49-7.34.25-13.54.87-18.44 0-.05.01-.09.02-.13zm1.42 37.82c.21.62.38 1.22.6 1.85 4.05 11.51 10.27 24.04 15.74 35.03 1.32 2.65 2.56 5.17 3.75 7.6-6.57-5.99-15.76-20.09-19.11-37.64-.43-2.24-.73-4.53-.98-6.84zm83.94-126.44c-.78 1.6-1.56 3.01-2.33 4.26-3.83 6.18-7.57 8.47-11 10.58-2.81 1.73-5.51 3.38-7.72 6.94-4.21 6.8-6.52 20.55-5.77 33.69-2.09 3.8-1.3 15.52.23 23.15.53 2.63 1.18 4.99 1.77 7.14 1.88 6.85 3.09 11.37-1.26 16.63-1.84 2.23-4.7 4.61-7.99 7.34-7.19 5.97-16.32 13.53-20.01 24.52-2.72 8.14-2.44 18.11-2.22 26.02.23 8.13.19 13-1.61 13.69-.14.05-.31.08-.52.08-.68 0-1.53-.31-2.5-.89-1.58-3.31-3.32-6.84-5.18-10.57-5.48-11.02-11.65-23.45-15.66-34.84-1.12-3.2-2.05-6.29-2.76-9.25-.35-8.85.15-17.76.6-25.63.59-10.3 1.13-19.09-.79-23.17-.97-2.05-2.58-3.02-4.56-3.02-3.28 0-7.54 2.72-11.69 6.61-4.31-.81-8.78-2.37-12.52-6.18a22.973 22.973 0 0 1-2.96-3.78c-4.73-7.56-7.4-20.75-9.93-33.29-2.17-10.79-4.25-21.18-7.57-26.47-.05-.09-.1-.17-.16-.25-1.87-2.86-4.21-4.26-6.76-4.26-1.12 0-2.23.35-3.33.85.05-.06.1-.14.15-.19.7-.76 1.44-1.46 2.22-2.11 2.85-2.4 6.15-4.15 9.36-5.84 2.85-1.51 5.67-2.99 7.89-4.86 1.46-1.22 2.67-2.62 3.53-4.09.48-.82.82-1.66 1.06-2.51 1.22 3.2 2.35 6.52 3.45 10.03 3.06 9.7 6.35 20.2 13.89 28.83 10.17 11.62 27.99 19.78 44.37 19.78 1.91 0 3.8-.11 5.65-.34 17.83-2.2 32.5-15.31 37.31-29.03 2.16-6.18 2.3-12.4 2.21-17.98 7.14-5.01 12.37-10.25 14.46-14.04 1.96-3.53 1.4-6.24-.97-7.55-.98-.54-2.18-.78-3.43-.78-3.42 0-7.67 1.8-9.82 5.31-2.22 3.6-2.07 8.91-1.94 14.6.01.52.01 1.07.02 1.6-10 6.86-23.74 13.22-38 14.25-1.4.11-2.8.16-4.2.16-23.31 0-47.26-13.91-60.05-38.98-13.58-26.62-14.59-65.89-8.64-100.56 5.28-30.74 16-57.52 38.07-73.11.68.5 1.34.99 1.99 1.47 3.57 2.66 6.94 5.21 9.75 5.21.51 0 1.01-.08 1.49-.26 3.55-1.31 5.57-7.85 7.8-14.73.23-.71.47-1.43.7-2.15 8.99-2.75 18.75-4.24 28.45-4.24 19.95 0 39.33 6.17 50.59 19.67 15.84 19.01 15.87 52.81 11.98 86.75-2.76 15.86-6.46 33.59-9.93 50.13-3.07 14.64-5.93 28.32-7.74 38.86-.77 4.44-1.34 8.32-1.67 11.5-1.92 6.14-3.86 11.31-5.8 15.3zm-11.45-24.6c1.79-2.92 5.45-4.51 8.4-4.51 1.06 0 1.96.2 2.63.57 1.23.68 2.03 2.19.32 5.29-1.88 3.4-6.58 8.16-13.04 12.82 0-.15 0-.32-.01-.47-.13-5.9-.2-10.61 1.7-13.7zm124.32 159.39c-3.29 12.24-11.44 37.85-18.88 53.34 6.24-18.27 14.53-42.07 18.88-53.34zm-133.32 93.03c-2.97-9.53-4.79-18.07-4.87-24.99-.22-21.37 16.2-27.38 32.93-27.55.25-.01.51-.01.76-.01 6.39 0 12.7.84 17.95 1.96 14.38 3.07 19.64 7.93 19.15 10.23-.16.73-1 1.59-3.2 2.12-1.59.38-3.75.54-6.32.54-5.14 0-11.75-.64-18.41-1.29-6.43-.62-12.92-1.25-18.1-1.29h-.55c-13.09 0-17.94 4.06-19.39 17.24-.69 6.25-.64 14.64.05 23.04zm5.99 24.06c-.78-2.29-1.44-5.01-2.03-7.88 2.11 5.46 4.46 11.08 6.98 16.79-1.98-2.12-3.61-4.93-4.95-8.91zm200.95 146.35c-1.27-.82-3.1-1.73-5.78-2.04-.77-.09-1.58-.13-2.45-.13-.16 0-.35.02-.51.03.4-8.44 1.57-16.43 2.62-23.44.06-.41.12-.79.18-1.2 2.57 15.6 4.81 23.35 5.94 26.78zm-6.12-39.02c-.05-.39-.11-.75-.16-1.15-.38-2.69-.76-5.56-1.15-8.51 1.32 2.01 1.61 5.3 1.31 9.66zm-68.25 12c1.36 6.4 2.6 12.5 3.66 18.24-2.58-5.51-3.64-12.16-3.66-18.24zm.35-6.34c.33-2.69.87-5.07 1.55-6.9 1.6-4.26 3.87-5.15 7.4-5.15 1.34 0 2.84.13 4.57.29 2.14.19 4.59.41 7.34.41 1.68 0 3.49-.08 5.41-.3 4.63-.54 9.94-1.88 15.15-3.19 5.17-1.31 10.23-2.58 14.55-3.08 1.21-.14 2.37-.22 3.44-.22 2.2 0 3.95.36 5.28 1.08.47 3.67.94 7.2 1.4 10.48.37 2.69.74 5.18 1.1 7.59-.27 2.04-.59 4.19-.94 6.52-1.05 7.05-2.25 15.17-2.65 23.78-4.32.27-9.59 1.23-15.21 2.29-7.87 1.48-16.37 3.08-23.83 3.08-4.64 0-8.8-.62-12.13-2.22-2.71-1.29-4.9-3.26-6.66-5.67-1.52-8.77-3.55-18.49-5.77-28.79zm51.45 160.41c-1.37-5.82-2.73-11.64-4.53-15.24-1.69-3.37-3.75-4.82-5.11-5.78-.77-.55-1.08-.79-1.19-1.02-.08-.15-.19-.65 1.69-2.82 3.65-4.23 12.64-12.51 18.45-12.51 1.93 0 3.55.93 4.5 3.68 1.14 3.27 1.25 8.77.64 15.03-2.61 1.18-4.56 3.74-4.25 7.37.16 1.81.94 3.92 2.09 6.04-1.85 8.31-4.55 16.27-7.55 21.13-1.88-4.05-3.33-9.91-4.74-15.88zm14.22-16.51c-.34 2.78-.8 5.66-1.37 8.55-.51-1.22-.9-2.41-.99-3.47-.2-2.33.84-4.01 2.36-5.08zm6.08 30.46c-2.74 5.09-6.16 7.75-9.1 7.75-1.93 0-3.92-1.14-5.63-4.04-.01-.01-.01-.03-.02-.04 3.19-4.7 5.99-12.53 7.97-20.86 2.6 3.94 6.33 7.53 9.95 9.08-.83 2.93-1.89 5.74-3.17 8.11zm3.58-9.74c-3.56-1.63-7.46-5.63-9.83-9.73.86-4 1.53-8.04 1.94-11.85.44-.13.87-.31 1.33-.35.2-.01.4-.02.59-.02 2.1 0 4.24.96 5.56 3.07 2.42 3.86 2.2 11.6.41 18.88zm4.75.43c-.53.26-1.12.39-1.76.39-.44 0-.93-.16-1.41-.28 1.9-7.61 2.18-15.89-.58-20.3-1.65-2.65-4.35-3.86-6.97-3.86-.24 0-.49.01-.73.03-.35.03-.69.11-1.03.18.55-6.24.39-11.72-.76-15.04-1.17-3.35-3.37-4.8-6.08-4.8-6.7 0-16.17 9-19.71 13.09-1.65 1.9-2.58 3.33-1.92 4.66.35.69 1.1 1.19 1.72 1.63 1.29.9 3.08 2.17 4.58 5.17 1.69 3.38 3.01 8.96 4.4 14.87 1.48 6.25 3.06 12.78 5.26 17.06-.72.95-1.45 1.78-2.19 2.32-.89.64-1.75.91-2.59.91-6.54 0-14.15-15.51-22.16-32.19-.97-2.02-1.95-4.06-2.92-6.05-9.89-20.29-19.54-37.06-21.23-39.75-.1-.15-.18-.28-.25-.37 0-.03-.29-.41-.74-.41-.8 0-.83.8-.83.84 0 .16.04.3.05.31.06.2.25.62.47 1.13.62 1.43 1.75 4.05 2.79 7.11 1.02 3.06 1.95 6.57 2.15 9.76.54 8.73-4.39 15.31-10.67 19.81-4.55 3.26-9.6 5.28-12.04 5.28-1 0-1.01-.29-1.01-.34-.07-.67.68-2.09 2.14-4.65 2.18-3.86 5.4-9.54 6.56-16.66.81-5.01.59-10.69.38-16.23-.21-5.51-.4-10.86.34-15.47.24-1.43.56-2.78 1-4.03 1.1-3.13 2.94-5.71 5.01-8.59 2.38-3.33 5.02-7 6.84-12.18 1.3-3.7 2.17-8.14 2.28-13.75.11-6.21-.76-13.94-2.18-22.66 1.55 1.61 3.33 2.98 5.42 3.98 3.65 1.74 8.09 2.37 12.85 2.37 7.65 0 16.31-1.63 24.14-3.11 5.61-1.05 10.7-1.98 14.84-2.25-.09 2.72-.13 5.48-.01 8.28.71 17.82 6.19 36.76 11.28 54.4 2.5 8.66 4.91 17.02 6.65 24.81 5.35 24.07 4.03 41.82-1.38 44.58z" fill="#000000" class="color000 svgShape"/><path d="M1512.51 671.11c-.11.34-.23.68-.33 1.01-2.41 7.45-4.22 12.74-6.79 13.69-.29.1-.59.15-.92.15-2.12 0-4.93-2.03-8.76-4.88-.48-.36-1-.74-1.51-1.11 2.39-1.6 4.86-3.11 7.51-4.44 3.39-1.71 7.02-3.17 10.8-4.42zM1565.58 881.2c.04 5.22-.21 10.79-2.13 16.28-4.6 13.13-18.75 25.81-35.94 27.93-1.79.22-3.61.33-5.45.33-15.91 0-33.27-7.97-43.11-19.22-7.29-8.32-10.49-18.48-13.56-28.23-1.54-4.91-3.05-9.72-5.04-14.07-.01-.03-.03-.04-.04-.07-.25-.74-.61-1.46-1.15-2.13-4.19-8.17-9.88-14.68-14.91-20.29-2.2-2.46-4.26-4.76-6.01-6.99-6.06-7.75-8.39-14.76-13.12-30.49-.45-1.5-.92-3.09-1.4-4.73.02-.4.04-.79.04-1.14 0-2.01-.42-3.69-1.55-4.3-1.04-3.96-2.03-8.24-2.81-12.8 1.65-13.14 2.65-26.69.52-34.57-.15-.56-.35-1.06-.53-1.57.5-2.64 1.1-5.3 1.87-8 7.92-27.52 30.76-58.1 47.96-63.03 1.85-.53 3.63-.76 5.35-.76 6.34 0 11.88 3.18 16.71 6.57-22.28 16.01-33 43.19-38.26 73.86-5.98 34.81-5.03 74.51 8.8 101.6 13.05 25.59 37.57 39.88 61.53 39.88 1.44 0 2.88-.05 4.32-.15 14.1-1.03 27.74-7.12 37.91-13.91zM1609.1 748.25c.98-25.23-1.98-48.58-14.32-63.39-11.7-14.03-31.65-20.28-51.87-20.28-9.44 0-18.96 1.38-27.8 3.96 2.57-7.65 5.8-15.74 11.3-20.72 5.25-4.75 12.66-6.74 20.82-6.74 10.15 0 21.3 3.08 30.44 7.53 16.4 7.98 26.23 20.3 30.75 39.59 3.53 15.07 3.78 34.46.68 60.05z" fill="#000000" class="color000 svgShape"/></g></svg>