<svg xmlns="http://www.w3.org/2000/svg" enable-background="new 0 0 2000 2000" viewBox="0 0 2000 2000"><rect width="2000" height="2000" fill="#ffffff" fill-rule="evenodd" clip-rule="evenodd" display="none" class="colorfff svgShape"/><path fill="#d5f0ff" d="M156.1,715.8c-53.8,190,164.2,593.4,571.9,758.4c407.8,165,812.8,93.1,904.7-160.5    c37.4-103.8-73.1-221.7-48.3-336.4c18.1-108.6,342.1-312.2,230.1-551.5c-112-239.4-691.1-307.3-904.5-161    C696.4,411.4,623.3,449.1,571.1,468.8C495.3,500.3,209.8,526,156.1,715.8L156.1,715.8z" opacity=".5" class="colord5f0ff svgShape"/><ellipse cx="1041.7" cy="1856.2" fill="#dfe6ff" rx="787.1" ry="56.4" class="colordfe6ff svgShape"/><path fill="#5197fc" fill-rule="evenodd" d="M888,1745c-36.5,25.4-127.9,41.9-191.3,18.1c-19.5-7.2-86.7-32.3-71.1-70.8      c21.8-12,73.1,9.7,65.5-36c-10.4-21-50.1,30.3-70.1,19.4c-25-18.2-48.5-71.9-29.7-102.2c14.1-6.6,92.6,34.2,101.6,15.9      c4.1-19.3-53.5-16.2-80.2-24.4c-26.1-11-15.3-56-11.6-84.1c24.1,27,49,44.3,56.8,34.3c16-26.3-47.8-16.7-56.8-34.3      c5.4-40.6-9.4-53.4,6.9-70.6c28.2-5.5,41.3-7.3,66.9,2.3c55,22,26.2,110.9,46.1,108.3c15.1-10-11.7-73.9-2.8-80.6      c15.7-16.7,60.6-1.1,66.2,18.4c8.3,28.7-19.4,103-3.9,108.6c19.3,7,13.8-92.5,47-105.1c28.2-7.9,63.8,14.9,84.9,34.1      c33.7,20.4-78.1,104.2-69.5,115.5c34.7,13,86.8-113.3,121.2-65.4c16.2,27.4,11.2,58.9,4.6,89.3      C958.4,1682.6,914.6,1727.6,888,1745L888,1745z M820.1,1523.7c-4.2,2.6-5.3,8.5-2.3,13.2c2.9,4.7,8.6,6.3,12.9,3.7      c4.1-2.7,5.2-8.6,2.2-13.2C830.1,1522.6,824.2,1521,820.1,1523.7L820.1,1523.7z M744,1613.3c14.5,4.1-4,16-12.3,15.4      c-10.2,1.3-25.2,0.7-30.4-9.6C707.2,1607.5,725.6,1608.8,744,1613.3L744,1613.3z M772.4,1670c-11.9-18.6-51,4.2-51.1,16.3      C724.5,1697,777,1685.1,772.4,1670L772.4,1670z M872.9,1638.9c6.9-4.6,5.2,7.4,2,10.6c-3.1,4.7-8.8,10.8-15,9.3      C857.2,1652.2,864.3,1644.9,872.9,1638.9L872.9,1638.9z M737.6,1507.1c-6.4,6.7-5.1,19.3-2.3,27.6c6.8,1.6,8.4-8.6,9.9-14.9      C747.2,1513,743.5,1504.2,737.6,1507.1L737.6,1507.1z" clip-rule="evenodd" class="color5197fc svgShape"/><path fill="#ffffff" d="M999,1839.3c-1.7,1.6-4.3,1.8-6.2,0.4c-66.3-51-127.9-106.9-183.1-166.2        c-62.3-66.9-118.8-140.6-167.9-218.9c-1.4-2.2-0.7-5.1,1.5-6.5c2.2-1.4,5.1-0.7,6.5,1.5c93.1,148.6,207.2,273.7,348.8,382.6        c2.1,1.6,2.5,4.6,0.9,6.6C999.3,1839,999.1,1839.1,999,1839.3z" class="colorfff svgShape"/><path fill="#ffffff" d="M723 1562.7c-.6.6-1.4 1.1-2.4 1.3-19.1 3.9-37.5 3.2-54.5-2.1-15.8-4.9-30.6-13.6-44.1-26.1-1.9-1.8-2-4.8-.2-6.7 1.8-1.9 4.8-2 6.7-.2 25.8 24 56.2 32.7 90.3 25.9 2.6-.5 5.1 1.1 5.6 3.7C724.7 1560 724.1 1561.6 723 1562.7zM831.7 1689.8c-.1.1-.1.1-.2.2-49.1 43-109.1 52.9-173.5 28.5-2.4-.9-3.7-3.7-2.8-6.1.9-2.4 3.7-3.7 6.1-2.8 60.9 23 117.6 13.8 163.9-26.8 2-1.7 5-1.5 6.7.4C833.6 1685.2 833.5 1688.1 831.7 1689.8zM817 1604.7c-10.1 10-22.3 19.7-37 29.6-2.2 1.5-5.1.9-6.6-1.3-1.5-2.2-.9-5.1 1.3-6.6 50.9-34.3 73.6-69.4 78.5-121.2.2-2.6 2.6-4.5 5.2-4.3 2.6.2 4.5 2.6 4.3 5.2-2.8 29.4-11.3 54-26 75.3C831.1 1589.5 824.6 1597.2 817 1604.7zM898 1696.9c-11.6 11.4-23.9 19.4-35.5 25.7-2.3 1.3-5.2.4-6.4-1.9-1.3-2.3-.4-5.2 1.9-6.4 32.3-17.6 70.6-49.3 79.7-138.1.3-2.6 2.6-4.5 5.2-4.2 2.6.3 4.5 2.6 4.2 5.2C940.7 1639 920.7 1674.5 898 1696.9z" class="colorfff svgShape"/><path fill="#84b2fe" fill-rule="evenodd" d="M1688.2,1326.7c-18.1-7-50.1-28.2-62.3-54.9c-7.9-17.3-14.8-35.5-8.7-54      c14.3-33.1,61.7,35.7,80.8,23.5c3.7-7.9-73.9-43.6-56.4-60.1c10.1-14.2,28.5-32.4,46.4-31.3c21.4,3.3,31,63.4,41.6,56.8      c8.5-5.3-17.6-46.1-16.3-64.4c0.9-12.4,25.7-27.5,37.2-19.5c6.2,2.9-1.6,44.5,8.7,48.5c12.2-1-16.4-50.4,13.6-70.6      c14-9,22.1-9.6,39.7-10c11.9,8.2,4.7,17.7,13.2,41.3c-3.1,11.7-42.5,14.1-29.6,27.8c6,5,18.6-8.6,29.6-27.8      c5.8,16.3,18,41.8,3.9,51.7c-14.9,8.3-49.7,13.9-44.8,24.9c7.7,9.8,49.4-24.7,58.7-22.6c15.1,15.7,8,50.8-4.6,64.9      c-10.6,9.1-40.9-16.5-44.4-2.6c1.3,28.3,29.2,8.7,43.8,13.1c14.3,21-22.7,44.7-33.4,51.5      C1770,1335.3,1713.3,1337.2,1688.2,1326.7L1688.2,1326.7z M1700.3,1185.7c-2.8-1.1-6.1,0.7-7.2,3.8c-1.2,3.2,0.2,6.5,3,7.6      c2.9,1,6.1-0.7,7.2-3.8C1704.5,1190.1,1703.1,1186.7,1700.3,1185.7L1700.3,1185.7z M1757.3,1229.5c10.4-5.1,21.2-8.2,26.3-2.1      c-1.8,6.8-10.7,9.2-16.9,9.7C1761.8,1238.5,1749.2,1233.8,1757.3,1229.5L1757.3,1229.5z M1747.6,1267c-0.8,9.6,32.1,10,32.7,3.2      C1778.7,1262.9,1752.4,1254.3,1747.6,1267L1747.6,1267z M1683.6,1261.3c5.9,2.5,11.1,5.9,10.3,10.2c-3.5,1.7-7.7-1.2-10.1-3.6      C1681.4,1266.4,1678.9,1259.5,1683.6,1261.3L1683.6,1261.3z M1747.4,1165.1c-3.9-0.9-5,4.8-2.9,8.6c1.7,3.5,4,9.4,7.8,7.6      C1753,1176.1,1752.1,1168.3,1747.4,1165.1L1747.4,1165.1z" clip-rule="evenodd" class="color84b2fe svgShape"/><path fill="#ffffff" d="M1634,1397.3c1.2,0.8,2.8,0.5,3.8-0.6c33.1-39,62.7-80.3,88.1-122.9        c28.6-48,52.9-99.3,72.2-152.4c0.5-1.5-0.2-3.2-1.7-3.7c-1.5-0.5-3.2,0.2-3.7,1.7c-36.5,100.7-88.6,190.2-159.2,273.5        c-1,1.2-0.9,3,0.3,4.1C1633.8,1397.1,1633.9,1397.2,1634,1397.3z" class="colorfff svgShape"/><path fill="#ffffff" d="M1763.3 1196.5c.5.3 1 .5 1.6.4 11.9-.2 22.8-2.9 32.3-8.3 8.8-4.9 16.6-12.1 23-21.3.9-1.3.6-3.1-.7-4-1.3-.9-3.1-.6-4 .7-12.4 17.7-29.4 26.8-50.6 27.1-1.6 0-2.9 1.3-2.9 2.9C1762 1195.1 1762.5 1196 1763.3 1196.5zM1714.7 1286.5c0 0 .1.1.1.1 34.9 19.4 72 17.6 107.3-5.3 1.3-.9 1.7-2.7.9-4-.9-1.3-2.7-1.7-4-.9-33.4 21.6-68.5 23.3-101.4 5.1-1.4-.8-3.2-.3-3.9 1.1C1713 1284 1713.4 1285.6 1714.7 1286.5zM1712.6 1233.7c7.3 4.7 15.9 8.9 25.9 12.9 1.5.6 3.2-.1 3.8-1.6.6-1.5-.1-3.2-1.6-3.8-34.8-14-52.9-32-62.5-62.3-.5-1.5-2.1-2.4-3.6-1.9-1.5.5-2.4 2.1-1.9 3.6 5.4 17.2 13.7 30.8 25.2 41.7C1702.2 1226.4 1707.1 1230.2 1712.6 1233.7zM1676.1 1299.2c8.4 5.3 16.8 8.5 24.5 10.8 1.5.5 3.1-.4 3.6-2 .5-1.5-.4-3.1-2-3.6-21.6-6.4-48.5-20.4-65.4-72.3-.5-1.5-2.1-2.4-3.6-1.9-1.5.5-2.4 2.1-1.9 3.6C1643 1270.1 1659.6 1288.8 1676.1 1299.2z" class="colorfff svgShape"/><path fill="#8dafdb" fill-rule="evenodd" d="M1501,777.1h267.9c7.8,0,14.2,6.4,14.2,14.2v155c0,7.8-6.4,14.2-14.2,14.2H1578l-49.6,50.3     c-3.6,3.5-6.7,2.5-6.8,1v-51.3H1501c-7.8,0-14.2-6.4-14.2-14.2v-155C1486.8,783.5,1493.2,777.1,1501,777.1L1501,777.1z" clip-rule="evenodd" class="color8dafdb svgShape"/><path fill="#ffffff" fill-rule="evenodd" d="M1490.8,768.6h267.9c7.8,0,14.2,6.4,14.2,14.2v155c0,7.8-6.4,14.2-14.2,14.2h-190.9     l-49.6,50.3c-3.6,3.5-6.7,2.5-6.8,1v-51.3h-20.6c-7.8,0-14.2-6.4-14.2-14.2v-155C1476.7,775,1483,768.6,1490.8,768.6     L1490.8,768.6z" clip-rule="evenodd" class="colorfff svgShape"/><path fill="#8dafdb" fill-rule="evenodd" d="M1556.6 876.1c-8.8 0-15.9-7.1-15.9-15.9 0-8.7 7.1-15.9 15.9-15.9 8.7 0 15.9 7.1 15.9 15.9C1572.5 869 1565.3 876.1 1556.6 876.1L1556.6 876.1zM1623.6 876.1c-8.8 0-15.9-7.1-15.9-15.9 0-8.7 7.1-15.9 15.9-15.9 8.7 0 15.9 7.1 15.9 15.9C1639.5 869 1632.4 876.1 1623.6 876.1L1623.6 876.1zM1692.9 876.1c-8.8 0-15.9-7.1-15.9-15.9 0-8.7 7.1-15.9 15.9-15.9 8.7 0 15.9 7.1 15.9 15.9C1708.8 869 1701.7 876.1 1692.9 876.1L1692.9 876.1z" clip-rule="evenodd" class="color8dafdb svgShape"/><path fill="#feb542" d="M1699.1,434.4l14.1,43.3c1.4,4.2,5.3,7,9.7,7h45.5c9.9,0,14,12.6,6,18.4l-36.8,26.7     c-3.6,2.6-5.1,7.2-3.7,11.4l14.1,43.3c3,9.4-7.7,17.2-15.7,11.4l-36.8-26.7c-3.6-2.6-8.4-2.6-12,0l-36.8,26.7     c-8,5.8-18.7-2-15.7-11.4l14.1-43.3c1.4-4.2-0.1-8.8-3.7-11.4l-36.8-26.7c-8-5.8-3.9-18.4,6-18.4h45.5c4.4,0,8.3-2.8,9.7-7     l14.1-43.3C1682.8,425.1,1696,425.1,1699.1,434.4z" class="colorfeb542 svgShape"/><path fill="#fcc070" d="M1695.2,434.4l14.1,43.3c1.4,4.2,5.3,7,9.7,7h45.5c9.9,0,14,12.6,6,18.4l-36.8,26.7     c-3.6,2.6-5.1,7.2-3.7,11.4l14.1,43.3c3,9.4-7.7,17.2-15.7,11.4l-36.8-26.7c-3.6-2.6-8.4-2.6-12,0l-36.8,26.7     c-8,5.8-18.7-2-15.7-11.4l14.1-43.3c1.4-4.2-0.1-8.8-3.7-11.4l-36.8-26.7c-8-5.8-3.9-18.4,6-18.4h45.5c4.4,0,8.3-2.8,9.7-7     l14.1-43.3C1678.9,425.1,1692.1,425.1,1695.2,434.4z" class="colorfcc070 svgShape"/><path fill="#e9708a" d="M280.6,875.2c10.1-19.2,20.2-28.7,40.4-28.7c22.3,0,40.4,17.2,40.4,38.3    c0,38.3-40.4,76.6-80.8,114.9c-40.4-38.3-80.8-76.6-80.8-114.9c0-21.1,18.1-38.3,40.4-38.3C260.4,846.4,270.5,856,280.6,875.2    L280.6,875.2z" class="colore9708a svgShape"/><path fill="#0643a3" fill-rule="evenodd" d="M1052.1,1326.9h24.2h4.2h1.4h3.3h2.4h2.4h3.2h1.5h4.1h0.6h4.8h0.3h4.4h1.3h3.5h2.2h2.6h3h1.7h4h0.7h4.8h0.1     h4.6h1.1h3.7h1.9h2.8h2.9h1.8h3.8h1h4.7h0h4.7h0.9h3.9h1.8h2.9h2.7h2.1h3.6h1.2h4.5h0.2h4.8h0.7h4h1.6h3.2h2.5h2.3h3.4h1.3h4.3     h0.4h4.7h0.5h4.3h1.3h3.4h2.3h2.5h3.2h1.5h4.1h0.6h4.8h0.2h4.5h1.2h3.6h2.1h2.6h3h1.7h3.9h0.9h4.7h0h4.7h1h3.8h1.9h2.8h2.8h2h3.7     h1.1h4.6h0.1h4.8h0.7h4h1.7h3.1h2.6h2.2h3.5h1.3h4.4h0.4h4.7h0.5h4.2h1.4h3.3h2.3h2.4h3.3h1.4h4.2h0.6h4.7h0.3h4.4h1.3h3.5h2.1     h2.6h3h1.7h3.9h0.8h4.8h0.1h4.6h1h3.7h2h2.8h2.8h1.9h3.8h1h4.7h0.1h4.7h0.8h3.9h1.7h3h2.6h2.1h3.5h1.2h4.5h0.3h4.7h0.6h4.1h1.5     h3.2h2.4h2.3h3.3h1.4h4.3h0.5h4.7h0.4h4.3h1.3h3.4h2.2h2.5h3.1h1.6h4h0.7h4.7h0.2h4.5h1.1h3.6h2h2.7h2.9h1.8h3.9h0.9h4.8l0,0h4.7     h0.9h3.9h1.8h2.9h2.7h2h3.7h1.1h4.5h0.2h4.8h0.7h4h1.6h3.1h2.6h2.2h3.4h1.3h4.3h0.4h4.8h0.5h4.2h1.4h3.4h2.3h2.4h3.2h1.5h4.1h0.6     h4.7h0.3h4.5h1.2h3.6h2.1h2.6h3h1.7h3.9h0.8h140.2c12.7,0,19.9,12,16.2,26.7c-21.2,84.9-41.4,165.3-60.4,241.5     c-18.1,72.2-35.2,140.7-51.5,205.9c-2.6,10.5-13.4,19.2-23.9,19.2h-24.2h-4.2h-1.4h-3.3h-2.3h-2.4h-3.2h-1.5h-4.2h-0.6h-4.7h-0.3     h-4.4h-1.3h-3.5h-2.2h-2.6h-3.1h-1.7h-3.9h-0.8h-4.7h-0.1h-4.6h-1.1h-3.7h-2h-2.7h-2.9h-1.9h-3.8h-1h-4.7h0h-4.7h-0.9h-3.9h-1.8     h-3h-2.6h-2.1h-3.6h-1.1h-4.5h-0.2h-4.7h-0.7h-4.1h-1.5h-3.2h-2.5h-2.2h-3.4h-1.3h-4.3h-0.4h-4.8h-0.4h-4.3h-1.4h-3.3h-2.3h-2.5     h-3.2h-1.5h-4.1h-0.7h-4.7h-0.3h-4.4h-1.2h-3.6h-2.1h-2.6h-3h-1.8h-3.9h-0.9h-4.7h-0.1h-4.7h-1h-3.8h-1.9h-2.9h-2.7h-2h-3.7h-1.1     h-4.6h-0.1h-4.7h-0.8h-4h-1.6h-3.1h-2.6h-2.2h-3.5h-1.3h-4.3h-0.4h-4.8h-0.5h-4.2h-1.4h-3.3h-2.4h-2.4h-3.2h-1.5h-4.1h-0.6h-4.7     h-0.3h-4.4h-1.2h-3.5h-2.2h-2.6h-3.1h-1.7h-3.9h-0.8h-4.7h-0.1h-4.6h-1.1h-3.7h-1.9h-2.8h-2.8h-1.9h-3.8h-1h-4.6h-0.1h-4.7h-0.8     h-3.9h-1.7h-3h-2.6h-2.1h-3.6h-1.2h-4.4h-0.3h-4.7h-0.6h-4.1h-1.5h-3.2h-2.5h-2.3h-3.3h-1.4h-4.2h-0.5h-4.8h-0.4h-4.3h-1.3h-3.4     h-2.3h-2.5h-3.1h-1.6h-4h-0.7h-4.7h-0.2h-4.5h-1.2h-3.6h-2h-2.7h-2.9h-1.8h-3.9h-0.9h-4.7l0,0h-4.8h-0.9h-3.8h-1.8h-2.9h-2.7h-2     h-3.6h-1.1h-4.5h-0.2h-4.7h-0.7h-4h-1.6h-3.1h-2.5h-2.2h-3.4h-1.3h-4.3h-0.4h-4.7h-0.5h-4.2h-1.4h-3.3h-2.3h-2.5h-3.2h-1.5h-4.1     h-0.6h-4.8h-0.3h-4.4h-1.2h-3.5h-2.1h-2.6h-3h-1.7h-3.9h-0.9H932.4c-12.7,0-19.9-12-16.2-26.7c21.2-84.9,41.3-165.3,60.4-241.5     c18.1-72.1,35.2-140.7,51.5-205.9C1030.7,1335.6,1041.5,1326.9,1052.1,1326.9L1052.1,1326.9z" clip-rule="evenodd" class="color0643a3 svgShape"/><path fill="#2c7efe" fill-rule="evenodd" d="M997.1,1304.1h25.7h4.5h1.5h3.5h2.5h2.6h3.5h1.5h4.4h0.6h5h0.3h4.7h1.3h3.7h2.3h2.7h3.3h1.8h4.2h0.8h5h0.2     h4.9h1.1h3.9h2.1h2.9h3h2h4h1h5h0h5h0.9h4.1h1.9h3.1h2.8h2.2h3.8h1.2h4.8h0.2h5.1h0.7h4.3h1.7h3.4h2.6h2.4h3.6h1.4h4.6h0.5h5h0.5     h4.5h1.4h3.6h2.5h2.6h3.4h1.6h4.3h0.7h5.1h0.3h4.7h1.3h3.8h2.2h2.8h3.2h1.9h4.1h0.9h5h0.1h5h1h4h2h3h2.9h2.1h3.9h1.2h4.9h0.1h5     h0.8h4.2h1.7h3.3h2.7h2.3h3.7h1.3h4.6h0.4h5h0.6h4.4h1.5h3.5h2.5h2.6h3.5h1.5h4.4h0.6h5h0.3h4.7h1.3h3.7h2.3h2.7h3.2h1.8h4.2h0.9     h5h0.1h4.9h1.1h3.9h2h3h3h2h4h1.1h4.9h0.1h5h0.9h4.2h1.8h3.2h2.8h2.2h3.8h1.3h4.7h0.3h5.1h0.6h4.4h1.6h3.4h2.6h2.5h3.5h1.5h4.5     h0.5h5.1h0.4h4.6h1.4h3.7h2.4h2.6h3.3h1.7h4.3h0.7h5h0.2h4.8h1.2h3.9h2.2h2.9h3.1h1.9h4.1h0.9h5.1l0,0h5h1h4.1h1.9h3.1h2.9h2.1     h3.9h1.2h4.8h0.2h5.1h0.7h4.3h1.7h3.3h2.6h2.4h3.7h1.3h4.6h0.4h5h0.5h4.5h1.5h3.5h2.5h2.6h3.4h1.6h4.4h0.6h5.1h0.3h4.7h1.3h3.8     h2.2h2.8h3.2h1.8h4.2h0.9h148.8c13.5,0,21.1,13,17.2,28.8c-22.6,91.5-43.9,178.1-64.1,260.3c-19.2,77.8-37.4,151.7-54.7,221.9     c-2.8,11.4-14.2,20.8-25.4,20.8h-25.7h-4.5h-1.5h-3.5h-2.5h-2.6h-3.5h-1.6h-4.4h-0.6h-5.1h-0.3h-4.7h-1.3h-3.7h-2.3h-2.7h-3.2     h-1.8h-4.2h-0.8h-5.1h-0.1h-4.9h-1.2h-3.9h-2.1h-2.9h-3h-2h-4h-1h-5h0h-5.1h-0.9h-4.1h-1.9h-3.2h-2.8h-2.2h-3.8h-1.2h-4.8h-0.2     h-5h-0.7h-4.3h-1.6h-3.4h-2.6h-2.4h-3.6h-1.4h-4.6h-0.4h-5.1h-0.5h-4.5h-1.5h-3.6h-2.4h-2.6h-3.4h-1.6h-4.4h-0.7h-5h-0.3h-4.8     h-1.3h-3.8h-2.2h-2.8h-3.1h-1.9h-4.1h-0.9h-5.1h0h-5h-1.1h-4h-2h-3h-2.9h-2.1h-3.9h-1.1h-4.9h-0.1h-5.1h-0.8h-4.2h-1.8h-3.3h-2.7     h-2.3h-3.7h-1.4h-4.6h-0.4h-5h-0.6h-4.5h-1.5h-3.5h-2.5h-2.6h-3.4h-1.6h-4.4h-0.6h-5h-0.4h-4.7h-1.3h-3.7h-2.3h-2.7h-3.3h-1.8     h-4.2h-0.8h-5h-0.1h-4.9h-1.1h-3.9h-2.1h-2.9h-3h-2h-3.9h-1.1h-4.9h-0.1h-5.1h-0.9h-4.1h-1.8h-3.2h-2.8h-2.3h-3.8h-1.3h-4.7h-0.3     h-5h-0.6h-4.4h-1.6h-3.4h-2.6h-2.5h-3.6h-1.4h-4.5h-0.5h-5h-0.4h-4.6h-1.4h-3.6h-2.4h-2.6h-3.4h-1.7h-4.3h-0.7h-5.1h-0.2h-4.8     h-1.2h-3.9h-2.1h-2.9h-3.1h-1.9h-4.1h-1h-5l0,0h-5.1h-1h-4h-1.9h-3.1h-2.9h-2.1h-3.9h-1.2h-4.8h-0.2h-5h-0.8h-4.3h-1.7h-3.3h-2.7     h-2.3h-3.7h-1.4h-4.6h-0.4h-5.1h-0.5h-4.5h-1.5h-3.6h-2.5h-2.6h-3.4h-1.6h-4.4h-0.7h-5h-0.3h-4.7h-1.3h-3.8h-2.2h-2.8h-3.2h-1.8     h-4.1h-0.9H870.1c-13.4,0-21.1-13-17.2-28.8c22.5-91.5,43.9-178.1,64.1-260.3c19.2-77.8,37.4-151.7,54.7-221.9     C974.5,1313.5,985.9,1304.1,997.1,1304.1L997.1,1304.1z" clip-rule="evenodd" class="color2c7efe svgShape"/><linearGradient id="a" x1="1329.79" x2="1329.79" y1="1811.429" y2="1328.613" gradientUnits="userSpaceOnUse"><stop offset="0" stop-color="#62cbec" class="stopColor62cbec svgShape"/><stop offset="1" stop-color="#d5f0ff" class="stopColord5f0ff svgShape"/></linearGradient><path fill="url(#a)" fill-rule="evenodd" d="M1023.2,1328.6h23.6h4.1h1.4h3.2h2.3h2.4h3.2h1.4h4.1h0.6h4.6h0.3h4.3h1.2h3.4h2.1h2.5h3h1.6h3.9h0.8h4.6     h0.1h4.5h1.1h3.6h1.9h2.7h2.8h1.8h3.7h0.9h4.6h0h4.7h0.8h3.8h1.7h2.9h2.6h2h3.5h1.1h4.4h0.2h4.6h0.7h3.9h1.5h3.1h2.5h2.2h3.3h1.3     h4.2h0.4h4.6h0.5h4.2h1.3h3.3h2.2h2.4h3.1h1.5h4h0.6h4.6h0.2h4.4h1.2h3.5h2h2.6h2.9h1.7h3.8h0.8h4.6h0h4.6h1h3.7h1.8h2.8h2.7h1.9     h3.6h1h4.5h0.2h4.6h0.7h3.9h1.6h3h2.5h2.2h3.4h1.3h4.2h0.4h4.6h0.5h4.1h1.4h3.2h2.3h2.4h3.2h1.4h4h0.6h4.6h0.3h4.3h1.2h3.4h2.1     h2.6h3h1.6h3.9h0.8h4.6h0.1h4.5h1h3.6h1.9h2.7h2.8h1.9h3.7h1h4.5h0.1h4.6h0.8h3.8h1.7h2.9h2.6h2.1h3.4h1.2h4.3h0.3h4.6h0.6h4h1.5     h3.2h2.4h2.3h3.3h1.3h4.1h0.5h4.6h0.4h4.2h1.3h3.4h2.2h2.5h3.1h1.5h3.9h0.7h4.6h0.2h4.4h1.1h3.5h2h2.6h2.9h1.8h3.8h0.9h4.6l0,0     h4.6h0.9h3.8h1.8h2.8h2.6h2h3.6h1.1h4.4h0.2h4.6h0.7h3.9h1.6h3h2.5h2.2h3.4h1.3h4.2h0.4h4.6h0.5h4.1h1.4h3.3h2.3h2.4h3.1h1.5h4     h0.6h4.7h0.2h4.4h1.2h3.5h2.1h2.6h2.9h1.7h3.9h0.8h137.1c12.4,0,19.4,11.8,15.8,26.1c-20.8,83.1-40.4,161.8-59.1,236.3     c-17.6,70.7-34.4,137.8-50.4,201.6c-2.6,10.4-13.1,18.8-23.4,18.8h-23.6h-4.1h-1.4h-3.2h-2.3h-2.4h-3.2h-1.4h-4h-0.6h-4.6h-0.3     h-4.3h-1.3h-3.4h-2.1h-2.6h-3h-1.6h-3.9h-0.7h-4.6h-0.1h-4.5h-1h-3.6h-1.9h-2.7h-2.8h-1.8h-3.7h-1h-4.6h0h-4.6h-0.9h-3.8h-1.7     h-2.9h-2.6h-2h-3.5h-1.1h-4.4h-0.2h-4.6h-0.7h-4h-1.5h-3.1h-2.4h-2.2h-3.3h-1.3h-4.2h-0.4h-4.6h-0.4h-4.2h-1.3h-3.3h-2.3h-2.4     h-3.1h-1.5h-4h-0.6h-4.6h-0.3h-4.3h-1.2h-3.5h-2h-2.6h-2.9h-1.7h-3.8h-0.8h-4.7h0h-4.6h-0.9h-3.7h-1.8h-2.8h-2.7h-1.9h-3.6h-1.1     h-4.5h-0.1h-4.6h-0.8h-3.9h-1.6h-3h-2.5h-2.1h-3.4h-1.3h-4.3h-0.3h-4.7h-0.5h-4.1h-1.4h-3.2h-2.3h-2.3h-3.2h-1.4h-4.1h-0.6h-4.6     h-0.3h-4.3h-1.2h-3.4h-2.1h-2.6h-3h-1.6h-3.9h-0.7h-4.6h-0.1h-4.5h-1h-3.6h-1.9h-2.7h-2.8h-1.8h-3.7h-1h-4.6h0h-4.7h-0.8h-3.9     h-1.7h-2.9h-2.6h-2.1h-3.5h-1.2h-4.3h-0.3h-4.7h-0.6h-4h-1.5h-3.1h-2.4h-2.3h-3.3h-1.3h-4.2h-0.5h-4.6h-0.4h-4.2h-1.3h-3.3h-2.2     h-2.4h-3.1h-1.6h-3.9h-0.7h-4.6h-0.2h-4.4h-1.1h-3.6h-2h-2.6h-2.8h-1.8h-3.8h-0.9h-4.7l0,0h-4.6h-0.9h-3.8h-1.8h-2.8h-2.7h-1.9     h-3.6h-1.1h-4.4h-0.2h-4.6h-0.7h-3.9h-1.6h-3.1h-2.5h-2.2h-3.3h-1.3h-4.2h-0.4h-4.7h-0.5h-4.1h-1.3h-3.3h-2.3h-2.4h-3.2h-1.4h-4     h-0.6h-4.6h-0.3h-4.3h-1.2h-3.5h-2.1h-2.6h-2.9h-1.7h-3.8h-0.8H906.2c-12.4,0-19.5-11.8-15.8-26.1c20.8-83.1,40.4-161.8,59-236.4     c17.7-70.7,34.4-137.7,50.4-201.5C1002.4,1337.1,1012.9,1328.6,1023.2,1328.6L1023.2,1328.6z" clip-rule="evenodd"/><path fill="#0643a3" fill-rule="evenodd" d="M1661.7,1804H475.9c-14.4,0-26.1,11.8-26.1,26.1l0,0c0,14.4,11.8,26.1,26.1,26.1h1185.8     c14.4,0,26.1-11.8,26.1-26.1l0,0C1687.8,1815.7,1676,1804,1661.7,1804L1661.7,1804z" clip-rule="evenodd" class="color0643a3 svgShape"/><path fill="#2c7efe" fill-rule="evenodd" d="M1680.1,1795.5H452.9c-6.7,0-12.2,5.5-12.2,12.2l0,0c0,6.7,5.5,12.2,12.2,12.2h1227.2     c6.7,0,12.2-5.5,12.2-12.2l0,0C1692.3,1801,1686.8,1795.5,1680.1,1795.5L1680.1,1795.5z" clip-rule="evenodd" class="color2c7efe svgShape"/><linearGradient id="b" x1="970.036" x2="1220.185" y1="1397.507" y2="1397.507" gradientUnits="userSpaceOnUse"><stop offset="0" stop-color="#62cbec" class="stopColor62cbec svgShape"/><stop offset="1" stop-color="#d5f0ff" class="stopColord5f0ff svgShape"/></linearGradient><polygon fill="url(#b)" points="1220.2 1328.6 970 1466.4 987.3 1397.3 1112 1328.6 1113.1 1328.6 1115.9 1328.6 1118.7 1328.6 1120.5 1328.6 1124.2 1328.6 1125.1 1328.6 1129.7 1328.6 1129.7 1328.6 1134.4 1328.6 1135.2 1328.6 1139 1328.6 1140.8 1328.6 1143.7 1328.6 1146.3 1328.6 1148.3 1328.6 1151.8 1328.6 1152.9 1328.6 1157.3 1328.6 1157.6 1328.6 1162.2 1328.6 1162.9 1328.6 1166.8 1328.6 1168.4 1328.6 1171.4 1328.6 1173.9 1328.6 1176.1 1328.6 1179.4 1328.6 1180.7 1328.6 1184.9 1328.6 1185.4 1328.6 1190 1328.6 1190.5 1328.6 1194.7 1328.6 1196 1328.6 1199.3 1328.6 1201.5 1328.6 1203.9 1328.6 1207 1328.6 1208.5 1328.6 1212.6 1328.6 1213.2 1328.6 1217.8 1328.6 1218.1 1328.6"/><linearGradient id="c" x1="948.412" x2="1355.374" y1="1440.684" y2="1440.684" gradientUnits="userSpaceOnUse"><stop offset="0" stop-color="#62cbec" class="stopColor62cbec svgShape"/><stop offset="1" stop-color="#d5f0ff" class="stopColord5f0ff svgShape"/></linearGradient><polygon fill="url(#c)" points="1355.4 1328.6 948.4 1552.8 949.4 1548.9 957.1 1518.2 1301.3 1328.6 1305.9 1328.6 1306.4 1328.6 1310.5 1328.6 1311.9 1328.6 1315.2 1328.6 1317.4 1328.6 1319.8 1328.6 1323 1328.6 1324.4 1328.6 1328.5 1328.6 1329 1328.6 1333.7 1328.6 1334 1328.6 1338.3 1328.6 1339.5 1328.6 1342.9 1328.6 1345 1328.6 1347.6 1328.6 1350.6 1328.6 1352.2 1328.6"/><g><path fill="#84b2fe" d="M853.3,236.1c-31.3-20.3-62.8-60-53.3-90c5-11.2-12.5-11.5-19.7-4.7     c-24.3,27.5,2.8,64.9-4.4,71.8c-2.9,5.9-39.6,1.3-52.7,7.1c-10.7,5.3-14.3,15-8.5,23.2c2.8,4.1,9.7,4.6,10.6,6.5     c0.6,1.6-13.4-2.1-19.1,9.4c-2.9,6.9-1.9,17.2,7.2,20.4c4.7,2.1,12.2-0.6,13.5,1.5c1.5,1.9-14.4,3.2-16.8,15     c-0.7,7.1,3.8,13.7,9.7,15.3c4.4,1.8,12.9-0.1,13.8,2.1c1.2,2.6-12.4,2.2-9.6,16.9c2.8,8.7,9.7,10.8,14.7,12.2     c45.9,8.8,82.7-0.3,115.3-22.2L853.3,236.1z" class="color84b2fe svgShape"/><rect width="34.7" height="97.7" x="865.3" y="229.9" fill="#2c7efe" class="color2c7efe svgShape"/><path fill="#dfe4f2" d="M877,310.3c3.6,0,6.5,2.9,6.5,6.5c0,3.6-2.9,6.5-6.5,6.5c-3.6,0-6.5-2.9-6.5-6.5     C870.5,313.2,873.4,310.3,877,310.3L877,310.3z" class="colordfe4f2 svgShape"/></g><g><path fill="#84b2fe" d="M723.8 759.9l-134.6-51 0 0c-.1 0-.1-.1-.2-.1-3.6-1.6-2.1-12.9 3.4-25.2 5.5-12.3 13-21 16.6-19.3.1 0 .1.1.2.1l0 0 130.7 68.5L949 841.2 723.8 759.9zM738.7 948l-107.7 3.6 0 0c-.1 0-.1 0-.1 0-3-.1-5.2-8.3-4.9-18.4.3-10.1 2.9-18.2 5.9-18.1.1 0 .1 0 .1 0l0 0 110 9.6 175.7 14.5L738.7 948zM895.7 617.2l-64-86.7 0 0c0 0-.1-.1-.1-.1-1.6-2.5 3.9-9 12.4-14.5 8.5-5.5 16.7-7.9 18.3-5.4 0 0 .1.1.1.1l0 0 54.4 96.1 87.5 153.1L895.7 617.2z" class="color84b2fe svgShape"/><path fill="#2c7efe" fill-rule="evenodd" d="M1248.9,1087.2l-45.5-25.2c-15-8.3-34.2-1.3-41.8,14.1l0,0c-7.6,15.4-1.2,34.1,14.1,41.8      l40,20.2L1248.9,1087.2z" clip-rule="evenodd" class="color2c7efe svgShape"/><path fill="#dfe6ff" fill-rule="evenodd" d="M1230.5,1053.6l63.6,38.2c-38.4,35.4-72.4,88.2-86.6,117.4c-16.6,13.6-38.4,7.4-53-2.4      L1230.5,1053.6z" clip-rule="evenodd" class="colordfe6ff svgShape"/><path fill="#2c7efe" fill-rule="evenodd" d="M1166.9,1213l92.3-141.7l-28.7-17.8l-76,153.2C1158.1,1209.3,1162.4,1211.5,1166.9,1213      L1166.9,1213z" clip-rule="evenodd" class="color2c7efe svgShape"/><path fill="#84b2fe" fill-rule="evenodd" d="M1204.7,1062.7c-10.2,3.2-19.3,10.5-24.3,20.7l0,0c-6.1,12.3-5.2,26.3,1.3,37.5l34.1,17.2      l33.1-50.9L1204.7,1062.7z" clip-rule="evenodd" class="color84b2fe svgShape"/><path fill="#2c7efe" fill-rule="evenodd" d="M1245.3,963.5l55.1,27.4c27.7,13.7,39.1,47.6,25.4,75.3l0,0      c-13.7,27.7-47.6,39.1-75.3,25.4l-55.1-27.4c-27.7-13.7-39.1-47.6-25.4-75.3l0,0C1183.7,961.2,1217.6,949.8,1245.3,963.5      L1245.3,963.5z" clip-rule="evenodd" class="color2c7efe svgShape"/><path fill="#dfe6ff" fill-rule="evenodd" d="M1150.7,773.4c18,65.5,55.7,153.9,111.6,197.5c37.8,26.4,1.4,106-50.4,101.7      C1038.5,1026.6,902.7,1134.6,1150.7,773.4L1150.7,773.4z" clip-rule="evenodd" class="colordfe6ff svgShape"/><path fill="#2c7efe" fill-rule="evenodd" d="M988.7,1065.1c-45.9-22.8-49.2-110.3-7.3-194.8c41.9-84.5,113.5-134.8,159.5-112.1      c45.9,22.8,49.2,110.3,7.3,194.8C1106.3,1037.5,1034.6,1087.9,988.7,1065.1L988.7,1065.1z" clip-rule="evenodd" class="color2c7efe svgShape"/><path fill="#dfe6ff" fill-rule="evenodd" d="M996.2,1049.9c-39.3-19.5-40.5-97.5-2.7-173.6c37.8-76.2,100.6-122.4,139.9-102.9      c39.3,19.5,40.5,97.5,2.7,173.6C1098.3,1023.2,1035.5,1069.4,996.2,1049.9L996.2,1049.9z" clip-rule="evenodd" class="colordfe6ff svgShape"/><path fill="#2c7efe" fill-rule="evenodd" d="M1146.6,931.4l-45.5-22.6l-23.1,46.6l45.5,22.6c4.3-7.3,8.5-15,12.4-22.9      C1139.8,947.1,1143.4,939.2,1146.6,931.4L1146.6,931.4z" clip-rule="evenodd" class="color2c7efe svgShape"/><path fill="#dfe6ff" fill-rule="evenodd" d="M1079.2,956c-7.8-3.8-8.9-17.5-2.5-30.3c6.4-12.8,17.9-20.2,25.7-16.3      c7.8,3.8,8.9,17.5,2.5,30.3C1098.5,952.6,1086.9,959.9,1079.2,956L1079.2,956z" clip-rule="evenodd" class="colordfe6ff svgShape"/><path fill="#2c7efe" fill-rule="evenodd" d="M1083.1,948.1c-5.1-2.5-5.9-11.5-1.7-20c4.2-8.5,11.8-13.3,16.9-10.8      c5.1,2.5,5.9,11.5,1.7,20C1095.9,945.8,1088.2,950.7,1083.1,948.1L1083.1,948.1z" clip-rule="evenodd" class="color2c7efe svgShape"/><path fill="#fcbb97" fill-rule="evenodd" d="M1199.5,1273.2l33.4-24.6l-4.5-45.9c1.6-27.4,14.5-57.4,4.7-82.5      c-22.3-40.8-98.9,10-64.6,53.5l21.6,32.7L1199.5,1273.2z" clip-rule="evenodd" class="colorfcbb97 svgShape"/><path fill="#4a94ff" fill-rule="evenodd" d="M1421.9,1299.1l29.5,112.6c-48.4,13-96.8,25.9-145,39c-38.6,6.5-81.5-1.2-91.9-55.9      l-25.8-173.9l39.4-9.1l63.6,146L1421.9,1299.1z" clip-rule="evenodd" class="color4a94ff svgShape"/><path fill="#2c7efe" fill-rule="evenodd" d="M1551.3,1340.5c-7.7,69.9-15,165.1-22.4,258.6c-5.5,70.2-11,139.5-16.7,196.4h-312.4l83.3-217.8l3.3-8.6      l12-31.5l4.8-12.6l31.4-82l35.6-93c4.3-16.7,10.9-27.8,18.6-35.9c11.3-12,24.8-17.3,35.7-23.5l12.7-2.4l43.6-8.2l0,0l7.4-1.4      c1,0.7,2.1,1.5,3.2,2.2c0.4,0.3,0.9,0.6,1.3,0.9c5.1,3.5,10.5,7.2,15.9,11.1c16.1,11.5,32.3,24.5,39.4,38      C1549.6,1334,1550.7,1337.3,1551.3,1340.5z" clip-rule="evenodd" class="color2c7efe svgShape"/><path fill="#ffcdad" fill-rule="evenodd" d="M1290.6,1571.5l12.9-31.4c-13.6-6.7-27.5-13.5-41.4-20.3c-12.4-26.6-47.8-49.3-61.6-48.2      c-26.1,2.7-51,39.2-23.5,56.9C1207.9,1554.5,1243.8,1544.2,1290.6,1571.5L1290.6,1571.5z" clip-rule="evenodd" class="colorffcdad svgShape"/><path fill="#4a94ff" fill-rule="evenodd" d="M1567,1375.1c4.1-49.5-69.1-81.6-76-40l-26.8,218.3l-190.2-33.6l-10,49.2c25,11.6,132,60.1,214.8,54.7      c34.1-7.2,54.5-15.7,67.3-61.6L1567,1375.1z" clip-rule="evenodd" class="color4a94ff svgShape"/><path fill="#fab893" fill-rule="evenodd" d="M1454.1,1256.1l60,19.6l-14.4,44.1c-22.7-7.3-98.1,34.2-67.9-21.8L1454.1,1256.1z" clip-rule="evenodd" class="colorfab893 svgShape"/><path fill="#fcccad" fill-rule="evenodd" d="M1606.7,1200.4l-111.2-90c-42.5,39.8-91,138.1-56,156.1       C1519.8,1300.4,1545.8,1279.5,1606.7,1200.4L1606.7,1200.4z" clip-rule="evenodd" class="colorfcccad svgShape"/><path fill="#1a164f" fill-rule="evenodd" d="M1435.3,1204.9c13.6-13.4,42.8,31.2,61.8,28.6l87.8-41.1       c-51.7,40.6-54.6,83.3-96.4,88.9c-14.1-1.9-30.1-6.7-49-14.8C1423.6,1258.3,1425,1233.4,1435.3,1204.9L1435.3,1204.9z" clip-rule="evenodd" class="color1a164f svgShape"/><path fill="#1a164f" fill-rule="evenodd" d="M1569.2,1194.9l-82.7-75c-18.8-10.4-20.6-72.1,35.4-81.5c51.8-2.3,51,71.3,98.4,119.3       c29.3,48.9-12.6,93.9-73.8,108.6C1520.5,1244.9,1584.9,1209,1569.2,1194.9L1569.2,1194.9z" clip-rule="evenodd" class="color1a164f svgShape"/><path fill="#fcccad" fill-rule="evenodd" d="M1543.5,1236.1c6.6-7.4,12.9-14.9,19.3-22.5c17.6-16.6,31.8-2,19.1,11.3       C1564.1,1242.2,1559.7,1234.1,1543.5,1236.1L1543.5,1236.1z" clip-rule="evenodd" class="colorfcccad svgShape"/><path fill="#ffffff" fill-rule="evenodd" d="M1443,1231.5c-0.4,1.4-0.6,2.8-0.7,4.2c-0.5,11.2,8.2,20.7,19.5,21.1c5.5,0.3,10.7-1.8,14.5-5.2       C1458.1,1250.1,1443.9,1241.5,1443,1231.5L1443,1231.5z" clip-rule="evenodd" class="colorfff svgShape"/></g><g><path fill="#84b2fe" fill-rule="evenodd" d="M624.6,1260.2c0,62.4-30.9,117.5-78.2,151c-3.4,2.4-6.8,4.6-10.3,6.8c-17.2,10.5-36.2,18.3-56.5,22.8     c-12.9,2.8-26.2,4.3-40,4.3c-14.2,0-28-1.6-41.3-4.6c-13.5-3.1-26.4-7.6-38.6-13.5c-11.7-5.6-22.8-12.4-33-20.3     c-43.9-33.8-72.1-86.9-72.1-146.6c0-102.2,82.8-185,185-185C541.8,1075.2,624.6,1158.1,624.6,1260.2z" clip-rule="evenodd" class="color84b2fe svgShape"/><path fill="#ffffff" fill-rule="evenodd" d="M630.2,1265.8c0,62.4-30.9,117.5-78.2,151c-3.4,2.4-6.8,4.6-10.3,6.8c-17.2,10.5-36.2,18.3-56.5,22.8     c-12.9,2.8-26.2,4.3-40,4.3c-14.2,0-28-1.6-41.3-4.6c-13.5-3.1-26.4-7.6-38.6-13.5c-11.7-5.6-22.8-12.4-33-20.3     c-43.9-33.8-72.1-86.9-72.1-146.6c0-102.2,82.8-185,185-185C547.4,1080.8,630.2,1163.7,630.2,1265.8z" clip-rule="evenodd" class="colorfff svgShape"/><path fill="#f973a7" fill-rule="evenodd" d="M552,1416.9c-3.4,2.4-6.8,4.6-10.3,6.8c-17.2,10.5-36.2,18.3-56.5,22.8c-11.4-23.2-22.8-46.3-34.2-69.5      c-1.8-3.7-3.6-7.4-5.4-11.1l54.3-10l21.7-4l0.4-0.1l0.8,1.7l9.2,19.8L552,1416.9z" clip-rule="evenodd" class="colorf973a7 svgShape"/><path fill="#060352" fill-rule="evenodd" d="M389.7,1248c0.7,65.1-26.6,34.2-36.8,88.3c-6.4,34.1-0.5,29.1,37.4,37.1c8.2,1.7,59-3.6,75.8,10.2      c16.8,13.8,31-10.8,33.2-24.7c5.1-31.8,30.9-59.4,24.2-91.4c-2.3-11.1,8.7-45.2,4.6-47.4C470.1,1189.9,424,1220.9,389.7,1248      L389.7,1248z" clip-rule="evenodd" class="color060352 svgShape"/><path fill="#f973a7" fill-rule="evenodd" d="M541.7,1423.6c-17.2,10.5-36.2,18.3-56.5,22.8c-12.9,2.8-26.2,4.3-40,4.3c-14.2,0-28-1.6-41.3-4.6      c-13.5-3.1-26.4-7.6-38.6-13.5l0.9-64l0-2.1c2.2-9.3,6.2-16.8,11.5-22.6c9.5-10.4,23.3-15.7,39.5-17.3c15.1-1.5,32.3,0.1,50,3.5      c12.4,2.4,24.9,5.8,37.3,9.6c0,0,0,0,0,0c6.7,1.4,12.3,5.6,17,12.1c0.4,0.5,0.8,1.1,1.1,1.6c3.6,5.3,6.6,12,9.2,19.8      C536.5,1387.2,539.6,1404.5,541.7,1423.6z" clip-rule="evenodd" class="colorf973a7 svgShape"/><path fill="#ffaa81" fill-rule="evenodd" d="M418.2,1237.2L468,1298c-0.2,10.2-0.4,20.3-0.6,30.5c-1.1,33.7-35.5,7.5-50.1,1.1L418.2,1237.2z" clip-rule="evenodd" class="colorffaa81 svgShape"/><path fill="#ffcdad" fill-rule="evenodd" d="M401.7,1215.1l102.2-10.6c-1.1,36.6,30.5,122.5-40.7,110.4C410.8,1306.5,407.6,1255.2,401.7,1215.1      L401.7,1215.1z" clip-rule="evenodd" class="colorffcdad svgShape"/><path fill="#060352" fill-rule="evenodd" d="M514.2,1242.2c23.4-18.9,20.1-6.4,33.5-36.4c8.3-18.7-0.7-41.7-60.7-38.5c-41.7,2.3-80.1-27.3-80,18.1      c0,15.1-35.1,9.3-24.4,60.5c4.2,19.8,20.5,0.3,25.8,33.5c3.2,19.5,11.7-35.9,11.9-35.9c15.4-19.3,68.8-35.4,84.1-17.8      C504.5,1226,513.1,1243.2,514.2,1242.2L514.2,1242.2z" clip-rule="evenodd" class="color060352 svgShape"/><path fill="#ffffff" fill-rule="evenodd" d="M498.9,1290.1c-4.1,9.7-11,16.2-19.2,16.6c-8.2,0.4-15.8-5.2-20.9-14.4c6.1,2.5,13,3.8,20.2,3.4      C486.3,1295.4,493,1293.3,498.9,1290.1L498.9,1290.1z" clip-rule="evenodd" class="colorfff svgShape"/><path fill="#f973a7" fill-rule="evenodd" d="M437.6,1398.7l-33.7,47.5c-13.5-3.1-26.4-7.6-38.6-13.5c-11.7-5.6-22.8-12.4-33-20.3      c7.8-15.6,16.5-31.5,26.5-45.7c5.8-8.3,12.1-16,18.9-22.7c0.9-0.8,1.7-1.7,2.6-2.5l32.2,32.2L437.6,1398.7z" clip-rule="evenodd" class="colorf973a7 svgShape"/></g><g><path fill="#84b2fe" fill-rule="evenodd" d="M1507.4,297.7c0,62.4-30.9,117.5-78.2,151c-0.4,0.3-0.8,0.6-1.2,0.8c-0.1,0.1-0.2,0.2-0.4,0.3     c-2.9,2-5.8,3.9-8.7,5.7c-17.2,10.5-36.2,18.3-56.5,22.8c-0.4,0.1-0.8,0.2-1.2,0.3c-12.5,2.7-25.5,4.1-38.7,4.1     c-14.2,0-28-1.6-41.3-4.6c-0.8-0.2-1.5-0.4-2.3-0.5c-6.1-1.4-12-3.2-17.8-5.2c-2.5-0.9-5-1.8-7.4-2.8c-3.8-1.5-7.5-3.1-11.1-4.9     c-11.7-5.6-22.8-12.4-33-20.3c-43.9-33.8-72.1-86.9-72.1-146.5c0-102.2,82.8-185,185-185C1424.5,112.7,1507.4,195.5,1507.4,297.7     z" clip-rule="evenodd" class="color84b2fe svgShape"/><path fill="#ffffff" fill-rule="evenodd" d="M1502.6,304.2c0,62.4-30.9,117.5-78.2,151c-0.4,0.3-0.8,0.6-1.2,0.8c-0.1,0.1-0.2,0.2-0.4,0.3     c-2.8,2-5.8,3.9-8.7,5.7c-17.2,10.5-36.2,18.3-56.5,22.8c-0.4,0.1-0.8,0.2-1.2,0.3c-12.5,2.7-25.5,4.1-38.7,4.1     c-14.2,0-28-1.6-41.3-4.6c-0.8-0.2-1.5-0.4-2.3-0.5c-6.1-1.4-12-3.2-17.8-5.2c-2.5-0.9-5-1.8-7.4-2.8c-3.8-1.5-7.5-3.1-11.1-4.9     c-11.7-5.6-22.8-12.4-33-20.3c-43.9-33.8-72.1-86.9-72.1-146.5c0-102.2,82.8-185,185-185C1419.8,119.3,1502.6,202.1,1502.6,304.2     z" clip-rule="evenodd" class="colorfff svgShape"/><path fill="#4eb754" fill-rule="evenodd" d="M1274.1,484c-6.1-1.4-12-3.2-17.8-5.2c-2.5-0.9-5-1.8-7.4-2.8l8.8-31.9l1.4-5.1L1274.1,484z" clip-rule="evenodd" class="color4eb754 svgShape"/><path fill="#0ebaa0" fill-rule="evenodd" d="M1423.2,456.1c-0.1,0.1-0.2,0.2-0.4,0.3c-2.8,2-5.8,3.9-8.7,5.7c-17.2,10.5-36.2,18.3-56.5,22.8     c-0.4,0.1-0.8,0.2-1.2,0.3c-12.5,2.7-25.5,4.1-38.7,4.1c-14.2,0-28-1.6-41.3-4.6c-0.8-0.2-1.5-0.4-2.3-0.5     c-6.1-1.4-12-3.2-17.8-5.2c-0.4-15.3,0-27.3,1.3-34.7c0.4-2.1,0.8-3.8,1.4-5.1c3.8-16,27.3-39.6,51.3-51.1l53.2-1.7     c17.8,2.9,43.3,14.2,54.6,41.5C1420.5,434.6,1422.2,444.3,1423.2,456.1z" clip-rule="evenodd" class="color0ebaa0 svgShape"/><path fill="#f8b590" fill-rule="evenodd" d="M1357.1,288.3l-49.1,67.2c0.8,10.8,1.6,21.6,2.3,32.3c3.2,35.7,38.1,6,53.2-1.7     L1357.1,288.3z" clip-rule="evenodd" class="colorf8b590 svgShape"/><path fill="#fcccad" fill-rule="evenodd" d="M1373.4,263.9l-108.9-5.4c3.3,38.7-25.2,131.6,49.5,114.7     C1369,361.3,1369.5,306.8,1373.4,263.9L1373.4,263.9z" clip-rule="evenodd" class="colorfcccad svgShape"/><path fill="#1a164f" fill-rule="evenodd" d="M1351.3,276.1c-27.3-17-73.4,17-87.3,6.9c-13.5-13.5-66.2,3.4-58.6-16.3     c7.5-13.2,20.1-15.7,30.1-23.6c-4.7-6.6-14.1-10.3-24.5-12.2c24.5-23.5,46.1-14.1,68.8-3.7c40.5-21.7,69.6-17.9,95.1,0.9     c23.5,16.9,4.7,54.3,1.9,79c3.7,5.7,12.2-0.9,17.8,1.4c-1.4,6.1-4.7,9.4-8.4,11.8c0.9,6.1,5,2.8,8.6,7.4c-9.6,7.7-25.1,10-34,8.6     C1361.6,312.5,1363.4,287.7,1351.3,276.1L1351.3,276.1z" clip-rule="evenodd" class="color1a164f svgShape"/></g><g><path fill="#84b2fe" fill-rule="evenodd" d="M649.7,436.1c0,54.1-23.2,102.8-60.3,136.6c-3,2.7-6,5.3-9.2,7.8c-2.8,2.3-5.7,4.5-8.7,6.6     c-0.4,0.3-0.8,0.6-1.2,0.8c-0.1,0.1-0.2,0.2-0.4,0.3c-2.8,2-5.8,3.9-8.7,5.7c-3,1.9-6.1,3.6-9.2,5.3     c-14.7,7.9-30.6,13.8-47.3,17.5c-0.4,0.1-0.8,0.2-1.2,0.3c-12.5,2.7-25.5,4.1-38.7,4.1c-14.2,0-28-1.6-41.3-4.6     c-0.8-0.2-1.5-0.4-2.3-0.5c-6.1-1.4-12-3.2-17.8-5.2c-2.5-0.9-5-1.8-7.4-2.8c-3.8-1.5-7.5-3.1-11.1-4.9     c-5.3-2.6-10.6-5.4-15.6-8.4c-6-3.6-11.8-7.6-17.4-11.9c-2.6-2-5.1-4-7.5-6.1c-2.5-2.2-5-4.4-7.4-6.7     c-35.3-33.7-57.2-81.2-57.2-133.8c0-102.2,82.8-185,185-185S649.7,333.9,649.7,436.1z" clip-rule="evenodd" class="color84b2fe svgShape"/><path fill="#ffffff" fill-rule="evenodd" d="M650.6,444.5c0,54.1-23.3,102.8-60.3,136.6c-3,2.7-6,5.3-9.2,7.8c-2.8,2.3-5.7,4.5-8.7,6.6     c-0.4,0.3-0.8,0.6-1.2,0.8c-0.1,0.1-0.2,0.2-0.4,0.3c-2.8,2-5.8,3.9-8.7,5.7c-3,1.9-6.1,3.6-9.2,5.3     c-14.7,7.9-30.6,13.8-47.3,17.5c-0.4,0.1-0.8,0.2-1.2,0.3c-12.5,2.7-25.5,4.1-38.7,4.1c-14.2,0-28-1.6-41.3-4.6     c-0.8-0.2-1.5-0.4-2.3-0.5c-6.1-1.4-12-3.2-17.8-5.2c-2.5-0.9-5-1.8-7.4-2.8c-3.8-1.5-7.5-3.1-11.1-4.9     c-5.3-2.6-10.6-5.4-15.6-8.4c-6-3.6-11.8-7.6-17.4-11.9c-2.6-2-5.1-4-7.5-6.1c-2.5-2.2-5-4.4-7.4-6.7     c-35.3-33.7-57.2-81.2-57.2-133.8c0-102.2,82.8-185,185-185S650.6,342.3,650.6,444.5z" clip-rule="evenodd" class="colorfff svgShape"/><path fill="#feb542" fill-rule="evenodd" d="M579.9,569v0.1l-0.2,19.5c-2.8,2.3-5.7,4.5-8.7,6.6c-0.4,0.3-0.8,0.6-1.2,0.8c-0.1,0.1-0.2,0.2-0.4,0.3     c-2.9,2-5.8,3.9-8.7,5.7c-3,1.9-6.1,3.6-9.2,5.3c-14.7,7.9-30.6,13.8-47.3,17.5c-0.4,0.1-0.8,0.2-1.2,0.3     c-12.5,2.7-25.5,4.1-38.7,4.1c-14.2,0-28-1.6-41.3-4.6c-0.8-0.2-1.5-0.4-2.3-0.5c-6.1-1.4-12-3.2-17.8-5.2     c-2.5-0.9-5-1.8-7.4-2.8c-3.8-1.5-7.5-3.1-11.1-4.9c-5.3-2.6-10.6-5.4-15.6-8.4c-6-3.6-11.8-7.6-17.4-11.9c-2.6-2-5.1-4-7.5-6.1     l-0.3-15.5c0.2-0.1,0.3-0.3,0.5-0.4c16.6-13.6,56.9-26.7,84.6-27l0.2,0.1l33,14.2l32.7-14.1l0.3-0.1     c27.7,0.4,66.2,14.6,84.6,27.2C579.6,568.8,579.8,568.9,579.9,569z" clip-rule="evenodd" class="colorfeb542 svgShape"/><path fill="#e49273" fill-rule="evenodd" d="M494.9,500l-65.7,6c-0.1,19.8-0.4,39.6-0.5,59.4c-1,25.3,65,26.5,65.7,0.5L494.9,500z" clip-rule="evenodd" class="colore49273 svgShape"/><path fill="#efad8d" fill-rule="evenodd" d="M476.2,370.2l-14.4,2.6l-14.5-2.6l0.1,5.4l-51.3,9.6c3.5,44.5-0.4,115.5,10.5,133.5     c10.4,15.8,36.3,21.9,55.2,21.5c18.9,0.4,44.8-5.8,55.1-21.5c10.9-18,7-89,10.5-133.5l-51.2-9.6V370.2z" clip-rule="evenodd" class="colorefad8d svgShape"/><path fill="#1a164f" fill-rule="evenodd" d="M416.4,389.9c-12.3,5.8-12,41.3-18,62c-6-35.7-17.3-69.5-4-97.3     c7.5-15.9,43.3-30.6,71.6-26.5c14.5,1.3,26.9,4.4,39.7,11.5c10.3,7,10.3,7.6,11.4,14c5.5-2.1,13.4,2.3,18.3,10.3     c14.2,22-5.4,56.9-10.1,88.5c-5.3-19.9-0.9-56.7-15.9-59.9c-13.8-4-38.9,6.6-46.8,7.1C444.7,402.7,432.3,383.2,416.4,389.9     L416.4,389.9z" clip-rule="evenodd" class="color1a164f svgShape"/><path fill="#1a164f" fill-rule="evenodd" d="M397.7 447l3.6-11c12.9 45.5-2.6 93.5 60.1 90.9l.1 22.2C389.1 534 393.9 499.1 397.7 447L397.7 447zM525.8 447l-3.5-11c-13 45.5 2.5 93.5-60.2 90.9l-.1 22.2C534.4 534 529.6 499.1 525.8 447L525.8 447z" clip-rule="evenodd" class="color1a164f svgShape"/><path fill="#1a164f" fill-rule="evenodd" d="M429.1,529.5c5.1-7,10.1-18.5,15.2-21.3c3.5-0.9,8.6-0.6,13.8-0.5v0.1     c1.3,0.1,2.5,0,3.8,0c1.3,0,2.4,0.1,3.6,0v-0.1c5.1-0.1,10.3-0.4,13.8,0.5c5,2.8,10.1,14.3,15.2,21.3l8.4-7.5     c-4-7.9-13.3-22.9-18.5-25.2c-5.1-1.5-14.4-0.9-22.4-0.6c-8-0.3-17.4-0.9-22.5,0.6c-5.3,2.3-14.5,17.3-18.5,25.2L429.1,529.5z" clip-rule="evenodd" class="color1a164f svgShape"/><path fill="#feb542" fill-rule="evenodd" d="M368.8 602.5c-6-3.6-11.8-7.6-17.4-11.9-2.6-2-5.1-4-7.5-6.1-2.5-2.2-5-4.4-7.4-6.7 3.1-4.3 5.6-7.5 7.5-9.4 0 0 .1.1.1.1C352.3 579.9 360.6 591.2 368.8 602.5zM588.9 580.7c-3 2.7-6 5.3-9.2 7.8-2.8 2.3-5.7 4.5-8.7 6.6-.4.3-.8.6-1.2.8-.1.1-.2.2-.4.3-2.9 2-5.8 3.9-8.7 5.7-3 1.9-6.1 3.6-9.2 5.3 9.4-12.8 18.7-25.7 28-38.5.1.1.2.3.4.4C582.1 571.4 585.2 575.4 588.9 580.7z" clip-rule="evenodd" class="colorfeb542 svgShape"/></g></svg>